{"glyphs":{"0":{"ha":814,"x_min":68,"x_max":746,"o":"m 610 339 q 551 195 610 255 q 407 136 491 136 q 263 195 323 136 q 203 339 203 255 l 203 610 q 263 754 203 694 q 407 814 323 814 q 551 754 491 814 q 610 610 610 694 l 610 339 m 136 339 q 215 147 136 227 q 407 68 294 68 q 599 147 519 68 q 678 339 678 227 l 678 610 q 599 802 678 723 q 407 882 519 882 q 215 802 294 882 q 136 610 136 723 l 136 339 m 746 339 q 647 99 746 199 q 407 0 547 0 q 167 99 267 0 q 68 339 68 199 l 68 610 q 167 850 68 751 q 407 949 267 949 q 647 850 547 949 q 746 610 746 751 l 746 339 m 271 339 q 311 243 271 283 q 407 203 351 203 q 503 243 463 203 q 543 339 543 283 l 543 610 q 503 706 543 667 q 407 746 463 746 q 311 706 351 746 q 271 610 271 667 l 271 339 z "},"1":{"ha":339,"x_min":68,"x_max":271,"o":"m 203 34 l 203 916 q 213 940 203 930 q 237 949 223 949 q 261 940 252 949 q 271 916 271 930 l 271 34 q 261 10 271 20 q 237 0 252 0 q 213 10 223 0 q 203 34 203 20 m 136 916 l 136 34 q 126 10 136 20 q 102 0 116 0 q 78 10 87 0 q 68 34 68 20 l 68 916 q 78 940 68 930 q 102 949 87 949 q 126 940 116 949 q 136 916 136 930 z "},"2":{"ha":678,"x_min":68,"x_max":616,"o":"m 582 68 q 606 58 596 68 q 616 34 616 48 q 606 10 616 20 q 582 0 596 0 l 347 0 q 155 79 235 0 q 75 271 75 159 q 155 463 75 383 l 322 630 q 342 678 342 650 q 322 726 342 707 q 274 746 302 746 q 227 726 246 746 l 134 633 q 110 623 123 623 q 85 633 96 623 q 76 657 76 644 q 85 682 76 671 l 178 774 q 274 814 218 814 q 370 774 330 814 q 410 678 410 734 q 370 583 410 622 l 203 415 q 144 271 144 355 q 203 127 144 186 q 347 68 262 68 l 582 68 m 347 136 q 251 175 291 136 q 211 271 211 215 q 251 367 211 328 l 418 534 q 477 679 477 594 q 418 822 477 763 q 274 882 359 882 q 131 822 190 882 l 126 818 q 102 808 116 808 q 78 818 88 808 q 68 841 68 827 q 78 865 68 855 l 83 870 q 274 949 162 949 q 466 870 387 949 q 546 679 546 791 q 466 486 546 566 l 299 319 q 279 271 279 300 q 299 223 279 243 q 347 203 319 203 l 582 203 q 606 194 596 203 q 616 170 616 184 q 606 145 616 155 q 582 136 596 136 l 347 136 z "},"3":{"ha":610,"x_min":68,"x_max":543,"o":"m 237 746 l 102 746 q 78 756 87 746 q 68 780 68 766 q 78 804 68 794 q 102 814 87 814 l 237 814 q 333 774 294 814 q 373 678 373 734 q 333 582 373 622 q 237 543 294 543 l 170 543 q 145 552 155 543 q 136 576 136 562 q 145 601 136 591 q 170 610 155 610 l 237 610 q 285 630 265 610 q 305 678 305 650 q 285 726 305 706 q 237 746 265 746 m 237 882 l 102 882 q 78 891 87 882 q 68 916 68 901 q 78 940 68 930 q 102 949 87 949 l 237 949 q 429 870 350 949 q 509 678 509 791 q 456 517 509 587 q 543 305 543 429 q 453 90 543 179 q 237 0 363 0 l 102 0 q 78 10 87 0 q 68 34 68 20 q 78 58 68 48 q 102 68 87 68 l 237 68 q 405 137 336 68 q 475 305 475 207 q 410 469 475 400 q 404 562 367 512 q 441 678 441 612 q 381 822 441 762 q 237 882 321 882 m 237 407 l 170 407 q 145 417 155 407 q 136 441 136 427 q 145 465 136 455 q 170 475 155 475 l 237 475 q 357 425 308 475 q 407 305 407 376 q 357 185 407 235 q 237 136 308 136 l 102 136 q 78 145 87 136 q 68 170 68 155 q 78 194 68 184 q 102 203 87 203 l 237 203 q 309 233 279 203 q 339 305 339 263 q 309 377 339 347 q 237 407 279 407 z "},"4":{"ha":678,"x_min":68,"x_max":610,"o":"m 543 34 l 543 916 q 552 940 543 930 q 576 949 562 949 q 601 940 591 949 q 610 916 610 930 l 610 34 q 601 10 610 20 q 576 0 591 0 q 552 10 562 0 q 543 34 543 20 m 203 407 l 203 916 q 213 940 203 930 q 237 949 223 949 q 261 940 252 949 q 271 916 271 930 l 271 441 l 407 441 l 407 916 q 417 940 407 930 q 441 949 427 949 q 465 940 455 949 q 475 916 475 930 l 475 407 q 465 383 475 393 q 441 373 455 373 l 237 373 q 213 383 223 373 q 203 407 203 393 m 102 237 q 78 247 87 237 q 68 271 68 257 l 68 916 q 78 940 68 930 q 102 949 87 949 q 126 940 116 949 q 136 916 136 930 l 136 305 l 441 305 q 465 295 455 305 q 475 271 475 286 l 475 34 q 465 10 475 20 q 441 0 455 0 q 417 10 427 0 q 407 34 407 20 l 407 237 l 102 237 z "},"5":{"ha":678,"x_min":68,"x_max":616,"o":"m 582 882 l 347 882 q 203 822 262 882 q 144 679 144 763 q 203 534 144 594 l 370 367 q 410 271 410 328 q 370 175 410 215 q 274 136 330 136 q 178 175 218 136 l 85 268 q 76 292 76 278 q 85 316 76 306 q 110 326 96 326 q 134 316 123 326 l 227 223 q 274 203 246 203 q 322 223 302 203 q 342 271 342 243 q 322 319 342 300 l 155 486 q 75 679 75 566 q 155 870 75 791 q 347 949 235 949 l 582 949 q 606 940 596 949 q 616 916 616 930 q 606 891 616 901 q 582 882 596 882 m 347 814 l 582 814 q 606 804 596 814 q 616 780 616 794 q 606 756 616 766 q 582 746 596 746 l 347 746 q 299 726 319 746 q 279 678 279 707 q 299 630 279 650 l 466 463 q 546 271 546 383 q 466 79 546 159 q 274 0 387 0 q 83 79 162 0 l 78 84 q 68 108 68 94 q 78 132 68 122 q 102 142 88 142 q 126 132 116 142 l 131 127 q 274 68 190 68 q 418 127 359 68 q 477 271 477 186 q 418 415 477 355 l 251 583 q 211 678 211 622 q 251 774 211 734 q 347 814 291 814 z "},"6":{"ha":814,"x_min":68,"x_max":746,"o":"m 576 949 q 601 940 591 949 q 610 916 610 930 q 601 891 610 901 q 576 882 591 882 l 407 882 q 215 802 294 882 q 136 610 136 723 l 136 339 q 215 147 136 227 q 407 68 294 68 q 599 147 519 68 q 678 339 678 227 q 599 531 678 452 q 407 610 519 610 q 215 531 294 610 q 203 519 209 525 l 203 611 q 263 754 203 694 q 407 814 323 814 l 576 814 q 601 804 591 814 q 610 780 610 794 q 601 756 610 766 q 576 746 591 746 l 407 746 q 311 707 351 746 q 278 654 288 683 q 407 678 337 678 q 647 579 547 678 q 746 339 746 479 q 647 99 746 199 q 407 0 547 0 q 167 99 267 0 q 68 339 68 199 l 68 610 q 167 850 68 751 q 407 949 267 949 l 576 949 m 610 339 q 551 195 610 255 q 407 136 491 136 q 263 195 323 136 q 203 339 203 255 q 263 483 203 423 q 407 543 323 543 q 551 483 491 543 q 610 339 610 423 m 271 339 q 311 243 271 283 q 407 203 351 203 q 503 243 463 203 q 543 339 543 283 q 503 435 543 395 q 407 475 463 475 q 311 435 351 475 q 271 339 271 395 z "},"7":{"ha":746,"x_min":65,"x_max":681,"o":"m 637 949 q 658 947 648 951 q 676 928 671 941 q 675 902 681 916 l 286 19 q 268 1 281 6 q 241 1 254 -4 q 223 20 229 7 q 224 46 218 33 l 592 882 l 102 882 q 78 891 87 882 q 68 916 68 901 q 78 940 68 930 q 102 949 87 949 l 637 949 m 431 814 q 446 811 438 814 q 464 792 459 805 q 463 766 469 779 l 133 20 q 114 2 127 7 q 88 3 101 -3 q 70 21 75 8 q 71 47 65 34 l 380 746 l 102 746 q 78 756 87 746 q 68 780 68 766 q 78 804 68 794 q 102 814 87 814 l 431 814 z "},"8":{"ha":678,"x_min":70,"x_max":608,"o":"m 339 746 q 294 726 313 745 q 274 675 274 707 q 294 630 274 643 l 339 597 l 385 630 q 404 675 404 643 q 385 726 404 707 q 339 746 366 745 m 339 203 q 385 223 366 204 q 404 275 404 243 q 385 319 404 307 l 339 352 l 294 319 q 274 275 274 307 q 294 223 274 243 q 339 203 313 204 m 339 433 l 433 367 q 473 275 473 334 q 433 175 473 215 q 339 136 393 136 q 245 175 285 136 q 205 275 205 215 q 245 367 205 334 l 339 433 m 339 516 l 245 583 q 205 675 205 615 q 245 774 205 734 q 339 814 285 813 q 433 774 393 813 q 473 675 473 734 q 433 583 473 615 l 339 516 m 481 534 q 540 675 540 587 q 481 822 540 763 q 339 882 422 881 q 197 822 256 881 q 138 675 138 763 q 197 534 138 587 l 281 475 l 197 415 q 138 274 138 362 q 197 127 138 186 q 339 68 256 68 q 481 127 422 68 q 540 274 540 186 q 481 415 540 362 l 397 475 l 481 534 m 512 475 l 528 463 q 608 274 608 390 q 528 79 608 159 q 339 0 450 1 q 150 79 229 1 q 70 274 70 159 q 150 463 70 390 l 166 475 l 150 486 q 70 675 70 559 q 150 870 70 791 q 339 949 229 949 q 528 870 450 949 q 608 675 608 791 q 528 486 608 559 l 512 475 z "},"9":{"ha":814,"x_min":68,"x_max":746,"o":"m 237 0 q 213 10 223 0 q 203 34 203 20 q 213 58 203 48 q 237 68 223 68 l 407 68 q 599 147 519 68 q 678 339 678 227 l 678 610 q 599 802 678 723 q 407 882 519 882 q 215 802 294 882 q 136 610 136 723 q 215 418 136 498 q 407 339 294 339 q 599 418 519 339 q 610 431 605 425 l 610 338 q 551 195 610 255 q 407 136 491 136 l 237 136 q 213 145 223 136 q 203 170 203 155 q 213 194 203 184 q 237 203 223 203 l 407 203 q 503 243 463 203 q 536 296 526 267 q 407 271 477 271 q 167 371 267 271 q 68 610 68 470 q 167 850 68 751 q 407 949 267 949 q 647 850 547 949 q 746 610 746 751 l 746 339 q 647 99 746 199 q 407 0 547 0 l 237 0 m 203 610 q 263 754 203 694 q 407 814 323 814 q 551 754 491 814 q 610 610 610 694 q 551 467 610 526 q 407 407 491 407 q 263 467 323 407 q 203 610 203 526 m 543 610 q 503 706 543 667 q 407 746 463 746 q 311 706 351 746 q 271 610 271 667 q 311 514 271 554 q 407 475 351 475 q 503 514 463 475 q 543 610 543 554 z "},"\u0000":{"ha":0,"x_min":0,"x_max":0,"o":""},"\u001d":{"ha":0,"x_min":0,"x_max":0,"o":""}," ":{"ha":345,"x_min":0,"x_max":0,"o":""}," ":{"ha":345,"x_min":0,"x_max":0,"o":""},"!":{"ha":407,"x_min":68,"x_max":339,"o":"m 203 0 q 107 40 147 0 q 68 136 68 79 q 107 232 68 192 q 203 271 147 271 q 299 232 260 271 q 339 136 339 192 q 299 40 339 79 q 203 0 260 0 m 203 68 q 251 88 231 68 q 271 136 271 108 q 251 183 271 163 q 203 203 231 203 q 156 183 176 203 q 136 136 136 163 q 156 88 136 108 q 203 68 176 68 m 237 373 l 237 916 q 247 940 237 930 q 271 949 257 949 q 295 940 286 949 q 305 916 305 930 l 305 373 q 295 349 305 359 q 271 339 286 339 q 247 349 257 339 q 237 373 237 359 m 170 916 l 170 373 q 160 349 170 359 q 136 339 150 339 q 112 349 121 339 q 102 373 102 359 l 102 916 q 112 940 102 930 q 136 949 121 949 q 160 940 150 949 q 170 916 170 930 z "},"\"":{"ha":678,"x_min":68,"x_max":610,"o":"m 68 916 q 78 940 68 930 q 102 949 87 949 q 126 940 116 949 q 136 916 136 930 l 136 712 q 126 688 136 698 q 102 678 116 678 q 78 688 87 678 q 68 712 68 698 l 68 916 m 203 916 q 213 940 203 930 q 237 949 223 949 q 261 940 252 949 q 271 916 271 930 l 271 712 q 261 688 271 698 q 237 678 252 678 q 213 688 223 678 q 203 712 203 698 l 203 916 m 407 916 q 417 940 407 930 q 441 949 427 949 q 465 940 455 949 q 475 916 475 930 l 475 712 q 465 688 475 698 q 441 678 455 678 q 417 688 427 678 q 407 712 407 698 l 407 916 m 543 916 q 552 940 543 930 q 576 949 562 949 q 601 940 591 949 q 610 916 610 930 l 610 712 q 601 688 610 698 q 576 678 591 678 q 552 688 562 678 q 543 712 543 698 l 543 916 z "},"#":{"ha":1085,"x_min":68,"x_max":1017,"o":"m 610 543 l 475 543 l 475 407 l 610 407 l 610 543 m 678 373 q 668 349 678 359 q 644 339 659 339 l 441 339 q 417 349 427 339 q 407 373 407 359 l 407 576 q 417 601 407 591 q 441 610 427 610 l 644 610 q 668 601 659 610 q 678 576 678 591 l 678 373 m 407 237 q 417 261 407 252 q 441 271 427 271 l 644 271 q 668 261 659 271 q 678 237 678 252 l 678 34 q 668 10 678 20 q 644 0 659 0 q 620 10 630 0 q 610 34 610 20 l 610 203 l 475 203 l 475 34 q 465 10 475 20 q 441 0 455 0 q 417 10 427 0 q 407 34 407 20 l 407 237 m 407 712 l 407 916 q 417 940 407 930 q 441 949 427 949 q 465 940 455 949 q 475 916 475 930 l 475 746 l 610 746 l 610 916 q 620 940 610 930 q 644 949 630 949 q 668 940 659 949 q 678 916 678 930 l 678 712 q 668 688 678 698 q 644 678 659 678 l 441 678 q 417 688 427 678 q 407 712 407 698 m 305 610 q 329 601 319 610 q 339 576 339 591 l 339 373 q 329 349 339 359 q 305 339 319 339 l 102 339 q 78 349 87 339 q 68 373 68 359 q 78 397 68 387 q 102 407 87 407 l 271 407 l 271 543 l 102 543 q 78 552 87 543 q 68 576 68 562 q 78 601 68 591 q 102 610 87 610 l 305 610 m 780 610 l 983 610 q 1007 601 998 610 q 1017 576 1017 591 q 1007 552 1017 562 q 983 543 998 543 l 814 543 l 814 407 l 983 407 q 1007 397 998 407 q 1017 373 1017 387 q 1007 349 1017 359 q 983 339 998 339 l 780 339 q 756 349 766 339 q 746 373 746 359 l 746 576 q 756 601 746 591 q 780 610 766 610 m 746 712 l 746 916 q 756 940 746 930 q 780 949 766 949 q 804 940 794 949 q 814 916 814 930 l 814 746 l 983 746 q 1007 736 998 746 q 1017 712 1017 726 q 1007 688 1017 698 q 983 678 998 678 l 780 678 q 756 688 766 678 q 746 712 746 698 m 339 237 l 339 34 q 329 10 339 20 q 305 0 319 0 q 281 10 291 0 q 271 34 271 20 l 271 203 l 102 203 q 78 213 87 203 q 68 237 68 223 q 78 261 68 252 q 102 271 87 271 l 305 271 q 329 261 319 271 q 339 237 339 252 m 746 237 q 756 261 746 252 q 780 271 766 271 l 983 271 q 1007 261 998 271 q 1017 237 1017 252 q 1007 213 1017 223 q 983 203 998 203 l 814 203 l 814 34 q 804 10 814 20 q 780 0 794 0 q 756 10 766 0 q 746 34 746 20 l 746 237 m 339 712 q 329 688 339 698 q 305 678 319 678 l 102 678 q 78 688 87 678 q 68 712 68 698 q 78 736 68 726 q 102 746 87 746 l 271 746 l 271 916 q 281 940 271 930 q 305 949 291 949 q 329 940 319 949 q 339 916 339 930 l 339 712 z "},"$":{"ha":678,"x_min":68,"x_max":616,"o":"m 339 -102 q 329 -126 339 -116 q 305 -136 319 -136 q 281 -126 291 -136 q 271 -102 271 -116 l 271 0 l 102 0 q 78 10 87 0 q 68 34 68 20 q 78 58 68 48 q 102 68 87 68 l 339 68 l 339 -102 m 475 37 l 475 -102 q 465 -126 475 -116 q 441 -136 455 -136 q 417 -126 427 -136 q 407 -102 407 -116 l 407 79 q 481 127 448 94 q 540 271 540 186 q 481 415 540 355 l 313 583 q 273 678 273 622 q 313 774 273 734 q 409 814 353 814 q 505 774 465 814 l 598 682 q 608 657 608 671 q 598 633 608 644 q 574 623 588 623 q 550 633 560 623 l 457 726 q 409 746 437 746 q 361 726 381 746 q 342 678 342 707 q 361 630 342 650 l 528 463 q 608 271 608 383 q 528 79 608 159 q 475 37 503 54 m 271 912 l 271 1051 q 281 1075 271 1065 q 305 1085 291 1085 q 329 1075 319 1085 q 339 1051 339 1065 l 339 870 q 265 822 298 855 q 206 679 206 763 q 265 534 206 594 l 433 367 q 473 271 473 328 q 433 175 473 215 q 337 136 393 136 l 102 136 q 78 145 87 136 q 68 170 68 155 q 78 194 68 184 q 102 203 87 203 l 337 203 q 385 223 365 203 q 404 271 404 243 q 385 319 404 300 l 218 486 q 138 679 138 566 q 218 870 138 791 q 271 912 243 895 m 407 1051 q 417 1075 407 1065 q 441 1085 427 1085 q 465 1075 455 1085 q 475 1051 475 1065 l 475 942 q 601 870 546 925 l 606 865 q 616 841 616 855 q 606 818 616 827 q 582 808 595 808 q 557 818 568 808 l 553 822 q 410 882 494 882 l 407 882 l 407 1051 z "},"%":{"ha":1085,"x_min":68,"x_max":1017,"o":"m 858 940 q 882 949 867 949 q 906 940 896 949 q 916 916 916 930 q 906 892 916 901 l 125 111 q 102 102 116 102 q 78 112 87 102 q 68 136 68 121 q 77 159 68 150 l 858 940 m 960 838 q 983 848 969 848 q 1007 838 998 848 q 1017 814 1017 828 q 1008 790 1017 800 l 228 10 q 203 0 218 0 q 179 10 189 0 q 170 34 170 20 q 180 58 170 48 l 960 838 m 271 543 q 127 602 187 543 q 68 746 68 662 q 127 890 68 830 q 271 949 187 949 q 415 890 355 949 q 475 746 475 830 q 415 602 475 662 q 271 543 355 543 m 271 610 q 367 650 328 610 q 407 746 407 690 q 367 842 407 802 q 271 882 328 882 q 175 842 215 882 q 136 746 136 802 q 175 650 136 690 q 271 610 215 610 m 271 678 q 223 698 243 678 q 203 746 203 718 q 223 794 203 774 q 271 814 243 814 q 319 794 299 814 q 339 746 339 774 q 319 698 339 718 q 271 678 299 678 m 814 0 q 670 60 730 0 q 610 203 610 119 q 670 347 610 288 q 814 407 730 407 q 958 347 898 407 q 1017 203 1017 288 q 958 60 1017 119 q 814 0 898 0 m 814 68 q 910 107 870 68 q 949 203 949 147 q 910 299 949 260 q 814 339 870 339 q 718 299 758 339 q 678 203 678 260 q 718 107 678 147 q 814 68 758 68 m 814 136 q 766 156 786 136 q 746 203 746 176 q 766 251 746 231 q 814 271 786 271 q 862 251 842 271 q 882 203 882 231 q 862 156 882 176 q 814 136 842 136 z "},"&":{"ha":882,"x_min":68,"x_max":814,"o":"m 373 543 q 277 582 317 543 q 237 678 237 622 q 277 774 237 734 q 373 814 317 814 l 509 814 q 533 804 523 814 q 543 780 543 794 q 533 756 543 766 q 509 746 523 746 l 373 746 q 325 726 345 746 q 305 678 305 706 q 325 630 305 650 q 373 610 345 610 l 780 610 q 804 601 794 610 q 814 576 814 591 q 804 552 814 562 q 780 543 794 543 l 373 543 m 610 441 q 620 465 610 455 q 644 475 630 475 l 780 475 q 804 465 794 475 q 814 441 814 455 q 804 417 814 427 q 780 407 794 407 l 678 407 l 678 203 l 780 203 q 804 194 794 203 q 814 170 814 184 q 804 145 814 155 q 780 136 794 136 l 644 136 q 620 145 630 136 q 610 170 610 155 l 610 441 m 373 136 q 253 185 302 136 q 203 305 203 235 q 253 425 203 376 q 373 475 302 475 l 509 475 q 533 465 523 475 q 543 441 543 455 l 543 170 q 533 145 543 155 q 509 136 523 136 l 373 136 m 373 407 q 301 377 331 407 q 271 305 271 347 q 301 233 271 263 q 373 203 331 203 l 475 203 l 475 407 l 373 407 m 373 0 q 157 90 247 0 q 68 305 68 179 q 154 517 68 429 q 102 678 102 587 q 181 870 102 791 q 373 949 260 949 l 509 949 q 533 940 523 949 q 543 916 543 930 q 533 891 543 901 q 509 882 523 882 l 373 882 q 229 822 289 882 q 170 678 170 762 q 206 562 170 612 q 201 469 243 512 q 136 305 136 400 q 205 137 136 207 q 373 68 275 68 l 780 68 q 804 58 794 68 q 814 34 814 48 q 804 10 814 20 q 780 0 794 0 l 373 0 z "},"'":{"ha":339,"x_min":68,"x_max":271,"o":"m 68 916 q 78 940 68 930 q 102 949 87 949 q 126 940 116 949 q 136 916 136 930 l 136 712 q 126 688 136 698 q 102 678 116 678 q 78 688 87 678 q 68 712 68 698 l 68 916 m 203 916 q 213 940 203 930 q 237 949 223 949 q 261 940 252 949 q 271 916 271 930 l 271 712 q 261 688 271 698 q 237 678 252 678 q 213 688 223 678 q 203 712 203 698 l 203 916 z "},"(":{"ha":610,"x_min":68,"x_max":543,"o":"m 407 814 l 509 814 q 533 804 523 814 q 543 780 543 794 q 533 756 543 766 q 509 746 523 746 l 407 746 q 311 706 351 746 q 271 610 271 667 l 271 339 q 311 243 271 283 q 407 203 351 203 l 509 203 q 533 194 523 203 q 543 170 543 184 q 533 145 543 155 q 509 136 523 136 l 407 136 q 263 195 323 136 q 203 339 203 255 l 203 610 q 263 754 203 694 q 407 814 323 814 m 407 949 l 509 949 q 533 940 523 949 q 543 916 543 930 q 533 891 543 901 q 509 882 523 882 l 407 882 q 215 802 294 882 q 136 610 136 723 l 136 339 q 215 147 136 227 q 407 68 294 68 l 509 68 q 533 58 523 68 q 543 34 543 48 q 533 10 543 20 q 509 0 523 0 l 407 0 q 167 99 267 0 q 68 339 68 199 l 68 610 q 167 850 68 751 q 407 949 267 949 z "},")":{"ha":610,"x_min":68,"x_max":543,"o":"m 203 136 l 102 136 q 78 145 87 136 q 68 170 68 155 q 78 194 68 184 q 102 203 87 203 l 203 203 q 299 243 260 203 q 339 339 339 283 l 339 610 q 299 706 339 667 q 203 746 260 746 l 102 746 q 78 756 87 746 q 68 780 68 766 q 78 804 68 794 q 102 814 87 814 l 203 814 q 347 754 288 814 q 407 610 407 694 l 407 339 q 347 195 407 255 q 203 136 288 136 m 203 0 l 102 0 q 78 10 87 0 q 68 34 68 20 q 78 58 68 48 q 102 68 87 68 l 203 68 q 395 147 316 68 q 475 339 475 227 l 475 610 q 395 802 475 723 q 203 882 316 882 l 102 882 q 78 891 87 882 q 68 916 68 901 q 78 940 68 930 q 102 949 87 949 l 203 949 q 443 850 344 949 q 543 610 543 751 l 543 339 q 443 99 543 199 q 203 0 344 0 z "},"*":{"ha":543,"x_min":45,"x_max":497,"o":"m 391 558 q 401 534 401 548 q 391 510 401 520 q 367 500 381 500 q 343 510 353 500 l 271 582 l 199 510 q 175 500 189 500 q 151 510 161 500 q 141 534 141 520 q 151 558 141 548 l 271 677 l 391 558 m 104 846 l 223 726 l 104 606 q 80 595 94 595 q 56 606 66 595 q 45 630 45 616 q 56 654 45 644 l 127 726 l 56 798 q 45 822 45 808 q 56 846 45 836 q 80 856 66 856 q 104 846 94 856 m 391 893 l 271 774 l 151 893 q 141 917 141 903 q 151 941 141 931 q 175 951 161 951 q 199 941 189 951 l 271 869 l 343 941 q 367 951 353 951 q 391 941 381 951 q 401 917 401 931 q 391 893 401 903 m 439 606 l 319 726 l 439 846 q 463 856 449 856 q 487 846 477 856 q 497 822 497 836 q 487 798 497 808 l 415 726 l 487 654 q 497 630 497 644 q 487 606 497 616 q 463 595 477 595 q 439 606 449 595 z "},"+":{"ha":610,"x_min":68,"x_max":543,"o":"m 509 441 q 533 431 523 441 q 543 407 543 421 q 533 383 543 393 q 509 373 523 373 l 407 373 l 407 271 q 397 247 407 257 q 373 237 387 237 q 349 247 359 237 q 339 271 339 257 l 339 441 l 509 441 m 102 441 l 271 441 l 271 271 q 261 247 271 257 q 237 237 252 237 q 213 247 223 237 q 203 271 203 257 l 203 373 l 102 373 q 78 383 87 373 q 68 407 68 393 q 78 431 68 421 q 102 441 87 441 m 271 678 l 271 509 l 102 509 q 78 518 87 509 q 68 543 68 528 q 78 567 68 557 q 102 576 87 576 l 203 576 l 203 678 q 213 702 203 692 q 237 712 223 712 q 261 702 252 712 q 271 678 271 692 m 509 509 l 339 509 l 339 678 q 349 702 339 692 q 373 712 359 712 q 397 702 387 712 q 407 678 407 692 l 407 576 l 509 576 q 533 567 523 576 q 543 543 543 557 q 533 518 543 528 q 509 509 523 509 z "},",":{"ha":407,"x_min":58,"x_max":349,"o":"m 139 -128 q 124 -150 136 -142 q 98 -153 112 -157 q 77 -138 84 -150 q 73 -112 70 -126 l 109 37 q 87 64 97 49 q 71 168 58 113 q 133 251 85 222 q 235 267 180 280 q 319 206 290 254 q 335 103 349 158 l 271 -161 q 255 -181 267 -174 q 230 -185 243 -189 q 209 -170 216 -182 q 205 -144 201 -158 l 269 119 q 261 171 275 146 q 219 201 246 195 q 168 193 192 208 q 137 151 144 178 q 145 100 131 124 q 187 69 160 76 l 139 -128 z "},"-":{"ha":543,"x_min":68,"x_max":475,"o":"m 102 441 l 441 441 q 465 431 455 441 q 475 407 475 421 q 465 383 475 393 q 441 373 455 373 l 102 373 q 78 383 87 373 q 68 407 68 393 q 78 431 68 421 q 102 441 87 441 m 441 509 l 102 509 q 78 518 87 509 q 68 543 68 528 q 78 567 68 557 q 102 576 87 576 l 441 576 q 465 567 455 576 q 475 543 475 557 q 465 518 475 528 q 441 509 455 509 z "},"­":{"ha":543,"x_min":68,"x_max":475,"o":"m 102 441 l 441 441 q 465 431 455 441 q 475 407 475 421 q 465 383 475 393 q 441 373 455 373 l 102 373 q 78 383 87 373 q 68 407 68 393 q 78 431 68 421 q 102 441 87 441 m 441 509 l 102 509 q 78 518 87 509 q 68 543 68 528 q 78 567 68 557 q 102 576 87 576 l 441 576 q 465 567 455 576 q 475 543 475 557 q 465 518 475 528 q 441 509 455 509 z "},".":{"ha":407,"x_min":68,"x_max":339,"o":"m 203 0 q 107 40 147 0 q 68 136 68 79 q 107 232 68 192 q 203 271 147 271 q 299 232 260 271 q 339 136 339 192 q 299 40 339 79 q 203 0 260 0 m 203 68 q 251 88 231 68 q 271 136 271 108 q 251 183 271 163 q 203 203 231 203 q 156 183 176 203 q 136 136 136 163 q 156 88 136 108 q 203 68 176 68 z "},"/":{"ha":1085,"x_min":68,"x_max":1017,"o":"m 858 940 q 882 949 867 949 q 906 940 896 949 q 916 916 916 930 q 906 892 916 901 l 125 111 q 102 102 116 102 q 78 112 87 102 q 68 136 68 121 q 77 159 68 150 l 858 940 m 960 838 q 983 848 969 848 q 1007 838 998 848 q 1017 814 1017 828 q 1008 790 1017 800 l 228 10 q 203 0 218 0 q 179 10 189 0 q 170 34 170 20 q 180 58 170 48 l 960 838 z "},":":{"ha":407,"x_min":68,"x_max":339,"o":"m 203 0 q 107 40 147 0 q 68 136 68 79 q 107 232 68 192 q 203 271 147 271 q 299 232 260 271 q 339 136 339 192 q 299 40 339 79 q 203 0 260 0 m 203 68 q 251 88 231 68 q 271 136 271 108 q 251 183 271 163 q 203 203 231 203 q 156 183 176 203 q 136 136 136 163 q 156 88 136 108 q 203 68 176 68 m 203 423 q 107 463 147 423 q 68 559 68 503 q 107 655 68 615 q 203 694 147 694 q 299 655 260 694 q 339 559 339 615 q 299 463 339 503 q 203 423 260 423 m 203 491 q 251 511 231 491 q 271 559 271 531 q 251 607 271 587 q 203 627 231 627 q 156 607 176 627 q 136 559 136 587 q 156 511 136 531 q 203 491 176 491 z "},";":{"ha":407,"x_min":58,"x_max":349,"o":"m 139 -128 q 124 -150 136 -142 q 98 -153 112 -157 q 77 -138 84 -150 q 73 -112 70 -126 l 109 37 q 87 64 97 49 q 71 168 58 113 q 133 251 85 222 q 235 267 180 280 q 319 206 290 254 q 335 103 349 158 l 271 -161 q 255 -181 267 -174 q 230 -185 243 -189 q 209 -170 216 -182 q 205 -144 201 -158 l 269 119 q 261 171 275 146 q 219 201 246 195 q 168 193 192 208 q 137 151 144 178 q 145 100 131 124 q 187 69 160 76 l 139 -128 m 203 423 q 107 463 147 423 q 68 559 68 503 q 107 655 68 615 q 203 694 147 694 q 299 655 260 694 q 339 559 339 615 q 299 463 339 503 q 203 423 260 423 m 203 491 q 251 511 231 491 q 271 559 271 531 q 251 607 271 587 q 203 627 231 627 q 156 607 176 627 q 136 559 136 587 q 156 511 136 531 q 203 491 176 491 z "},";":{"ha":407,"x_min":58,"x_max":349,"o":"m 139 -128 q 124 -150 136 -142 q 98 -153 112 -157 q 77 -138 84 -150 q 73 -112 70 -126 l 109 37 q 87 64 97 49 q 71 168 58 113 q 133 251 85 222 q 235 267 180 280 q 319 206 290 254 q 335 103 349 158 l 271 -161 q 255 -181 267 -174 q 230 -185 243 -189 q 209 -170 216 -182 q 205 -144 201 -158 l 269 119 q 261 171 275 146 q 219 201 246 195 q 168 193 192 208 q 137 151 144 178 q 145 100 131 124 q 187 69 160 76 l 139 -128 m 203 423 q 107 463 147 423 q 68 559 68 503 q 107 655 68 615 q 203 694 147 694 q 299 655 260 694 q 339 559 339 615 q 299 463 339 503 q 203 423 260 423 m 203 491 q 251 511 231 491 q 271 559 271 531 q 251 607 271 587 q 203 627 231 627 q 156 607 176 627 q 136 559 136 587 q 156 511 136 531 q 203 491 176 491 z "},"<":{"ha":543,"x_min":68,"x_max":475,"o":"m 441 814 q 465 804 455 814 q 475 780 475 794 q 465 756 475 766 q 441 746 455 746 l 271 746 l 271 203 l 441 203 q 465 194 455 203 q 475 170 475 184 q 465 145 475 155 q 441 136 455 136 l 203 136 l 203 814 l 441 814 m 441 949 q 465 940 455 949 q 475 916 475 930 q 465 891 475 901 q 441 882 455 882 l 136 882 l 136 68 l 441 68 q 465 58 455 68 q 475 34 475 48 q 465 10 475 20 q 441 0 455 0 l 68 0 l 68 949 l 441 949 z "},"=":{"ha":543,"x_min":68,"x_max":475,"o":"m 102 610 l 441 610 q 465 601 455 610 q 475 576 475 591 q 465 552 475 562 q 441 543 455 543 l 102 543 q 78 552 87 543 q 68 576 68 562 q 78 601 68 591 q 102 610 87 610 m 441 678 l 102 678 q 78 688 87 678 q 68 712 68 698 q 78 736 68 726 q 102 746 87 746 l 441 746 q 465 736 455 746 q 475 712 475 726 q 465 688 475 698 q 441 678 455 678 m 102 271 l 441 271 q 465 261 455 271 q 475 237 475 252 q 465 213 475 223 q 441 203 455 203 l 102 203 q 78 213 87 203 q 68 237 68 223 q 78 261 68 252 q 102 271 87 271 m 441 339 l 102 339 q 78 349 87 339 q 68 373 68 359 q 78 397 68 387 q 102 407 87 407 l 441 407 q 465 397 455 407 q 475 373 475 387 q 465 349 475 359 q 441 339 455 339 z "},">":{"ha":543,"x_min":68,"x_max":475,"o":"m 102 136 q 78 145 87 136 q 68 170 68 155 q 78 194 68 184 q 102 203 87 203 l 271 203 l 271 746 l 102 746 q 78 756 87 746 q 68 780 68 766 q 78 804 68 794 q 102 814 87 814 l 339 814 l 339 136 l 102 136 m 102 0 q 78 10 87 0 q 68 34 68 20 q 78 58 68 48 q 102 68 87 68 l 407 68 l 407 882 l 102 882 q 78 891 87 882 q 68 916 68 901 q 78 940 68 930 q 102 949 87 949 l 475 949 l 475 0 l 102 0 z "},"?":{"ha":610,"x_min":68,"x_max":546,"o":"m 271 0 q 175 40 215 0 q 136 136 136 79 q 175 232 136 192 q 271 271 215 271 q 367 232 328 271 q 407 136 407 192 q 367 40 407 79 q 271 0 328 0 m 271 68 q 319 88 299 68 q 339 136 339 108 q 319 183 339 163 q 271 203 299 203 q 223 183 243 203 q 203 136 203 163 q 223 88 203 108 q 271 68 243 68 m 164 472 l 322 630 q 342 678 342 650 q 322 726 342 707 q 274 746 302 746 q 227 726 246 746 l 134 633 q 110 623 123 623 q 85 633 96 623 q 76 657 76 644 q 85 682 76 671 l 178 774 q 274 814 218 814 q 370 774 330 814 q 410 678 410 734 q 370 583 410 622 l 218 430 q 213 424 216 427 q 189 414 203 414 q 164 424 174 414 q 155 448 155 433 q 164 472 155 462 m 418 534 q 477 679 477 594 q 418 822 477 763 q 274 882 359 882 q 131 822 190 882 l 126 818 q 102 808 116 808 q 78 818 88 808 q 68 841 68 827 q 78 865 68 855 l 83 870 q 274 949 162 949 q 466 870 387 949 q 546 679 546 791 q 466 486 546 566 l 319 339 q 310 330 315 334 q 286 319 300 319 q 261 329 271 319 q 252 353 252 339 q 262 378 252 368 l 271 387 l 418 534 z "},"@":{"ha":1085,"x_min":68,"x_max":1017,"o":"m 543 0 q 207 139 346 0 q 68 475 68 278 q 207 810 68 671 q 543 949 346 949 q 878 810 739 949 q 1017 475 1017 671 q 878 139 1017 278 q 543 0 739 0 m 543 68 q 830 187 711 68 q 949 475 949 306 q 830 763 949 644 q 543 882 711 882 q 255 763 374 882 q 136 475 136 644 q 255 187 136 306 q 543 68 374 68 m 543 136 q 303 235 402 136 q 203 475 203 334 q 303 714 203 615 q 543 814 402 814 q 782 714 683 814 q 882 475 882 615 q 782 235 882 334 q 543 136 683 136 m 543 203 q 734 283 655 203 q 814 475 814 362 q 734 667 814 587 q 543 746 655 746 q 351 667 430 746 q 271 475 271 587 q 351 283 271 362 q 543 203 430 203 m 543 339 q 447 379 486 339 q 407 475 407 418 q 447 571 407 531 q 543 610 486 610 q 638 571 599 610 q 678 475 678 531 q 638 379 678 418 q 543 339 599 339 m 543 407 q 590 427 570 407 q 610 475 610 447 q 590 523 610 503 q 543 543 570 543 q 495 523 515 543 q 475 475 475 503 q 495 427 475 447 q 543 407 515 407 z "},"A":{"ha":1017,"x_min":0,"x_max":949,"o":"m 882 833 l 58 10 q 34 0 48 0 q 10 10 20 0 q 0 34 0 20 q 10 58 0 48 l 892 940 q 916 949 901 949 q 940 940 930 949 q 949 916 949 930 l 949 34 q 940 10 949 20 q 916 0 930 0 l 576 0 q 552 10 562 0 q 543 34 543 20 q 552 58 543 48 q 576 68 562 68 l 882 68 l 882 833 m 780 136 l 576 136 q 552 145 562 136 q 543 170 543 155 q 552 194 543 184 q 576 203 562 203 l 746 203 l 746 494 l 262 10 q 237 0 252 0 q 213 10 223 0 q 203 34 203 20 q 214 58 203 48 l 756 601 q 780 610 766 610 q 804 601 794 610 q 814 576 814 591 l 814 170 q 804 145 814 155 q 780 136 794 136 z "},"B":{"ha":882,"x_min":68,"x_max":814,"o":"m 509 203 q 581 233 551 203 q 610 305 610 263 q 581 377 610 347 q 509 407 551 407 l 271 407 l 271 203 l 509 203 m 509 475 q 629 425 579 475 q 678 305 678 376 q 629 185 678 235 q 509 136 579 136 l 237 136 q 213 145 223 136 q 203 170 203 155 l 203 441 q 213 465 203 455 q 237 475 223 475 l 509 475 m 271 746 l 271 610 l 509 610 q 556 630 536 610 q 576 678 576 650 q 556 726 576 706 q 509 746 536 746 l 271 746 m 237 543 q 213 552 223 543 q 203 576 203 562 l 203 780 q 213 804 203 794 q 237 814 223 814 l 509 814 q 605 774 565 814 q 644 678 644 734 q 605 582 644 622 q 509 543 565 543 l 237 543 m 509 68 q 676 137 607 68 q 746 305 746 207 q 681 469 746 400 q 675 562 638 512 q 712 678 712 612 q 652 822 712 762 q 509 882 593 882 l 136 882 l 136 68 l 509 68 m 509 949 q 701 870 621 949 q 780 678 780 791 q 728 517 780 587 q 814 305 814 429 q 724 90 814 179 q 509 0 635 0 l 102 0 q 78 10 87 0 q 68 34 68 20 l 68 916 q 78 940 68 930 q 102 949 87 949 l 509 949 z "},"C":{"ha":1017,"x_min":68,"x_max":949,"o":"m 203 475 q 303 714 203 615 q 543 814 402 814 q 783 716 682 814 l 851 648 q 861 624 861 638 q 851 600 861 610 q 827 590 841 590 q 803 600 813 590 l 734 667 q 543 746 655 746 q 351 667 430 746 q 271 475 271 587 q 351 283 271 362 q 543 203 430 203 q 734 283 655 203 l 803 349 q 827 359 813 359 q 851 349 841 359 q 861 325 861 339 q 851 301 861 311 l 783 233 q 543 136 682 136 q 303 235 402 136 q 203 475 203 334 m 68 475 q 207 810 68 671 q 543 949 346 949 q 877 812 739 949 l 939 750 q 949 726 949 740 q 939 702 949 712 q 915 692 929 692 q 891 702 901 692 l 830 762 q 543 882 711 882 q 255 763 374 882 q 136 475 136 644 q 255 187 136 306 q 543 68 374 68 q 830 187 711 68 l 891 248 q 915 258 901 258 q 939 248 929 258 q 949 223 949 237 q 939 199 949 210 l 877 138 q 543 0 739 0 q 207 139 346 0 q 68 475 68 278 z "},"D":{"ha":949,"x_min":68,"x_max":882,"o":"m 407 68 q 695 187 576 68 q 814 475 814 306 q 695 763 814 644 q 407 882 576 882 l 136 882 l 136 68 l 407 68 m 407 203 q 599 283 519 203 q 678 475 678 362 q 599 667 678 587 q 407 746 519 746 l 271 746 l 271 203 l 407 203 m 407 814 q 647 714 547 814 q 746 475 746 615 q 647 235 746 334 q 407 136 547 136 l 237 136 q 213 145 223 136 q 203 170 203 155 l 203 780 q 213 804 203 794 q 237 814 223 814 l 407 814 m 407 949 q 743 810 604 949 q 882 475 882 671 q 743 139 882 278 q 407 0 604 0 l 102 0 q 78 10 87 0 q 68 34 68 20 l 68 916 q 78 940 68 930 q 102 949 87 949 l 407 949 z "},"E":{"ha":746,"x_min":68,"x_max":678,"o":"m 136 68 l 644 68 q 668 58 659 68 q 678 34 678 48 q 668 10 678 20 q 644 0 659 0 l 102 0 q 78 10 87 0 q 68 34 68 20 l 68 916 q 78 940 68 930 q 102 949 87 949 l 644 949 q 668 940 659 949 q 678 916 678 930 q 668 891 678 901 q 644 882 659 882 l 136 882 l 136 68 m 237 441 l 644 441 q 668 431 659 441 q 678 407 678 421 q 668 383 678 393 q 644 373 659 373 l 271 373 l 271 203 l 644 203 q 668 194 659 203 q 678 170 678 184 q 668 145 678 155 q 644 136 659 136 l 237 136 q 213 145 223 136 q 203 170 203 155 l 203 407 q 213 431 203 421 q 237 441 223 441 m 237 814 l 644 814 q 668 804 659 814 q 678 780 678 794 q 668 756 678 766 q 644 746 659 746 l 271 746 l 271 576 l 644 576 q 668 567 659 576 q 678 543 678 557 q 668 518 678 528 q 644 509 659 509 l 237 509 q 213 518 223 509 q 203 543 203 528 l 203 780 q 213 804 203 794 q 237 814 223 814 z "},"F":{"ha":746,"x_min":68,"x_max":678,"o":"m 237 814 l 644 814 q 668 804 659 814 q 678 780 678 794 q 668 756 678 766 q 644 746 659 746 l 271 746 l 271 576 l 644 576 q 668 567 659 576 q 678 543 678 557 q 668 518 678 528 q 644 509 659 509 l 237 509 q 213 518 223 509 q 203 543 203 528 l 203 780 q 213 804 203 794 q 237 814 223 814 m 136 34 q 126 10 136 20 q 102 0 116 0 q 78 10 87 0 q 68 34 68 20 l 68 916 q 78 940 68 930 q 102 949 87 949 l 644 949 q 668 940 659 949 q 678 916 678 930 q 668 891 678 901 q 644 882 659 882 l 136 882 l 136 34 m 237 441 l 644 441 q 668 431 659 441 q 678 407 678 421 q 668 383 678 393 q 644 373 659 373 l 271 373 l 271 34 q 261 10 271 20 q 237 0 252 0 q 213 10 223 0 q 203 34 203 20 l 203 407 q 213 431 203 421 q 237 441 223 441 z "},"G":{"ha":1017,"x_min":68,"x_max":949,"o":"m 543 509 q 518 518 528 509 q 509 543 509 528 q 518 567 509 557 q 543 576 528 576 l 916 576 q 940 567 930 576 q 949 543 949 557 l 949 292 q 877 138 949 210 q 543 0 739 0 q 207 139 346 0 q 68 475 68 278 q 207 810 68 671 q 543 949 346 949 q 850 839 739 949 l 858 831 q 868 807 868 821 q 858 783 868 793 q 834 773 848 773 q 810 783 820 773 l 803 789 q 543 882 711 882 q 255 763 374 882 q 136 475 136 644 q 255 187 136 306 q 543 68 374 68 q 830 187 711 68 q 882 289 882 238 l 882 509 l 543 509 m 746 373 l 543 373 q 518 383 528 373 q 509 407 509 393 q 518 431 509 421 q 543 441 528 441 l 780 441 q 804 431 794 441 q 814 407 814 421 l 814 296 q 746 202 814 254 q 543 136 658 136 q 303 235 402 136 q 203 475 203 334 q 303 714 203 615 q 543 814 402 814 q 755 743 682 814 l 770 730 q 780 706 780 720 q 770 682 780 692 q 746 671 760 671 q 722 682 732 671 l 707 694 q 543 746 655 746 q 351 667 430 746 q 271 475 271 587 q 351 283 271 362 q 543 203 430 203 q 734 283 655 203 q 746 368 747 296 l 746 373 z "},"H":{"ha":882,"x_min":68,"x_max":814,"o":"m 746 34 l 746 916 q 756 940 746 930 q 780 949 766 949 q 804 940 794 949 q 814 916 814 930 l 814 34 q 804 10 814 20 q 780 0 794 0 q 756 10 766 0 q 746 34 746 20 m 136 916 l 136 34 q 126 10 136 20 q 102 0 116 0 q 78 10 87 0 q 68 34 68 20 l 68 916 q 78 940 68 930 q 102 949 87 949 q 126 940 116 949 q 136 916 136 930 m 203 543 l 203 916 q 213 940 203 930 q 237 949 223 949 q 261 940 252 949 q 271 916 271 930 l 271 576 l 610 576 l 610 916 q 620 940 610 930 q 644 949 630 949 q 668 940 659 949 q 678 916 678 930 l 678 543 q 668 518 678 528 q 644 509 659 509 l 237 509 q 213 518 223 509 q 203 543 203 528 m 203 407 q 213 431 203 421 q 237 441 223 441 l 644 441 q 668 431 659 441 q 678 407 678 421 l 678 34 q 668 10 678 20 q 644 0 659 0 q 620 10 630 0 q 610 34 610 20 l 610 373 l 271 373 l 271 34 q 261 10 271 20 q 237 0 252 0 q 213 10 223 0 q 203 34 203 20 l 203 407 z "},"I":{"ha":339,"x_min":68,"x_max":271,"o":"m 203 34 l 203 916 q 213 940 203 930 q 237 949 223 949 q 261 940 252 949 q 271 916 271 930 l 271 34 q 261 10 271 20 q 237 0 252 0 q 213 10 223 0 q 203 34 203 20 m 136 916 l 136 34 q 126 10 136 20 q 102 0 116 0 q 78 10 87 0 q 68 34 68 20 l 68 916 q 78 940 68 930 q 102 949 87 949 q 126 940 116 949 q 136 916 136 930 z "},"J":{"ha":814,"x_min":68,"x_max":746,"o":"m 543 916 q 552 940 543 930 q 576 949 562 949 q 601 940 591 949 q 610 916 610 930 l 610 339 q 551 195 610 255 q 407 136 491 136 q 263 195 323 136 q 203 339 203 255 l 203 373 q 213 397 203 387 q 237 407 223 407 q 261 397 252 407 q 271 373 271 387 l 271 339 q 311 243 271 283 q 407 203 351 203 q 503 243 463 203 q 543 339 543 283 l 543 916 m 678 916 q 688 940 678 930 q 712 949 698 949 q 736 940 726 949 q 746 916 746 930 l 746 339 q 647 99 746 199 q 407 0 547 0 q 167 99 267 0 q 68 339 68 199 l 68 373 q 78 397 68 387 q 102 407 87 407 q 126 397 116 407 q 136 373 136 387 l 136 339 q 215 147 136 227 q 407 68 294 68 q 599 147 519 68 q 678 339 678 227 l 678 916 z "},"K":{"ha":882,"x_min":68,"x_max":814,"o":"m 136 34 q 126 10 136 20 q 102 0 116 0 q 78 10 87 0 q 68 34 68 20 l 68 916 q 78 940 68 930 q 102 949 87 949 q 126 940 116 949 q 136 916 136 930 l 136 34 m 756 940 q 780 949 766 949 q 804 940 794 949 q 814 916 814 930 q 804 892 814 901 l 387 475 l 804 58 q 814 34 814 48 q 804 10 814 20 q 780 0 794 0 q 756 9 766 0 l 319 447 q 315 451 317 448 q 305 475 305 460 q 315 498 305 489 l 756 940 m 271 659 l 553 940 q 576 949 562 949 q 601 940 591 949 q 610 916 610 930 q 601 892 610 901 l 262 553 q 237 543 252 543 q 214 553 223 543 q 203 576 203 562 l 203 916 q 213 940 203 930 q 237 949 223 949 q 261 940 252 949 q 271 916 271 930 l 271 659 m 271 291 l 271 34 q 261 10 271 20 q 237 0 252 0 q 213 10 223 0 q 203 34 203 20 l 203 373 q 214 397 203 387 q 237 407 223 407 q 262 397 252 407 l 601 58 q 610 34 610 48 q 601 10 610 20 q 576 0 591 0 q 553 9 562 0 l 271 291 z "},"L":{"ha":746,"x_min":68,"x_max":678,"o":"m 136 916 l 136 68 l 644 68 q 668 58 659 68 q 678 34 678 48 q 668 10 678 20 q 644 0 659 0 l 102 0 q 78 10 87 0 q 68 34 68 20 l 68 916 q 78 940 68 930 q 102 949 87 949 q 126 940 116 949 q 136 916 136 930 m 271 203 l 644 203 q 668 194 659 203 q 678 170 678 184 q 668 145 678 155 q 644 136 659 136 l 237 136 q 213 145 223 136 q 203 170 203 155 l 203 916 q 213 940 203 930 q 237 949 223 949 q 261 940 252 949 q 271 916 271 930 l 271 203 z "},"M":{"ha":1560,"x_min":0,"x_max":1492,"o":"m 882 833 l 58 10 q 34 0 48 0 q 10 10 20 0 q 0 34 0 20 q 10 58 0 48 l 892 940 q 916 949 901 949 q 940 940 930 949 q 949 916 949 930 l 949 455 q 1458 949 1444 949 q 1482 940 1472 949 q 1492 916 1492 930 l 1492 34 q 1482 10 1492 20 q 1458 0 1472 0 q 1434 10 1444 0 q 1424 34 1424 20 l 1424 833 l 940 349 q 916 339 930 339 q 891 349 901 339 q 882 373 882 359 l 882 833 m 746 494 l 262 10 q 237 0 252 0 q 213 10 223 0 q 203 34 203 20 q 214 58 203 48 l 756 601 q 780 610 766 610 q 804 601 794 610 q 814 576 814 591 l 814 116 l 1299 601 q 1322 610 1308 610 q 1347 601 1337 610 q 1356 576 1356 591 l 1356 34 q 1347 10 1356 20 q 1322 0 1337 0 q 1298 10 1308 0 q 1289 34 1289 20 l 1289 494 l 804 10 q 780 0 794 0 q 756 10 766 0 q 746 34 746 20 l 746 494 z "},"N":{"ha":882,"x_min":68,"x_max":814,"o":"m 271 495 l 271 34 q 261 10 271 20 q 237 0 252 0 q 213 10 223 0 q 203 34 203 20 l 203 576 q 213 601 203 591 q 237 610 223 610 q 262 601 252 610 l 746 116 l 746 916 q 756 940 746 930 q 780 949 766 949 q 804 940 794 949 q 814 916 814 930 l 814 34 q 804 10 814 20 q 781 0 794 0 q 756 9 766 0 l 271 495 m 136 834 l 136 34 q 126 10 136 20 q 102 0 116 0 q 78 10 87 0 q 68 34 68 20 l 68 916 q 78 940 68 930 q 102 949 87 949 q 126 940 116 949 l 610 455 l 610 916 q 620 940 610 930 q 644 949 630 949 q 668 940 659 949 q 678 916 678 930 l 678 373 q 668 349 678 359 q 644 339 659 339 q 621 349 630 339 l 136 834 z "},"O":{"ha":1085,"x_min":68,"x_max":1017,"o":"m 543 0 q 207 139 346 0 q 68 475 68 278 q 207 810 68 671 q 543 949 346 949 q 878 810 739 949 q 1017 475 1017 671 q 878 139 1017 278 q 543 0 739 0 m 543 68 q 830 187 711 68 q 949 475 949 306 q 830 763 949 644 q 543 882 711 882 q 255 763 374 882 q 136 475 136 644 q 255 187 136 306 q 543 68 374 68 m 543 136 q 303 235 402 136 q 203 475 203 334 q 303 714 203 615 q 543 814 402 814 q 782 714 683 814 q 882 475 882 615 q 782 235 882 334 q 543 136 683 136 m 543 203 q 734 283 655 203 q 814 475 814 362 q 734 667 814 587 q 543 746 655 746 q 351 667 430 746 q 271 475 271 587 q 351 283 271 362 q 543 203 430 203 z "},"P":{"ha":882,"x_min":68,"x_max":814,"o":"m 271 746 l 271 475 l 475 475 q 571 514 531 475 q 610 610 610 554 q 571 706 610 667 q 475 746 531 746 l 271 746 m 203 780 q 213 804 203 794 q 237 814 223 814 l 475 814 q 618 754 559 814 q 678 610 678 694 q 618 467 678 526 q 475 407 559 407 l 237 407 q 213 417 223 407 q 203 441 203 427 l 203 780 m 271 271 l 271 34 q 261 10 271 20 q 237 0 252 0 q 213 10 223 0 q 203 34 203 20 l 203 305 q 213 329 203 319 q 237 339 223 339 l 475 339 q 667 418 587 339 q 746 610 746 498 q 667 802 746 723 q 475 882 587 882 l 136 882 l 136 34 q 126 10 136 20 q 102 0 116 0 q 78 10 87 0 q 68 34 68 20 l 68 916 q 78 940 68 930 q 102 949 87 949 l 475 949 q 714 850 615 949 q 814 610 814 751 q 714 371 814 470 q 475 271 615 271 l 271 271 z "},"Q":{"ha":1085,"x_min":68,"x_max":1017,"o":"m 808 263 l 654 417 q 644 441 644 427 q 654 465 644 455 q 678 475 664 475 q 703 465 692 475 l 795 372 q 814 475 814 420 q 734 667 814 587 q 543 746 655 746 q 351 667 430 746 q 271 475 271 587 q 351 283 271 362 q 543 203 430 203 q 646 222 598 203 l 553 315 q 543 339 543 325 q 552 363 543 353 q 576 373 562 373 q 601 363 591 373 l 754 210 q 543 136 664 136 q 303 235 402 136 q 203 475 203 334 q 303 714 203 615 q 543 814 402 814 q 782 714 683 814 q 882 475 882 615 q 808 263 882 354 m 884 187 l 857 215 q 890 260 875 237 q 949 475 949 355 q 830 763 949 644 q 543 882 711 882 q 255 763 374 882 q 136 475 136 644 q 255 187 136 306 q 543 68 374 68 q 803 161 692 68 l 850 113 l 906 58 q 916 34 916 48 q 906 10 916 20 q 882 0 896 0 q 858 9 867 0 l 795 72 q 543 0 684 0 q 207 139 346 0 q 68 475 68 278 q 207 810 68 671 q 543 949 346 949 q 878 810 739 949 q 1017 475 1017 671 q 945 222 1017 333 l 1008 159 q 1017 136 1017 150 q 1007 112 1017 121 q 983 102 998 102 q 960 111 969 102 l 884 187 z "},"R":{"ha":882,"x_min":68,"x_max":814,"o":"m 271 746 l 271 475 l 475 475 q 571 514 531 475 q 610 610 610 554 q 571 706 610 667 q 475 746 531 746 l 271 746 m 203 780 q 213 804 203 794 q 237 814 223 814 l 475 814 q 618 754 559 814 q 678 610 678 694 q 618 467 678 526 q 475 407 559 407 l 237 407 q 213 417 223 407 q 203 441 203 427 l 203 780 m 521 274 l 736 58 q 746 34 746 48 q 736 10 746 20 q 712 0 726 0 q 688 9 698 0 l 417 281 q 407 305 407 291 q 417 329 407 319 q 441 339 427 339 l 475 339 q 667 418 587 339 q 746 610 746 498 q 667 802 746 723 q 475 882 587 882 l 136 882 l 136 34 q 126 10 136 20 q 102 0 116 0 q 78 10 87 0 q 68 34 68 20 l 68 916 q 78 940 68 930 q 102 949 87 949 l 475 949 q 714 850 615 949 q 814 610 814 751 q 715 371 814 470 q 521 274 632 288 m 271 224 l 271 34 q 261 10 271 20 q 237 0 252 0 q 213 10 223 0 q 203 34 203 20 l 203 305 q 213 329 203 319 q 237 339 223 339 q 262 330 252 339 l 533 58 q 543 34 543 48 q 533 10 543 20 q 509 0 523 0 q 485 9 494 0 l 271 224 z "},"S":{"ha":678,"x_min":68,"x_max":616,"o":"m 102 68 l 337 68 q 481 127 421 68 q 540 271 540 186 q 481 415 540 355 l 313 583 q 273 678 273 622 q 313 774 273 734 q 409 814 353 814 q 505 774 465 814 l 598 682 q 608 657 608 671 q 598 633 608 644 q 574 623 588 623 q 550 633 560 623 l 457 726 q 409 746 437 746 q 361 726 381 746 q 342 678 342 707 q 361 630 342 650 l 528 463 q 608 271 608 383 q 528 79 608 159 q 337 0 449 0 l 102 0 q 78 10 87 0 q 68 34 68 20 q 78 58 68 48 q 102 68 87 68 m 337 136 l 102 136 q 78 145 87 136 q 68 170 68 155 q 78 194 68 184 q 102 203 87 203 l 337 203 q 385 223 365 203 q 404 271 404 243 q 385 319 404 300 l 218 486 q 138 679 138 566 q 218 870 138 791 q 409 949 297 949 q 601 870 522 949 l 606 865 q 616 841 616 855 q 606 818 616 827 q 582 808 595 808 q 557 818 568 808 l 553 822 q 409 882 494 882 q 265 822 325 882 q 206 679 206 763 q 265 534 206 594 l 433 367 q 473 271 473 328 q 433 175 473 215 q 337 136 393 136 z "},"T":{"ha":882,"x_min":68,"x_max":814,"o":"m 509 814 l 780 814 q 804 804 794 814 q 814 780 814 794 q 804 756 814 766 q 780 746 794 746 l 543 746 l 543 34 q 533 10 543 20 q 509 0 523 0 q 485 10 494 0 q 475 34 475 20 l 475 780 q 485 804 475 794 q 509 814 494 814 m 373 814 q 397 804 387 814 q 407 780 407 794 l 407 34 q 397 10 407 20 q 373 0 387 0 q 349 10 359 0 q 339 34 339 20 l 339 746 l 102 746 q 78 756 87 746 q 68 780 68 766 q 78 804 68 794 q 102 814 87 814 l 373 814 m 780 882 l 102 882 q 78 891 87 882 q 68 916 68 901 q 78 940 68 930 q 102 949 87 949 l 780 949 q 804 940 794 949 q 814 916 814 930 q 804 891 814 901 q 780 882 794 882 z "},"U":{"ha":814,"x_min":68,"x_max":746,"o":"m 543 916 q 552 940 543 930 q 576 949 562 949 q 601 940 591 949 q 610 916 610 930 l 610 339 q 551 195 610 255 q 407 136 491 136 q 263 195 323 136 q 203 339 203 255 l 203 916 q 213 940 203 930 q 237 949 223 949 q 261 940 252 949 q 271 916 271 930 l 271 339 q 311 243 271 283 q 407 203 351 203 q 503 243 463 203 q 543 339 543 283 l 543 916 m 678 916 q 688 940 678 930 q 712 949 698 949 q 736 940 726 949 q 746 916 746 930 l 746 339 q 647 99 746 199 q 407 0 547 0 q 167 99 267 0 q 68 339 68 199 l 68 916 q 78 940 68 930 q 102 949 87 949 q 126 940 116 949 q 136 916 136 930 l 136 339 q 215 147 136 227 q 407 68 294 68 q 599 147 519 68 q 678 339 678 227 l 678 916 z "},"V":{"ha":1017,"x_min":0,"x_max":949,"o":"m 214 892 q 203 916 203 901 q 213 940 203 930 q 237 949 223 949 q 262 940 252 949 l 746 455 l 746 916 q 756 940 746 930 q 780 949 766 949 q 804 940 794 949 q 814 916 814 930 l 814 373 q 804 349 814 359 q 780 339 794 339 q 756 349 766 339 l 214 892 m 882 116 l 882 916 q 891 940 882 930 q 916 949 901 949 q 940 940 930 949 q 949 916 949 930 l 949 34 q 940 10 949 20 q 916 0 930 0 q 892 9 901 0 l 10 892 q 0 916 0 901 q 10 940 0 930 q 34 949 20 949 q 58 940 48 949 l 882 116 z "},"W":{"ha":1560,"x_min":0,"x_max":1492,"o":"m 882 116 l 882 576 q 891 601 882 591 q 916 610 901 610 q 940 601 930 610 l 1424 116 l 1424 916 q 1434 940 1424 930 q 1458 949 1444 949 q 1482 940 1472 949 q 1492 916 1492 930 l 1492 34 q 1482 10 1492 20 q 1458 0 1472 0 q 949 494 1444 0 l 949 34 q 940 10 949 20 q 916 0 930 0 q 892 10 901 0 l 10 891 q 0 916 0 901 q 10 940 0 930 q 34 949 20 949 q 58 939 48 949 l 882 116 m 746 455 l 746 916 q 756 940 746 930 q 780 949 766 949 q 804 940 794 949 l 1289 455 l 1289 916 q 1298 940 1289 930 q 1322 949 1308 949 q 1347 940 1337 949 q 1356 916 1356 930 l 1356 373 q 1347 349 1356 359 q 1322 339 1337 339 q 1299 349 1308 339 l 814 833 l 814 373 q 804 349 814 359 q 780 339 794 339 q 756 349 766 339 l 214 891 q 203 916 203 901 q 213 940 203 930 q 237 949 223 949 q 262 939 252 949 l 746 455 z "},"X":{"ha":1085,"x_min":68,"x_max":1017,"o":"m 610 475 q 621 499 610 489 l 960 838 q 983 848 969 848 q 1007 838 998 848 q 1017 814 1017 828 q 1008 790 1017 800 l 692 475 l 1008 159 q 1017 136 1017 150 q 1007 112 1017 121 q 983 102 998 102 q 960 111 969 102 l 621 451 q 610 475 610 460 m 543 407 q 567 397 557 407 l 906 58 q 916 34 916 48 q 906 10 916 20 q 882 0 896 0 q 858 9 867 0 l 543 325 l 228 10 q 203 0 218 0 q 179 10 189 0 q 170 34 170 20 q 180 58 170 48 l 519 397 q 543 407 528 407 m 180 892 q 170 916 170 901 q 179 940 170 930 q 203 949 189 949 q 228 940 218 949 l 543 625 l 858 940 q 882 949 867 949 q 906 940 896 949 q 916 916 916 930 q 906 892 916 901 l 567 553 q 543 543 557 543 q 519 552 528 543 l 180 892 m 475 475 q 465 451 475 460 l 125 111 q 102 102 116 102 q 78 112 87 102 q 68 136 68 121 q 77 159 68 150 l 393 475 l 77 790 q 68 814 68 800 q 78 838 68 828 q 102 848 87 848 q 125 838 116 848 l 465 499 q 475 475 475 489 z "},"Y":{"ha":1017,"x_min":0,"x_max":1017,"o":"m 610 494 l 610 34 q 601 10 610 20 q 576 0 591 0 q 552 10 562 0 q 543 34 543 20 l 543 509 q 552 532 543 523 l 960 940 q 983 949 969 949 q 1007 940 998 949 q 1017 916 1017 930 q 1008 892 1017 901 l 610 494 m 214 892 q 203 916 203 901 q 213 940 203 930 q 237 949 223 949 q 262 940 252 949 l 509 692 l 756 940 q 780 949 766 949 q 804 940 794 949 q 814 916 814 930 q 804 892 814 901 l 533 621 q 509 610 523 610 q 485 620 494 610 l 214 892 m 407 494 l 9 892 q 0 916 0 901 q 10 940 0 930 q 34 949 20 949 q 58 940 48 949 l 465 532 q 475 509 475 523 l 475 34 q 465 10 475 20 q 441 0 455 0 q 417 10 427 0 q 407 34 407 20 l 407 494 z "},"Z":{"ha":746,"x_min":65,"x_max":681,"o":"m 361 203 l 644 203 q 668 194 659 203 q 678 170 678 184 q 668 145 678 155 q 644 136 659 136 l 311 136 q 295 138 303 135 q 277 157 282 144 q 278 183 272 170 l 592 882 l 102 882 q 78 891 87 882 q 68 916 68 901 q 78 940 68 930 q 102 949 87 949 l 637 949 q 658 947 648 951 q 676 928 671 941 q 675 902 681 916 l 361 203 m 154 68 l 644 68 q 668 58 659 68 q 678 34 678 48 q 668 10 678 20 q 644 0 659 0 l 109 0 q 72 17 79 0 q 71 47 65 34 l 380 746 l 102 746 q 78 756 87 746 q 68 780 68 766 q 78 804 68 794 q 102 814 87 814 l 431 814 q 446 811 438 814 q 464 792 459 805 q 463 766 469 779 l 154 68 z "},"[":{"ha":543,"x_min":68,"x_max":475,"o":"m 441 814 q 465 804 455 814 q 475 780 475 794 q 465 756 475 766 q 441 746 455 746 l 271 746 l 271 203 l 441 203 q 465 194 455 203 q 475 170 475 184 q 465 145 475 155 q 441 136 455 136 l 203 136 l 203 814 l 441 814 m 441 949 q 465 940 455 949 q 475 916 475 930 q 465 891 475 901 q 441 882 455 882 l 136 882 l 136 68 l 441 68 q 465 58 455 68 q 475 34 475 48 q 465 10 475 20 q 441 0 455 0 l 68 0 l 68 949 l 441 949 z "},"\\":{"ha":1085,"x_min":68,"x_max":1017,"o":"m 858 9 l 77 790 q 68 814 68 800 q 78 838 68 828 q 102 848 87 848 q 125 838 116 848 l 906 58 q 916 34 916 48 q 906 10 916 20 q 882 0 896 0 q 858 9 867 0 m 960 111 l 180 891 q 170 916 170 901 q 179 940 170 930 q 203 949 189 949 q 228 939 218 949 l 1008 159 q 1017 136 1017 150 q 1007 112 1017 121 q 983 102 998 102 q 960 111 969 102 z "},"]":{"ha":543,"x_min":68,"x_max":475,"o":"m 102 136 q 78 145 87 136 q 68 170 68 155 q 78 194 68 184 q 102 203 87 203 l 271 203 l 271 746 l 102 746 q 78 756 87 746 q 68 780 68 766 q 78 804 68 794 q 102 814 87 814 l 339 814 l 339 136 l 102 136 m 102 0 q 78 10 87 0 q 68 34 68 20 q 78 58 68 48 q 102 68 87 68 l 407 68 l 407 882 l 102 882 q 78 891 87 882 q 68 916 68 901 q 78 940 68 930 q 102 949 87 949 l 475 949 l 475 0 l 102 0 z "},"^":{"ha":339,"x_min":68,"x_max":271,"o":"m 68 916 q 78 940 68 930 q 102 949 87 949 q 126 940 116 949 q 136 916 136 930 l 136 712 q 126 688 136 698 q 102 678 116 678 q 78 688 87 678 q 68 712 68 698 l 68 916 m 203 916 q 213 940 203 930 q 237 949 223 949 q 261 940 252 949 q 271 916 271 930 l 271 712 q 261 688 271 698 q 237 678 252 678 q 213 688 223 678 q 203 712 203 698 l 203 916 z "},"_":{"ha":610,"x_min":68,"x_max":543,"o":"m 102 68 l 509 68 q 533 58 523 68 q 543 34 543 48 q 533 10 543 20 q 509 0 523 0 l 102 0 q 78 10 87 0 q 68 34 68 20 q 78 58 68 48 q 102 68 87 68 m 509 136 l 102 136 q 78 145 87 136 q 68 170 68 155 q 78 194 68 184 q 102 203 87 203 l 509 203 q 533 194 523 203 q 543 170 543 184 q 533 145 543 155 q 509 136 523 136 z "},"`":{"ha":610,"x_min":68,"x_max":543,"o":"m 281 688 l 78 892 q 68 915 68 901 q 78 939 68 929 q 102 949 88 949 q 125 939 116 949 l 329 736 q 339 712 339 726 q 329 688 339 699 q 305 678 319 678 q 281 688 291 678 m 485 688 l 281 892 q 271 916 271 902 q 281 940 271 930 q 306 949 292 949 q 330 940 319 949 l 533 736 q 543 712 543 726 q 533 688 543 699 q 509 678 523 678 q 485 688 495 678 z "},"a":{"ha":1017,"x_min":68,"x_max":1017,"o":"m 136 833 l 136 68 l 441 68 q 465 58 455 68 q 475 34 475 48 q 465 10 475 20 q 441 0 455 0 l 102 0 q 78 10 87 0 q 68 34 68 20 l 68 916 q 78 940 68 930 q 102 949 87 949 q 126 940 116 949 l 1007 58 q 1017 34 1017 48 q 1007 10 1017 20 q 983 0 998 0 q 959 10 969 0 l 136 833 m 237 136 q 213 145 223 136 q 203 170 203 155 l 203 576 q 213 601 203 591 q 237 610 223 610 q 261 601 252 610 l 804 58 q 814 34 814 48 q 804 10 814 20 q 780 0 794 0 q 755 10 766 0 l 271 494 l 271 203 l 441 203 q 465 194 455 203 q 475 170 475 184 q 465 145 475 155 q 441 136 455 136 l 237 136 z "},"b":{"ha":882,"x_min":68,"x_max":814,"o":"m 509 203 q 581 233 551 203 q 610 305 610 263 q 581 377 610 347 q 509 407 551 407 l 271 407 l 271 203 l 509 203 m 509 475 q 629 425 579 475 q 678 305 678 376 q 629 185 678 235 q 509 136 579 136 l 237 136 q 213 145 223 136 q 203 170 203 155 l 203 441 q 213 465 203 455 q 237 475 223 475 l 509 475 m 271 746 l 271 610 l 509 610 q 556 630 536 610 q 576 678 576 650 q 556 726 576 706 q 509 746 536 746 l 271 746 m 237 543 q 213 552 223 543 q 203 576 203 562 l 203 780 q 213 804 203 794 q 237 814 223 814 l 509 814 q 605 774 565 814 q 644 678 644 734 q 605 582 644 622 q 509 543 565 543 l 237 543 m 509 68 q 676 137 607 68 q 746 305 746 207 q 681 469 746 400 q 675 562 638 512 q 712 678 712 612 q 652 822 712 762 q 509 882 593 882 l 136 882 l 136 68 l 509 68 m 509 949 q 701 870 621 949 q 780 678 780 791 q 728 517 780 587 q 814 305 814 429 q 724 90 814 179 q 509 0 635 0 l 102 0 q 78 10 87 0 q 68 34 68 20 l 68 916 q 78 940 68 930 q 102 949 87 949 l 509 949 z "},"c":{"ha":1017,"x_min":68,"x_max":949,"o":"m 203 475 q 303 714 203 615 q 543 814 402 814 q 783 716 682 814 l 851 648 q 861 624 861 638 q 851 600 861 610 q 827 590 841 590 q 803 600 813 590 l 734 667 q 543 746 655 746 q 351 667 430 746 q 271 475 271 587 q 351 283 271 362 q 543 203 430 203 q 734 283 655 203 l 803 349 q 827 359 813 359 q 851 349 841 359 q 861 325 861 339 q 851 301 861 311 l 783 233 q 543 136 682 136 q 303 235 402 136 q 203 475 203 334 m 68 475 q 207 810 68 671 q 543 949 346 949 q 877 812 739 949 l 939 750 q 949 726 949 740 q 939 702 949 712 q 915 692 929 692 q 891 702 901 692 l 830 762 q 543 882 711 882 q 255 763 374 882 q 136 475 136 644 q 255 187 136 306 q 543 68 374 68 q 830 187 711 68 l 891 248 q 915 258 901 258 q 939 248 929 258 q 949 223 949 237 q 939 199 949 210 l 877 138 q 543 0 739 0 q 207 139 346 0 q 68 475 68 278 z "},"d":{"ha":949,"x_min":68,"x_max":882,"o":"m 407 68 q 695 187 576 68 q 814 475 814 306 q 695 763 814 644 q 407 882 576 882 l 136 882 l 136 68 l 407 68 m 407 203 q 599 283 519 203 q 678 475 678 362 q 599 667 678 587 q 407 746 519 746 l 271 746 l 271 203 l 407 203 m 407 814 q 647 714 547 814 q 746 475 746 615 q 647 235 746 334 q 407 136 547 136 l 237 136 q 213 145 223 136 q 203 170 203 155 l 203 780 q 213 804 203 794 q 237 814 223 814 l 407 814 m 407 949 q 743 810 604 949 q 882 475 882 671 q 743 139 882 278 q 407 0 604 0 l 102 0 q 78 10 87 0 q 68 34 68 20 l 68 916 q 78 940 68 930 q 102 949 87 949 l 407 949 z "},"e":{"ha":746,"x_min":68,"x_max":678,"o":"m 136 68 l 644 68 q 668 58 659 68 q 678 34 678 48 q 668 10 678 20 q 644 0 659 0 l 102 0 q 78 10 87 0 q 68 34 68 20 l 68 916 q 78 940 68 930 q 102 949 87 949 l 644 949 q 668 940 659 949 q 678 916 678 930 q 668 891 678 901 q 644 882 659 882 l 136 882 l 136 68 m 237 441 l 644 441 q 668 431 659 441 q 678 407 678 421 q 668 383 678 393 q 644 373 659 373 l 271 373 l 271 203 l 644 203 q 668 194 659 203 q 678 170 678 184 q 668 145 678 155 q 644 136 659 136 l 237 136 q 213 145 223 136 q 203 170 203 155 l 203 407 q 213 431 203 421 q 237 441 223 441 m 237 814 l 644 814 q 668 804 659 814 q 678 780 678 794 q 668 756 678 766 q 644 746 659 746 l 271 746 l 271 576 l 644 576 q 668 567 659 576 q 678 543 678 557 q 668 518 678 528 q 644 509 659 509 l 237 509 q 213 518 223 509 q 203 543 203 528 l 203 780 q 213 804 203 794 q 237 814 223 814 z "},"f":{"ha":746,"x_min":68,"x_max":678,"o":"m 237 814 l 644 814 q 668 804 659 814 q 678 780 678 794 q 668 756 678 766 q 644 746 659 746 l 271 746 l 271 576 l 644 576 q 668 567 659 576 q 678 543 678 557 q 668 518 678 528 q 644 509 659 509 l 237 509 q 213 518 223 509 q 203 543 203 528 l 203 780 q 213 804 203 794 q 237 814 223 814 m 136 34 q 126 10 136 20 q 102 0 116 0 q 78 10 87 0 q 68 34 68 20 l 68 916 q 78 940 68 930 q 102 949 87 949 l 644 949 q 668 940 659 949 q 678 916 678 930 q 668 891 678 901 q 644 882 659 882 l 136 882 l 136 34 m 237 441 l 644 441 q 668 431 659 441 q 678 407 678 421 q 668 383 678 393 q 644 373 659 373 l 271 373 l 271 34 q 261 10 271 20 q 237 0 252 0 q 213 10 223 0 q 203 34 203 20 l 203 407 q 213 431 203 421 q 237 441 223 441 z "},"g":{"ha":1017,"x_min":68,"x_max":949,"o":"m 543 509 q 518 518 528 509 q 509 543 509 528 q 518 567 509 557 q 543 576 528 576 l 916 576 q 940 567 930 576 q 949 543 949 557 l 949 292 q 877 138 949 210 q 543 0 739 0 q 207 139 346 0 q 68 475 68 278 q 207 810 68 671 q 543 949 346 949 q 850 839 739 949 l 858 831 q 868 807 868 821 q 858 783 868 793 q 834 773 848 773 q 810 783 820 773 l 803 789 q 543 882 711 882 q 255 763 374 882 q 136 475 136 644 q 255 187 136 306 q 543 68 374 68 q 830 187 711 68 q 882 289 882 238 l 882 509 l 543 509 m 746 373 l 543 373 q 518 383 528 373 q 509 407 509 393 q 518 431 509 421 q 543 441 528 441 l 780 441 q 804 431 794 441 q 814 407 814 421 l 814 296 q 746 202 814 254 q 543 136 658 136 q 303 235 402 136 q 203 475 203 334 q 303 714 203 615 q 543 814 402 814 q 755 743 682 814 l 770 730 q 780 706 780 720 q 770 682 780 692 q 746 671 760 671 q 722 682 732 671 l 707 694 q 543 746 655 746 q 351 667 430 746 q 271 475 271 587 q 351 283 271 362 q 543 203 430 203 q 734 283 655 203 q 746 368 747 296 l 746 373 z "},"h":{"ha":882,"x_min":68,"x_max":814,"o":"m 746 34 l 746 916 q 756 940 746 930 q 780 949 766 949 q 804 940 794 949 q 814 916 814 930 l 814 34 q 804 10 814 20 q 780 0 794 0 q 756 10 766 0 q 746 34 746 20 m 136 916 l 136 34 q 126 10 136 20 q 102 0 116 0 q 78 10 87 0 q 68 34 68 20 l 68 916 q 78 940 68 930 q 102 949 87 949 q 126 940 116 949 q 136 916 136 930 m 203 543 l 203 916 q 213 940 203 930 q 237 949 223 949 q 261 940 252 949 q 271 916 271 930 l 271 576 l 610 576 l 610 916 q 620 940 610 930 q 644 949 630 949 q 668 940 659 949 q 678 916 678 930 l 678 543 q 668 518 678 528 q 644 509 659 509 l 237 509 q 213 518 223 509 q 203 543 203 528 m 203 407 q 213 431 203 421 q 237 441 223 441 l 644 441 q 668 431 659 441 q 678 407 678 421 l 678 34 q 668 10 678 20 q 644 0 659 0 q 620 10 630 0 q 610 34 610 20 l 610 373 l 271 373 l 271 34 q 261 10 271 20 q 237 0 252 0 q 213 10 223 0 q 203 34 203 20 l 203 407 z "},"i":{"ha":339,"x_min":68,"x_max":271,"o":"m 203 34 l 203 916 q 213 940 203 930 q 237 949 223 949 q 261 940 252 949 q 271 916 271 930 l 271 34 q 261 10 271 20 q 237 0 252 0 q 213 10 223 0 q 203 34 203 20 m 136 916 l 136 34 q 126 10 136 20 q 102 0 116 0 q 78 10 87 0 q 68 34 68 20 l 68 916 q 78 940 68 930 q 102 949 87 949 q 126 940 116 949 q 136 916 136 930 z "},"j":{"ha":814,"x_min":68,"x_max":746,"o":"m 543 916 q 552 940 543 930 q 576 949 562 949 q 601 940 591 949 q 610 916 610 930 l 610 339 q 551 195 610 255 q 407 136 491 136 q 263 195 323 136 q 203 339 203 255 l 203 373 q 213 397 203 387 q 237 407 223 407 q 261 397 252 407 q 271 373 271 387 l 271 339 q 311 243 271 283 q 407 203 351 203 q 503 243 463 203 q 543 339 543 283 l 543 916 m 678 916 q 688 940 678 930 q 712 949 698 949 q 736 940 726 949 q 746 916 746 930 l 746 339 q 647 99 746 199 q 407 0 547 0 q 167 99 267 0 q 68 339 68 199 l 68 373 q 78 397 68 387 q 102 407 87 407 q 126 397 116 407 q 136 373 136 387 l 136 339 q 215 147 136 227 q 407 68 294 68 q 599 147 519 68 q 678 339 678 227 l 678 916 z "},"k":{"ha":882,"x_min":68,"x_max":814,"o":"m 136 34 q 126 10 136 20 q 102 0 116 0 q 78 10 87 0 q 68 34 68 20 l 68 916 q 78 940 68 930 q 102 949 87 949 q 126 940 116 949 q 136 916 136 930 l 136 34 m 756 940 q 780 949 766 949 q 804 940 794 949 q 814 916 814 930 q 804 892 814 901 l 387 475 l 804 58 q 814 34 814 48 q 804 10 814 20 q 780 0 794 0 q 756 9 766 0 l 319 447 q 315 451 317 448 q 305 475 305 460 q 315 498 305 489 l 756 940 m 271 659 l 553 940 q 576 949 562 949 q 601 940 591 949 q 610 916 610 930 q 601 892 610 901 l 262 553 q 237 543 252 543 q 214 553 223 543 q 203 576 203 562 l 203 916 q 213 940 203 930 q 237 949 223 949 q 261 940 252 949 q 271 916 271 930 l 271 659 m 271 291 l 271 34 q 261 10 271 20 q 237 0 252 0 q 213 10 223 0 q 203 34 203 20 l 203 373 q 214 397 203 387 q 237 407 223 407 q 262 397 252 407 l 601 58 q 610 34 610 48 q 601 10 610 20 q 576 0 591 0 q 553 9 562 0 l 271 291 z "},"l":{"ha":746,"x_min":68,"x_max":678,"o":"m 136 916 l 136 68 l 644 68 q 668 58 659 68 q 678 34 678 48 q 668 10 678 20 q 644 0 659 0 l 102 0 q 78 10 87 0 q 68 34 68 20 l 68 916 q 78 940 68 930 q 102 949 87 949 q 126 940 116 949 q 136 916 136 930 m 271 203 l 644 203 q 668 194 659 203 q 678 170 678 184 q 668 145 678 155 q 644 136 659 136 l 237 136 q 213 145 223 136 q 203 170 203 155 l 203 916 q 213 940 203 930 q 237 949 223 949 q 261 940 252 949 q 271 916 271 930 l 271 203 z "},"m":{"ha":1560,"x_min":68,"x_max":1560,"o":"m 678 833 l 678 373 q 668 349 678 359 q 644 339 659 339 q 621 349 630 339 l 136 833 l 136 34 q 126 10 136 20 q 102 0 116 0 q 78 10 87 0 q 68 34 68 20 l 68 916 q 78 940 68 930 q 102 949 87 949 q 610 455 116 949 l 610 916 q 620 940 610 930 q 644 949 630 949 q 669 940 659 949 l 1550 58 q 1560 34 1560 48 q 1550 10 1560 20 q 1526 0 1540 0 q 1501 10 1512 0 l 678 833 m 814 494 l 814 34 q 804 10 814 20 q 780 0 794 0 q 756 10 766 0 l 271 494 l 271 34 q 261 10 271 20 q 237 0 252 0 q 213 10 223 0 q 203 34 203 20 l 203 576 q 214 601 203 591 q 237 610 223 610 q 262 601 252 610 l 746 116 l 746 576 q 756 601 746 591 q 780 610 766 610 q 804 601 794 610 l 1346 58 q 1356 34 1356 48 q 1347 10 1356 20 q 1322 0 1337 0 q 1298 10 1308 0 l 814 494 z "},"n":{"ha":882,"x_min":68,"x_max":814,"o":"m 271 495 l 271 34 q 261 10 271 20 q 237 0 252 0 q 213 10 223 0 q 203 34 203 20 l 203 576 q 213 601 203 591 q 237 610 223 610 q 262 601 252 610 l 746 116 l 746 916 q 756 940 746 930 q 780 949 766 949 q 804 940 794 949 q 814 916 814 930 l 814 34 q 804 10 814 20 q 781 0 794 0 q 756 9 766 0 l 271 495 m 136 834 l 136 34 q 126 10 136 20 q 102 0 116 0 q 78 10 87 0 q 68 34 68 20 l 68 916 q 78 940 68 930 q 102 949 87 949 q 126 940 116 949 l 610 455 l 610 916 q 620 940 610 930 q 644 949 630 949 q 668 940 659 949 q 678 916 678 930 l 678 373 q 668 349 678 359 q 644 339 659 339 q 621 349 630 339 l 136 834 z "},"o":{"ha":1085,"x_min":68,"x_max":1017,"o":"m 543 0 q 207 139 346 0 q 68 475 68 278 q 207 810 68 671 q 543 949 346 949 q 878 810 739 949 q 1017 475 1017 671 q 878 139 1017 278 q 543 0 739 0 m 543 68 q 830 187 711 68 q 949 475 949 306 q 830 763 949 644 q 543 882 711 882 q 255 763 374 882 q 136 475 136 644 q 255 187 136 306 q 543 68 374 68 m 543 136 q 303 235 402 136 q 203 475 203 334 q 303 714 203 615 q 543 814 402 814 q 782 714 683 814 q 882 475 882 615 q 782 235 882 334 q 543 136 683 136 m 543 203 q 734 283 655 203 q 814 475 814 362 q 734 667 814 587 q 543 746 655 746 q 351 667 430 746 q 271 475 271 587 q 351 283 271 362 q 543 203 430 203 z "},"p":{"ha":882,"x_min":68,"x_max":814,"o":"m 271 746 l 271 475 l 475 475 q 571 514 531 475 q 610 610 610 554 q 571 706 610 667 q 475 746 531 746 l 271 746 m 203 780 q 213 804 203 794 q 237 814 223 814 l 475 814 q 618 754 559 814 q 678 610 678 694 q 618 467 678 526 q 475 407 559 407 l 237 407 q 213 417 223 407 q 203 441 203 427 l 203 780 m 271 271 l 271 34 q 261 10 271 20 q 237 0 252 0 q 213 10 223 0 q 203 34 203 20 l 203 305 q 213 329 203 319 q 237 339 223 339 l 475 339 q 667 418 587 339 q 746 610 746 498 q 667 802 746 723 q 475 882 587 882 l 136 882 l 136 34 q 126 10 136 20 q 102 0 116 0 q 78 10 87 0 q 68 34 68 20 l 68 916 q 78 940 68 930 q 102 949 87 949 l 475 949 q 714 850 615 949 q 814 610 814 751 q 714 371 814 470 q 475 271 615 271 l 271 271 z "},"q":{"ha":1085,"x_min":68,"x_max":1017,"o":"m 808 263 l 654 417 q 644 441 644 427 q 654 465 644 455 q 678 475 664 475 q 703 465 692 475 l 795 372 q 814 475 814 420 q 734 667 814 587 q 543 746 655 746 q 351 667 430 746 q 271 475 271 587 q 351 283 271 362 q 543 203 430 203 q 646 222 598 203 l 553 315 q 543 339 543 325 q 552 363 543 353 q 576 373 562 373 q 601 363 591 373 l 754 210 q 543 136 664 136 q 303 235 402 136 q 203 475 203 334 q 303 714 203 615 q 543 814 402 814 q 782 714 683 814 q 882 475 882 615 q 808 263 882 354 m 884 187 l 857 215 q 890 260 875 237 q 949 475 949 355 q 830 763 949 644 q 543 882 711 882 q 255 763 374 882 q 136 475 136 644 q 255 187 136 306 q 543 68 374 68 q 803 161 692 68 l 850 113 l 906 58 q 916 34 916 48 q 906 10 916 20 q 882 0 896 0 q 858 9 867 0 l 795 72 q 543 0 684 0 q 207 139 346 0 q 68 475 68 278 q 207 810 68 671 q 543 949 346 949 q 878 810 739 949 q 1017 475 1017 671 q 945 222 1017 333 l 1008 159 q 1017 136 1017 150 q 1007 112 1017 121 q 983 102 998 102 q 960 111 969 102 l 884 187 z "},"r":{"ha":882,"x_min":68,"x_max":814,"o":"m 271 746 l 271 475 l 475 475 q 571 514 531 475 q 610 610 610 554 q 571 706 610 667 q 475 746 531 746 l 271 746 m 203 780 q 213 804 203 794 q 237 814 223 814 l 475 814 q 618 754 559 814 q 678 610 678 694 q 618 467 678 526 q 475 407 559 407 l 237 407 q 213 417 223 407 q 203 441 203 427 l 203 780 m 521 274 l 736 58 q 746 34 746 48 q 736 10 746 20 q 712 0 726 0 q 688 9 698 0 l 417 281 q 407 305 407 291 q 417 329 407 319 q 441 339 427 339 l 475 339 q 667 418 587 339 q 746 610 746 498 q 667 802 746 723 q 475 882 587 882 l 136 882 l 136 34 q 126 10 136 20 q 102 0 116 0 q 78 10 87 0 q 68 34 68 20 l 68 916 q 78 940 68 930 q 102 949 87 949 l 475 949 q 714 850 615 949 q 814 610 814 751 q 715 371 814 470 q 521 274 632 288 m 271 224 l 271 34 q 261 10 271 20 q 237 0 252 0 q 213 10 223 0 q 203 34 203 20 l 203 305 q 213 329 203 319 q 237 339 223 339 q 262 330 252 339 l 533 58 q 543 34 543 48 q 533 10 543 20 q 509 0 523 0 q 485 9 494 0 l 271 224 z "},"s":{"ha":678,"x_min":68,"x_max":616,"o":"m 102 68 l 337 68 q 481 127 421 68 q 540 271 540 186 q 481 415 540 355 l 313 583 q 273 678 273 622 q 313 774 273 734 q 409 814 353 814 q 505 774 465 814 l 598 682 q 608 657 608 671 q 598 633 608 644 q 574 623 588 623 q 550 633 560 623 l 457 726 q 409 746 437 746 q 361 726 381 746 q 342 678 342 707 q 361 630 342 650 l 528 463 q 608 271 608 383 q 528 79 608 159 q 337 0 449 0 l 102 0 q 78 10 87 0 q 68 34 68 20 q 78 58 68 48 q 102 68 87 68 m 337 136 l 102 136 q 78 145 87 136 q 68 170 68 155 q 78 194 68 184 q 102 203 87 203 l 337 203 q 385 223 365 203 q 404 271 404 243 q 385 319 404 300 l 218 486 q 138 679 138 566 q 218 870 138 791 q 409 949 297 949 q 601 870 522 949 l 606 865 q 616 841 616 855 q 606 818 616 827 q 582 808 595 808 q 557 818 568 808 l 553 822 q 409 882 494 882 q 265 822 325 882 q 206 679 206 763 q 265 534 206 594 l 433 367 q 473 271 473 328 q 433 175 473 215 q 337 136 393 136 z "},"t":{"ha":882,"x_min":68,"x_max":814,"o":"m 509 814 l 780 814 q 804 804 794 814 q 814 780 814 794 q 804 756 814 766 q 780 746 794 746 l 543 746 l 543 34 q 533 10 543 20 q 509 0 523 0 q 485 10 494 0 q 475 34 475 20 l 475 780 q 485 804 475 794 q 509 814 494 814 m 373 814 q 397 804 387 814 q 407 780 407 794 l 407 34 q 397 10 407 20 q 373 0 387 0 q 349 10 359 0 q 339 34 339 20 l 339 746 l 102 746 q 78 756 87 746 q 68 780 68 766 q 78 804 68 794 q 102 814 87 814 l 373 814 m 780 882 l 102 882 q 78 891 87 882 q 68 916 68 901 q 78 940 68 930 q 102 949 87 949 l 780 949 q 804 940 794 949 q 814 916 814 930 q 804 891 814 901 q 780 882 794 882 z "},"u":{"ha":814,"x_min":68,"x_max":746,"o":"m 543 916 q 552 940 543 930 q 576 949 562 949 q 601 940 591 949 q 610 916 610 930 l 610 339 q 551 195 610 255 q 407 136 491 136 q 263 195 323 136 q 203 339 203 255 l 203 916 q 213 940 203 930 q 237 949 223 949 q 261 940 252 949 q 271 916 271 930 l 271 339 q 311 243 271 283 q 407 203 351 203 q 503 243 463 203 q 543 339 543 283 l 543 916 m 678 916 q 688 940 678 930 q 712 949 698 949 q 736 940 726 949 q 746 916 746 930 l 746 339 q 647 99 746 199 q 407 0 547 0 q 167 99 267 0 q 68 339 68 199 l 68 916 q 78 940 68 930 q 102 949 87 949 q 126 940 116 949 q 136 916 136 930 l 136 339 q 215 147 136 227 q 407 68 294 68 q 599 147 519 68 q 678 339 678 227 l 678 916 z "},"v":{"ha":1017,"x_min":68,"x_max":1017,"o":"m 804 892 l 261 349 q 237 339 252 339 q 213 349 223 339 q 203 373 203 359 l 203 916 q 213 940 203 930 q 237 949 223 949 q 261 940 252 949 q 271 916 271 930 l 271 455 l 755 940 q 780 949 766 949 q 804 940 794 949 q 814 916 814 930 q 804 892 814 901 m 136 116 l 959 940 q 983 949 969 949 q 1007 940 998 949 q 1017 916 1017 930 q 1007 892 1017 901 l 125 9 q 102 0 116 0 q 78 10 87 0 q 68 34 68 20 l 68 916 q 78 940 68 930 q 102 949 87 949 q 126 940 116 949 q 136 916 136 930 l 136 116 z "},"w":{"ha":1560,"x_min":68,"x_max":1560,"o":"m 678 116 l 1501 939 q 1526 949 1512 949 q 1550 940 1540 949 q 1560 916 1560 930 q 1550 891 1560 901 l 669 10 q 644 0 659 0 q 620 10 630 0 q 610 34 610 20 l 610 494 q 102 0 116 0 q 78 10 87 0 q 68 34 68 20 l 68 916 q 78 940 68 930 q 102 949 87 949 q 126 940 116 949 q 136 916 136 930 l 136 116 l 621 601 q 644 610 630 610 q 668 601 659 610 q 678 576 678 591 l 678 116 m 814 455 l 1298 939 q 1322 949 1308 949 q 1347 940 1337 949 q 1356 916 1356 930 q 1346 891 1356 901 l 804 349 q 780 339 794 339 q 756 349 766 339 q 746 373 746 359 l 746 833 l 262 349 q 237 339 252 339 q 214 349 223 339 q 203 373 203 359 l 203 916 q 213 940 203 930 q 237 949 223 949 q 261 940 252 949 q 271 916 271 930 l 271 455 l 756 940 q 780 949 766 949 q 804 940 794 949 q 814 916 814 930 l 814 455 z "},"x":{"ha":1085,"x_min":68,"x_max":1017,"o":"m 610 475 q 621 499 610 489 l 960 838 q 983 848 969 848 q 1007 838 998 848 q 1017 814 1017 828 q 1008 790 1017 800 l 692 475 l 1008 159 q 1017 136 1017 150 q 1007 112 1017 121 q 983 102 998 102 q 960 111 969 102 l 621 451 q 610 475 610 460 m 543 407 q 567 397 557 407 l 906 58 q 916 34 916 48 q 906 10 916 20 q 882 0 896 0 q 858 9 867 0 l 543 325 l 228 10 q 203 0 218 0 q 179 10 189 0 q 170 34 170 20 q 180 58 170 48 l 519 397 q 543 407 528 407 m 180 892 q 170 916 170 901 q 179 940 170 930 q 203 949 189 949 q 228 940 218 949 l 543 625 l 858 940 q 882 949 867 949 q 906 940 896 949 q 916 916 916 930 q 906 892 916 901 l 567 553 q 543 543 557 543 q 519 552 528 543 l 180 892 m 475 475 q 465 451 475 460 l 125 111 q 102 102 116 102 q 78 112 87 102 q 68 136 68 121 q 77 159 68 150 l 393 475 l 77 790 q 68 814 68 800 q 78 838 68 828 q 102 848 87 848 q 125 838 116 848 l 465 499 q 475 475 475 489 z "},"y":{"ha":1017,"x_min":0,"x_max":1017,"o":"m 610 494 l 610 34 q 601 10 610 20 q 576 0 591 0 q 552 10 562 0 q 543 34 543 20 l 543 509 q 552 532 543 523 l 960 940 q 983 949 969 949 q 1007 940 998 949 q 1017 916 1017 930 q 1008 892 1017 901 l 610 494 m 214 892 q 203 916 203 901 q 213 940 203 930 q 237 949 223 949 q 262 940 252 949 l 509 692 l 756 940 q 780 949 766 949 q 804 940 794 949 q 814 916 814 930 q 804 892 814 901 l 533 621 q 509 610 523 610 q 485 620 494 610 l 214 892 m 407 494 l 9 892 q 0 916 0 901 q 10 940 0 930 q 34 949 20 949 q 58 940 48 949 l 465 532 q 475 509 475 523 l 475 34 q 465 10 475 20 q 441 0 455 0 q 417 10 427 0 q 407 34 407 20 l 407 494 z "},"z":{"ha":746,"x_min":65,"x_max":681,"o":"m 361 203 l 644 203 q 668 194 659 203 q 678 170 678 184 q 668 145 678 155 q 644 136 659 136 l 311 136 q 295 138 303 135 q 277 157 282 144 q 278 183 272 170 l 592 882 l 102 882 q 78 891 87 882 q 68 916 68 901 q 78 940 68 930 q 102 949 87 949 l 637 949 q 658 947 648 951 q 676 928 671 941 q 675 902 681 916 l 361 203 m 154 68 l 644 68 q 668 58 659 68 q 678 34 678 48 q 668 10 678 20 q 644 0 659 0 l 109 0 q 72 17 79 0 q 71 47 65 34 l 380 746 l 102 746 q 78 756 87 746 q 68 780 68 766 q 78 804 68 794 q 102 814 87 814 l 431 814 q 446 811 438 814 q 464 792 459 805 q 463 766 469 779 l 154 68 z "},"{":{"ha":610,"x_min":68,"x_max":543,"o":"m 407 814 l 509 814 q 533 804 523 814 q 543 780 543 794 q 533 756 543 766 q 509 746 523 746 l 407 746 q 311 706 351 746 q 271 610 271 667 l 271 339 q 311 243 271 283 q 407 203 351 203 l 509 203 q 533 194 523 203 q 543 170 543 184 q 533 145 543 155 q 509 136 523 136 l 407 136 q 263 195 323 136 q 203 339 203 255 l 203 610 q 263 754 203 694 q 407 814 323 814 m 407 949 l 509 949 q 533 940 523 949 q 543 916 543 930 q 533 891 543 901 q 509 882 523 882 l 407 882 q 215 802 294 882 q 136 610 136 723 l 136 339 q 215 147 136 227 q 407 68 294 68 l 509 68 q 533 58 523 68 q 543 34 543 48 q 533 10 543 20 q 509 0 523 0 l 407 0 q 167 99 267 0 q 68 339 68 199 l 68 610 q 167 850 68 751 q 407 949 267 949 z "},"|":{"ha":339,"x_min":68,"x_max":271,"o":"m 203 34 l 203 916 q 213 940 203 930 q 237 949 223 949 q 261 940 252 949 q 271 916 271 930 l 271 34 q 261 10 271 20 q 237 0 252 0 q 213 10 223 0 q 203 34 203 20 m 136 916 l 136 34 q 126 10 136 20 q 102 0 116 0 q 78 10 87 0 q 68 34 68 20 l 68 916 q 78 940 68 930 q 102 949 87 949 q 126 940 116 949 q 136 916 136 930 z "},"}":{"ha":610,"x_min":68,"x_max":543,"o":"m 203 136 l 102 136 q 78 145 87 136 q 68 170 68 155 q 78 194 68 184 q 102 203 87 203 l 203 203 q 299 243 260 203 q 339 339 339 283 l 339 610 q 299 706 339 667 q 203 746 260 746 l 102 746 q 78 756 87 746 q 68 780 68 766 q 78 804 68 794 q 102 814 87 814 l 203 814 q 347 754 288 814 q 407 610 407 694 l 407 339 q 347 195 407 255 q 203 136 288 136 m 203 0 l 102 0 q 78 10 87 0 q 68 34 68 20 q 78 58 68 48 q 102 68 87 68 l 203 68 q 395 147 316 68 q 475 339 475 227 l 475 610 q 395 802 475 723 q 203 882 316 882 l 102 882 q 78 891 87 882 q 68 916 68 901 q 78 940 68 930 q 102 949 87 949 l 203 949 q 443 850 344 949 q 543 610 543 751 l 543 339 q 443 99 543 199 q 203 0 344 0 z "},"~":{"ha":543,"x_min":68,"x_max":475,"o":"m 137 468 q 162 481 137 468 q 271 441 186 495 q 398 414 356 387 q 448 441 441 441 q 465 431 455 441 q 475 407 475 421 q 465 383 475 393 q 406 346 455 373 q 271 373 356 319 q 144 400 186 427 q 95 373 102 373 q 78 383 87 373 q 68 407 68 393 q 78 431 68 421 q 137 468 87 441 m 406 481 q 381 468 406 481 q 271 509 356 454 q 144 536 186 563 q 95 509 102 509 q 78 518 87 509 q 68 543 68 528 q 78 567 68 557 q 137 604 87 576 q 271 576 186 631 q 398 549 356 522 q 448 576 441 576 q 465 567 455 576 q 475 543 475 557 q 465 518 475 528 q 406 481 455 509 z "},"¨":{"ha":746,"x_min":68,"x_max":678,"o":"m 203 678 q 107 718 147 678 q 68 814 68 758 q 107 910 68 870 q 203 949 147 949 q 299 910 260 949 q 339 814 339 870 q 299 718 339 758 q 203 678 260 678 m 203 746 q 251 766 231 746 q 271 814 271 786 q 251 862 271 842 q 203 882 231 882 q 156 862 176 882 q 136 814 136 842 q 156 766 136 786 q 203 746 176 746 m 543 678 q 447 718 486 678 q 407 814 407 758 q 447 910 407 870 q 543 949 486 949 q 638 910 599 949 q 678 814 678 870 q 638 718 678 758 q 543 678 599 678 m 543 746 q 590 766 570 746 q 610 814 610 786 q 590 862 610 842 q 543 882 570 882 q 495 862 515 882 q 475 814 475 842 q 495 766 475 786 q 543 746 515 746 z "},"´":{"ha":610,"x_min":68,"x_max":543,"o":"m 281 940 q 305 949 291 949 q 329 940 319 949 q 339 916 339 930 q 329 892 339 902 l 125 688 q 102 678 116 678 q 78 688 88 678 q 68 712 68 699 q 78 736 68 726 l 281 940 m 485 939 q 509 949 495 949 q 533 939 523 949 q 543 915 543 929 q 533 892 543 901 l 330 688 q 306 678 319 678 q 281 688 292 678 q 271 712 271 699 q 281 736 271 726 l 485 939 z "},"·":{"ha":407,"x_min":68,"x_max":339,"o":"m 203 339 q 107 379 147 339 q 68 475 68 418 q 107 571 68 531 q 203 610 147 610 q 299 571 260 610 q 339 475 339 531 q 299 379 339 418 q 203 339 260 339 m 203 407 q 251 427 231 407 q 271 475 271 447 q 251 523 271 503 q 203 543 231 543 q 156 523 176 543 q 136 475 136 503 q 156 427 136 447 q 203 407 176 407 z "},"∙":{"ha":407,"x_min":68,"x_max":339,"o":"m 203 339 q 107 379 147 339 q 68 475 68 418 q 107 571 68 531 q 203 610 147 610 q 299 571 260 610 q 339 475 339 531 q 299 379 339 418 q 203 339 260 339 m 203 407 q 251 427 231 407 q 271 475 271 447 q 251 523 271 503 q 203 543 231 543 q 156 523 176 543 q 136 475 136 503 q 156 427 136 447 q 203 407 176 407 z "},"ı":{"ha":339,"x_min":68,"x_max":271,"o":"m 203 34 l 203 916 q 213 940 203 930 q 237 949 223 949 q 261 940 252 949 q 271 916 271 930 l 271 34 q 261 10 271 20 q 237 0 252 0 q 213 10 223 0 q 203 34 203 20 m 136 916 l 136 34 q 126 10 136 20 q 102 0 116 0 q 78 10 87 0 q 68 34 68 20 l 68 916 q 78 940 68 930 q 102 949 87 949 q 126 940 116 949 q 136 916 136 930 z "},"ˆ":{"ha":746,"x_min":68,"x_max":678,"o":"m 373 746 q 397 736 387 746 l 465 668 q 475 644 475 659 q 465 620 475 630 q 441 610 455 610 q 417 620 427 610 l 373 664 l 330 621 q 305 610 319 610 q 281 620 291 610 q 271 644 271 630 q 281 669 271 659 l 349 736 q 373 746 359 746 m 408 929 l 669 668 q 678 644 678 659 q 668 620 678 630 q 644 610 659 610 q 621 620 630 610 l 373 868 l 125 620 q 102 610 116 610 q 78 620 87 610 q 68 644 68 630 q 77 668 68 659 l 349 940 q 373 949 359 949 q 397 940 387 949 l 408 929 z "},"ˇ":{"ha":746,"x_min":68,"x_max":678,"o":"m 373 814 q 349 823 359 814 l 281 891 q 271 916 271 901 q 281 940 271 930 q 305 949 291 949 q 330 939 319 949 l 373 896 l 417 940 q 441 949 427 949 q 465 940 455 949 q 475 916 475 930 q 465 892 475 901 l 397 823 q 373 814 387 814 m 408 631 l 397 621 q 373 610 387 610 q 349 621 359 610 l 77 892 q 68 916 68 901 q 78 940 68 930 q 102 949 87 949 q 125 940 116 949 l 373 692 l 621 940 q 644 949 630 949 q 668 940 659 949 q 678 916 678 930 q 669 892 678 901 l 408 631 z "},"ˉ":{"ha":694,"x_min":0,"x_max":0,"o":""},"˘":{"ha":694,"x_min":0,"x_max":0,"o":""},"˙":{"ha":694,"x_min":0,"x_max":0,"o":""},"˚":{"ha":610,"x_min":68,"x_max":543,"o":"m 305 475 q 137 544 207 475 q 68 712 68 614 q 137 880 68 810 q 305 949 207 949 q 473 880 404 949 q 543 712 543 810 q 473 544 543 614 q 305 475 404 475 m 305 543 q 425 592 376 543 q 475 712 475 642 q 425 832 475 783 q 305 882 376 882 q 185 832 235 882 q 136 712 136 783 q 185 592 136 642 q 305 543 235 543 m 305 610 q 233 640 263 610 q 203 712 203 670 q 233 784 203 754 q 305 814 263 814 q 377 784 347 814 q 407 712 407 754 q 377 640 407 670 q 305 610 347 610 m 305 678 q 329 688 319 678 q 339 712 339 698 q 329 736 339 726 q 305 746 319 746 q 281 736 291 746 q 271 712 271 726 q 281 688 271 698 q 305 678 291 678 z "},"˛":{"ha":694,"x_min":0,"x_max":0,"o":""},"˜":{"ha":543,"x_min":68,"x_max":475,"o":"m 137 805 q 162 819 137 805 q 271 778 186 832 q 398 751 356 724 q 448 778 441 778 q 465 768 455 778 q 475 744 475 758 q 465 720 475 730 q 406 683 455 710 q 271 710 356 656 q 144 737 186 764 q 95 710 102 710 q 78 720 87 710 q 68 744 68 730 q 78 768 68 758 q 137 805 87 778 m 406 819 q 381 805 406 819 q 271 846 356 791 q 144 873 186 900 q 95 846 102 846 q 78 856 87 846 q 68 880 68 865 q 78 904 68 894 q 137 941 87 913 q 271 913 186 968 q 398 886 356 859 q 448 913 441 913 q 465 904 455 913 q 475 880 475 894 q 465 856 475 865 q 406 819 455 846 z "},"˝":{"ha":694,"x_min":-170,"x_max":781,"o":"m 44 940 q 67 949 54 949 q 92 940 81 949 q 102 916 102 930 q 92 892 102 902 l -112 688 q -135 678 -121 678 q -159 688 -149 678 q -170 712 -170 699 q -159 736 -170 726 l 44 940 m 248 939 q 272 949 258 949 q 296 939 286 949 q 305 915 305 929 q 296 892 305 901 l 92 688 q 68 678 82 678 q 44 688 54 678 q 34 712 34 699 q 44 736 34 726 l 248 939 m 519 940 q 542 949 528 949 q 566 940 556 949 q 576 916 576 930 q 566 892 576 902 l 363 688 q 339 678 353 678 q 315 688 326 678 q 305 712 305 699 q 315 736 305 726 l 519 940 m 722 939 q 746 949 732 949 q 770 939 760 949 q 780 915 780 929 q 770 892 780 901 l 567 688 q 543 678 557 678 q 519 688 529 678 q 509 712 509 699 q 519 736 509 726 l 722 939 z "},"‘":{"ha":407,"x_min":59,"x_max":349,"o":"m 268 891 q 283 912 271 905 q 309 916 295 920 q 330 901 323 913 q 334 876 338 889 l 298 726 q 320 699 310 714 q 336 595 349 650 q 274 512 322 541 q 172 496 227 483 q 88 557 117 509 q 72 660 59 605 l 136 924 q 152 944 140 937 q 178 948 163 951 q 198 933 191 945 q 202 907 205 921 l 138 644 q 146 592 132 616 q 188 562 161 568 q 239 570 215 555 q 270 612 263 585 q 261 663 276 639 q 220 694 247 687 l 268 891 z "},"’":{"ha":407,"x_min":59,"x_max":349,"o":"m 140 550 q 124 529 136 536 q 98 525 113 522 q 78 540 85 528 q 74 566 71 552 l 110 715 q 88 743 98 727 q 72 846 59 791 q 133 929 85 900 q 236 945 181 958 q 320 884 291 932 q 336 781 349 836 l 271 517 q 256 497 268 504 q 231 493 244 490 q 209 508 216 496 q 205 534 202 520 l 270 798 q 261 849 276 825 q 220 880 247 873 q 169 871 193 886 q 138 829 144 857 q 146 778 132 802 q 188 747 161 754 l 140 550 z "},"‚":{"ha":407,"x_min":59,"x_max":349,"o":"m 140 -171 q 124 -192 136 -184 q 98 -195 113 -199 q 78 -180 85 -192 q 74 -155 71 -168 l 110 -5 q 88 22 98 7 q 72 125 59 71 q 133 209 85 180 q 236 224 181 238 q 320 163 291 212 q 336 61 349 115 l 271 -203 q 256 -224 268 -216 q 231 -228 244 -231 q 209 -213 216 -224 q 205 -186 202 -201 l 270 77 q 261 128 276 104 q 220 159 247 152 q 169 151 193 165 q 138 109 144 136 q 146 58 132 82 q 188 27 161 33 l 140 -171 z "},"“":{"ha":746,"x_min":59,"x_max":688,"o":"m 607 891 q 622 912 610 905 q 648 916 634 920 q 669 901 662 913 q 673 876 677 889 l 637 726 q 659 699 649 714 q 675 595 688 650 q 613 512 661 541 q 511 496 566 483 q 427 557 456 509 q 411 660 398 605 l 475 924 q 491 944 479 937 q 517 948 503 951 q 537 933 530 945 q 541 907 545 921 l 477 644 q 485 592 471 616 q 527 562 500 568 q 578 570 554 555 q 609 612 602 585 q 601 663 615 639 q 559 694 586 687 l 607 891 m 268 891 q 283 912 271 905 q 309 916 295 920 q 330 901 323 913 q 334 876 338 889 l 298 726 q 320 699 310 714 q 336 595 349 650 q 274 512 322 541 q 172 496 227 483 q 88 557 117 509 q 72 660 59 605 l 136 924 q 152 944 140 937 q 178 948 163 951 q 198 933 191 945 q 202 907 205 921 l 138 644 q 146 592 132 616 q 188 562 161 568 q 239 570 215 555 q 270 612 263 585 q 261 663 276 639 q 220 694 247 687 l 268 891 z "},"”":{"ha":746,"x_min":59,"x_max":688,"o":"m 140 550 q 124 529 136 536 q 98 525 113 522 q 78 540 85 528 q 74 566 71 552 l 110 715 q 88 743 98 727 q 72 846 59 791 q 133 929 85 900 q 236 945 181 958 q 320 884 291 932 q 336 781 349 836 l 271 517 q 256 497 268 504 q 231 493 244 490 q 209 508 216 496 q 205 534 202 520 l 270 798 q 261 849 276 825 q 220 880 247 873 q 169 871 193 886 q 138 829 144 857 q 146 778 132 802 q 188 747 161 754 l 140 550 m 479 550 q 464 529 475 536 q 437 525 452 522 q 417 540 424 528 q 413 566 410 552 l 449 715 q 427 743 437 727 q 411 846 398 791 q 472 929 425 900 q 575 945 520 958 q 659 884 630 932 q 675 781 688 836 l 610 517 q 595 497 607 504 q 570 493 583 490 q 548 508 555 496 q 545 534 541 520 l 609 798 q 601 849 615 825 q 559 880 586 873 q 508 871 532 886 q 477 829 484 857 q 485 778 471 802 q 527 747 500 754 l 479 550 z "},"„":{"ha":746,"x_min":59,"x_max":688,"o":"m 140 -171 q 124 -192 136 -185 q 98 -196 113 -199 q 78 -181 85 -193 q 74 -155 71 -169 l 110 -6 q 88 22 98 6 q 72 125 59 70 q 133 208 85 179 q 236 224 181 237 q 320 163 291 211 q 336 60 349 115 l 271 -203 q 256 -224 268 -217 q 231 -228 244 -231 q 209 -213 216 -224 q 205 -187 202 -201 l 270 77 q 261 128 276 104 q 220 159 247 152 q 169 150 193 165 q 138 109 144 136 q 146 57 132 81 q 188 26 161 33 l 140 -171 m 479 -171 q 464 -192 475 -185 q 437 -196 452 -199 q 417 -181 424 -193 q 413 -155 410 -169 l 449 -6 q 427 22 437 6 q 411 125 398 70 q 472 208 425 179 q 575 224 520 237 q 659 163 630 211 q 675 60 688 115 l 610 -203 q 595 -224 607 -217 q 570 -228 583 -231 q 548 -213 555 -224 q 545 -187 541 -201 l 609 77 q 601 128 615 104 q 559 159 586 152 q 508 150 532 165 q 477 109 484 136 q 485 57 471 81 q 527 26 500 33 l 479 -171 z "},"†":{"ha":610,"x_min":68,"x_max":543,"o":"m 509 576 q 533 567 523 576 q 543 543 543 557 q 533 518 543 528 q 509 509 523 509 l 407 509 l 407 136 q 397 112 407 121 q 373 102 387 102 q 349 112 359 102 q 339 136 339 121 l 339 576 l 509 576 m 102 576 l 271 576 l 271 136 q 261 112 271 121 q 237 102 252 102 q 213 112 223 102 q 203 136 203 121 l 203 509 l 102 509 q 78 518 87 509 q 68 543 68 528 q 78 567 68 557 q 102 576 87 576 m 271 814 l 271 644 l 102 644 q 78 654 87 644 q 68 678 68 664 q 78 702 68 692 q 102 712 87 712 l 203 712 l 203 814 q 213 838 203 828 q 237 848 223 848 q 261 838 252 848 q 271 814 271 828 m 509 644 l 339 644 l 339 814 q 349 838 339 828 q 373 848 359 848 q 397 838 387 848 q 407 814 407 828 l 407 712 l 509 712 q 533 702 523 712 q 543 678 543 692 q 533 654 543 664 q 509 644 523 644 z "},"•":{"ha":407,"x_min":68,"x_max":339,"o":"m 203 339 q 107 379 147 339 q 68 475 68 418 q 107 571 68 531 q 203 610 147 610 q 299 571 260 610 q 339 475 339 531 q 299 379 339 418 q 203 339 260 339 z "},"…":{"ha":1085,"x_min":68,"x_max":1017,"o":"m 203 0 q 107 40 147 0 q 68 136 68 79 q 107 232 68 192 q 203 271 147 271 q 299 232 260 271 q 339 136 339 192 q 299 40 339 79 q 203 0 260 0 m 203 68 q 251 88 231 68 q 271 136 271 108 q 251 183 271 163 q 203 203 231 203 q 156 183 176 203 q 136 136 136 163 q 156 88 136 108 q 203 68 176 68 m 543 0 q 447 40 486 0 q 407 136 407 79 q 447 232 407 192 q 543 271 486 271 q 638 232 599 271 q 678 136 678 192 q 638 40 678 79 q 543 0 599 0 m 543 68 q 590 88 570 68 q 610 136 610 108 q 590 183 610 163 q 543 203 570 203 q 495 183 515 203 q 475 136 475 163 q 495 88 475 108 q 543 68 515 68 m 882 0 q 786 40 825 0 q 746 136 746 79 q 786 232 746 192 q 882 271 825 271 q 978 232 938 271 q 1017 136 1017 192 q 978 40 1017 79 q 882 0 938 0 m 882 68 q 929 88 909 68 q 949 136 949 108 q 929 183 949 163 q 882 203 909 203 q 834 183 854 203 q 814 136 814 163 q 834 88 814 108 q 882 68 854 68 z "},"‹":{"ha":543,"x_min":68,"x_max":475,"o":"m 441 814 q 465 804 455 814 q 475 780 475 794 q 465 756 475 766 q 441 746 455 746 l 271 746 l 271 203 l 441 203 q 465 194 455 203 q 475 170 475 184 q 465 145 475 155 q 441 136 455 136 l 203 136 l 203 814 l 441 814 m 441 949 q 465 940 455 949 q 475 916 475 930 q 465 891 475 901 q 441 882 455 882 l 136 882 l 136 68 l 441 68 q 465 58 455 68 q 475 34 475 48 q 465 10 475 20 q 441 0 455 0 l 68 0 l 68 949 l 441 949 z "},"›":{"ha":543,"x_min":68,"x_max":475,"o":"m 102 136 q 78 145 87 136 q 68 170 68 155 q 78 194 68 184 q 102 203 87 203 l 271 203 l 271 746 l 102 746 q 78 756 87 746 q 68 780 68 766 q 78 804 68 794 q 102 814 87 814 l 339 814 l 339 136 l 102 136 m 102 0 q 78 10 87 0 q 68 34 68 20 q 78 58 68 48 q 102 68 87 68 l 407 68 l 407 882 l 102 882 q 78 891 87 882 q 68 916 68 901 q 78 940 68 930 q 102 949 87 949 l 475 949 l 475 0 l 102 0 z "},"⁄":{"ha":1085,"x_min":68,"x_max":1017,"o":"m 858 940 q 882 949 867 949 q 906 940 896 949 q 916 916 916 930 q 906 892 916 901 l 125 111 q 102 102 116 102 q 78 112 87 102 q 68 136 68 121 q 77 159 68 150 l 858 940 m 960 838 q 983 848 969 848 q 1007 838 998 848 q 1017 814 1017 828 q 1008 790 1017 800 l 228 10 q 203 0 218 0 q 179 10 189 0 q 170 34 170 20 q 180 58 170 48 l 960 838 z "},"∕":{"ha":1085,"x_min":68,"x_max":1017,"o":"m 858 940 q 882 949 867 949 q 906 940 896 949 q 916 916 916 930 q 906 892 916 901 l 125 111 q 102 102 116 102 q 78 112 87 102 q 68 136 68 121 q 77 159 68 150 l 858 940 m 960 838 q 983 848 969 848 q 1007 838 998 848 q 1017 814 1017 828 q 1008 790 1017 800 l 228 10 q 203 0 218 0 q 179 10 189 0 q 170 34 170 20 q 180 58 170 48 l 960 838 z "},"₤":{"ha":949,"x_min":68,"x_max":882,"o":"m 102 68 l 848 68 q 872 58 862 68 q 882 34 882 48 q 872 10 882 20 q 848 0 862 0 l 102 0 q 78 10 87 0 q 68 34 68 20 q 78 58 68 48 q 102 68 87 68 m 339 610 q 399 754 339 694 q 543 814 458 814 q 686 754 627 814 q 746 610 746 694 l 746 576 q 736 552 746 562 q 712 543 726 543 q 688 552 698 543 q 678 576 678 562 l 678 610 q 638 706 678 667 q 543 746 599 746 q 447 706 486 746 q 407 610 407 667 l 407 509 l 644 509 q 668 499 659 509 q 678 475 678 489 q 668 451 678 460 q 644 441 659 441 l 339 441 l 339 610 m 203 610 q 303 850 203 751 q 543 949 402 949 q 782 850 683 949 q 882 610 882 751 l 882 576 q 872 552 882 562 q 848 543 862 543 q 824 552 833 543 q 814 576 814 562 l 814 610 q 734 802 814 723 q 543 882 655 882 q 351 802 430 882 q 271 610 271 723 l 271 441 l 102 441 q 78 451 87 441 q 68 475 68 460 q 78 499 68 489 q 102 509 87 509 l 203 509 l 203 610 m 339 373 l 644 373 q 668 363 659 373 q 678 339 678 353 q 668 315 678 325 q 644 305 659 305 l 407 305 l 407 203 l 848 203 q 872 194 862 203 q 882 170 882 184 q 872 145 882 155 q 848 136 862 136 l 339 136 l 339 373 m 203 305 l 102 305 q 78 315 87 305 q 68 339 68 325 q 78 363 68 353 q 102 373 87 373 l 271 373 l 271 136 l 102 136 q 78 145 87 136 q 68 170 68 155 q 78 194 68 184 q 102 203 87 203 l 203 203 l 203 305 z "},"€":{"ha":1153,"x_min":68,"x_max":1085,"o":"m 102 509 l 780 509 q 804 499 794 509 q 814 475 814 489 q 804 451 814 460 q 780 441 794 441 l 102 441 q 78 451 87 441 q 68 475 68 460 q 78 499 68 489 q 102 509 87 509 m 233 644 q 342 810 268 736 q 678 949 481 949 q 1013 812 874 949 l 1075 750 q 1085 726 1085 740 q 1075 702 1085 712 q 1051 692 1065 692 q 1027 702 1037 692 l 966 762 q 678 882 847 882 q 391 763 509 882 q 307 644 336 709 l 384 644 q 439 715 406 682 q 678 814 538 814 q 918 716 818 814 l 987 648 q 997 624 997 638 q 987 600 997 610 q 963 590 977 590 q 939 600 949 590 l 870 667 q 678 746 791 746 q 486 667 566 746 q 466 644 475 656 l 780 644 q 804 634 794 644 q 814 610 814 625 q 804 586 814 596 q 780 576 794 576 l 102 576 q 78 586 87 576 q 68 610 68 596 q 78 634 68 625 q 102 644 87 644 l 233 644 m 466 305 q 486 283 475 294 q 678 203 566 203 q 870 283 791 203 l 939 349 q 963 359 949 359 q 987 349 977 359 q 997 325 997 339 q 987 301 997 311 l 918 233 q 678 136 818 136 q 439 235 538 136 q 384 305 406 268 l 307 305 q 391 187 336 241 q 678 68 509 68 q 966 187 847 68 l 1027 248 q 1051 258 1037 258 q 1075 248 1065 258 q 1085 223 1085 237 q 1075 199 1085 210 l 1013 138 q 678 0 874 0 q 342 139 481 0 q 233 305 268 214 l 102 305 q 78 315 87 305 q 68 339 68 325 q 78 363 68 353 q 102 373 87 373 l 780 373 q 804 363 794 373 q 814 339 814 353 q 804 315 814 325 q 780 305 794 305 l 466 305 z "},"№":{"ha":1424,"x_min":68,"x_max":1356,"o":"m 271 495 l 271 34 q 261 10 271 20 q 237 0 252 0 q 213 10 223 0 q 203 34 203 20 l 203 576 q 213 601 203 591 q 237 610 223 610 q 262 601 252 610 l 746 116 l 746 916 q 756 940 746 930 q 780 949 766 949 q 804 940 794 949 q 814 916 814 930 l 814 34 q 804 10 814 20 q 781 0 794 0 q 756 9 766 0 l 271 495 m 136 834 l 136 34 q 126 10 136 20 q 102 0 116 0 q 78 10 87 0 q 68 34 68 20 l 68 916 q 78 940 68 930 q 102 949 87 949 q 126 940 116 949 l 610 455 l 610 916 q 620 940 610 930 q 644 949 630 949 q 668 940 659 949 q 678 916 678 930 l 678 373 q 668 349 678 359 q 644 339 659 339 q 621 349 630 339 l 136 834 m 1119 678 q 1143 688 1133 678 q 1153 712 1153 698 q 1143 736 1153 726 q 1119 746 1133 746 q 1095 736 1105 746 q 1085 712 1085 726 q 1095 688 1085 698 q 1119 678 1105 678 m 1119 610 q 1047 640 1077 610 q 1017 712 1017 670 q 1047 784 1017 754 q 1119 814 1077 814 q 1191 784 1161 814 q 1221 712 1221 754 q 1191 640 1221 670 q 1119 610 1161 610 m 1119 543 q 1239 592 1190 543 q 1289 712 1289 642 q 1239 832 1289 783 q 1119 882 1190 882 q 999 832 1048 882 q 949 712 949 783 q 999 592 949 642 q 1119 543 1048 543 m 1119 475 q 951 544 1021 475 q 882 712 882 614 q 951 880 882 810 q 1119 949 1021 949 q 1287 880 1217 949 q 1356 712 1356 810 q 1287 544 1356 614 q 1119 475 1217 475 m 916 271 l 1322 271 q 1347 261 1337 271 q 1356 237 1356 252 q 1347 213 1356 223 q 1322 203 1337 203 l 916 203 q 891 213 901 203 q 882 237 882 223 q 891 261 882 252 q 916 271 901 271 m 1322 339 l 916 339 q 891 349 901 339 q 882 373 882 359 q 891 397 882 387 q 916 407 901 407 l 1322 407 q 1347 397 1337 407 q 1356 373 1356 387 q 1347 349 1356 359 q 1322 339 1337 339 z "},"™":{"ha":1017,"x_min":68,"x_max":946,"o":"m 205 918 q 216 914 212 918 q 220 905 220 910 l 220 606 q 216 597 220 601 q 205 593 212 593 q 194 597 199 593 q 190 606 190 601 l 190 891 l 83 891 q 72 895 77 891 q 68 905 68 899 q 72 914 68 910 q 83 918 77 918 l 205 918 m 610 790 l 392 597 q 382 593 388 593 q 371 597 375 593 q 366 606 366 601 q 371 616 366 612 l 615 833 q 626 837 619 837 q 636 833 632 837 q 641 823 641 829 l 641 639 l 859 833 q 870 837 863 837 q 881 833 876 837 q 885 823 885 829 l 885 606 q 881 597 885 601 q 870 593 876 593 q 859 597 863 593 q 854 606 854 601 l 854 790 l 636 597 q 626 593 632 593 q 615 597 619 593 q 610 606 610 601 l 610 790 m 278 598 q 277 597 277 597 q 267 593 273 593 q 255 597 260 593 q 251 606 251 601 l 251 905 q 255 914 251 910 q 267 918 260 918 l 389 918 q 399 914 395 918 q 404 905 404 910 q 399 895 404 899 q 389 891 395 891 l 281 891 l 281 618 l 676 968 q 687 972 680 972 q 697 968 693 972 q 702 959 702 964 l 702 774 l 920 968 q 931 972 924 972 q 942 968 937 972 q 946 959 946 964 l 946 606 q 942 597 946 601 q 931 593 937 593 q 920 597 924 593 q 916 606 916 601 l 916 926 l 697 732 q 687 728 693 728 q 676 732 680 728 q 671 742 671 736 l 671 926 l 300 597 q 290 593 296 593 q 279 597 283 593 l 278 598 m 389 945 l 83 945 q 72 949 77 945 q 68 959 68 954 q 72 968 68 964 q 83 972 77 972 l 389 972 q 399 968 395 972 q 404 959 404 964 q 399 949 404 954 q 389 945 395 945 z "},"−":{"ha":543,"x_min":68,"x_max":475,"o":"m 102 441 l 441 441 q 465 431 455 441 q 475 407 475 421 q 465 383 475 393 q 441 373 455 373 l 102 373 q 78 383 87 373 q 68 407 68 393 q 78 431 68 421 q 102 441 87 441 m 441 509 l 102 509 q 78 518 87 509 q 68 543 68 528 q 78 567 68 557 q 102 576 87 576 l 441 576 q 465 567 455 576 q 475 543 475 557 q 465 518 475 528 q 441 509 455 509 z "},"≈":{"ha":543,"x_min":68,"x_max":475,"o":"m 137 546 q 162 559 137 546 q 271 519 186 573 q 398 492 356 465 q 448 519 441 519 q 465 509 455 519 q 475 485 475 499 q 465 461 475 471 q 406 424 455 451 q 271 451 356 397 q 144 478 186 505 q 95 451 102 451 q 78 461 87 451 q 68 485 68 471 q 78 509 68 499 q 137 546 87 519 m 406 559 q 381 546 406 559 q 271 587 356 532 q 144 614 186 641 q 95 587 102 587 q 78 596 87 587 q 68 621 68 606 q 78 645 68 635 q 137 682 87 654 q 271 654 186 709 q 398 627 356 600 q 448 654 441 654 q 465 645 455 654 q 475 621 475 635 q 465 596 475 606 q 406 559 455 587 m 137 271 q 162 284 137 271 q 271 243 186 298 q 398 216 356 189 q 448 243 441 243 q 465 234 455 243 q 475 210 475 224 q 465 185 475 195 q 406 149 455 176 q 271 176 356 121 q 144 203 186 230 q 95 176 102 176 q 78 185 87 176 q 68 210 68 195 q 78 234 68 224 q 137 271 87 243 m 406 284 q 381 271 406 284 q 271 311 356 257 q 144 338 186 366 q 95 311 102 311 q 78 321 87 311 q 68 345 68 331 q 78 369 68 359 q 137 406 87 379 q 271 379 186 433 q 398 352 356 325 q 448 379 441 379 q 465 369 455 379 q 475 345 475 359 q 465 321 475 331 q 406 284 455 311 z "},"¡":{"ha":407,"x_min":68,"x_max":339,"o":"m 203 694 q 299 655 260 694 q 339 559 339 615 q 299 463 339 503 q 203 423 260 423 q 107 463 147 423 q 68 559 68 503 q 107 655 68 615 q 203 694 147 694 m 203 627 q 156 607 176 627 q 136 559 136 587 q 156 511 136 531 q 203 491 176 491 q 251 511 231 491 q 271 559 271 531 q 251 607 271 587 q 203 627 231 627 m 170 321 l 170 -221 q 160 -245 170 -235 q 136 -255 150 -255 q 112 -245 121 -255 q 102 -221 102 -235 l 102 321 q 112 346 102 336 q 136 355 121 355 q 160 346 150 355 q 170 321 170 336 m 237 -221 l 237 321 q 247 346 237 336 q 271 355 257 355 q 295 346 286 355 q 305 321 305 336 l 305 -221 q 295 -245 305 -235 q 271 -255 286 -255 q 247 -245 257 -255 q 237 -221 237 -235 z "},"¢":{"ha":1017,"x_min":68,"x_max":949,"o":"m 509 -102 q 499 -126 509 -116 q 475 -136 489 -136 q 451 -126 460 -136 q 441 -102 441 -116 l 441 10 q 207 139 309 37 q 68 475 68 278 q 207 810 68 671 q 441 939 309 912 l 441 1051 q 451 1075 441 1065 q 475 1085 460 1085 q 499 1075 489 1085 q 509 1051 509 1065 l 509 -102 m 576 1051 q 586 1075 576 1065 q 610 1085 596 1085 q 634 1075 625 1085 q 644 1051 644 1065 l 644 939 q 877 812 776 912 l 939 750 q 949 726 949 740 q 939 702 949 712 q 915 692 929 692 q 891 702 901 692 l 830 762 q 644 869 749 844 l 644 800 q 783 716 721 776 l 851 648 q 861 624 861 638 q 851 600 861 610 q 827 590 841 590 q 803 600 813 590 l 734 667 q 644 727 694 707 l 644 222 q 734 283 694 242 l 803 349 q 827 359 813 359 q 851 349 841 359 q 861 325 861 339 q 851 301 861 311 l 783 233 q 644 150 721 174 l 644 80 q 830 187 749 106 l 891 248 q 915 258 901 258 q 939 248 929 258 q 949 223 949 237 q 939 199 949 210 l 877 138 q 644 10 776 37 l 644 -102 q 634 -126 644 -116 q 610 -136 625 -136 q 586 -126 596 -136 q 576 -102 576 -116 l 576 1051 m 441 222 l 441 727 q 351 667 391 707 q 271 475 271 587 q 351 283 271 362 q 441 222 391 242 m 441 800 l 441 869 q 255 763 336 844 q 136 475 136 644 q 255 187 136 306 q 441 80 336 106 l 441 151 q 303 235 364 174 q 203 475 203 334 q 303 715 203 615 q 441 800 364 776 z "},"£":{"ha":949,"x_min":68,"x_max":882,"o":"m 102 68 l 848 68 q 872 58 862 68 q 882 34 882 48 q 872 10 882 20 q 848 0 862 0 l 102 0 q 78 10 87 0 q 68 34 68 20 q 78 58 68 48 q 102 68 87 68 m 339 610 q 399 754 339 694 q 543 814 458 814 q 686 754 627 814 q 746 610 746 694 l 746 576 q 736 552 746 562 q 712 543 726 543 q 688 552 698 543 q 678 576 678 562 l 678 610 q 638 706 678 667 q 543 746 599 746 q 447 706 486 746 q 407 610 407 667 l 407 509 l 644 509 q 668 499 659 509 q 678 475 678 489 q 668 451 678 460 q 644 441 659 441 l 339 441 l 339 610 m 203 610 q 303 850 203 751 q 543 949 402 949 q 782 850 683 949 q 882 610 882 751 l 882 576 q 872 552 882 562 q 848 543 862 543 q 824 552 833 543 q 814 576 814 562 l 814 610 q 734 802 814 723 q 543 882 655 882 q 351 802 430 882 q 271 610 271 723 l 271 441 l 102 441 q 78 451 87 441 q 68 475 68 460 q 78 499 68 489 q 102 509 87 509 l 203 509 l 203 610 m 339 373 l 644 373 q 668 363 659 373 q 678 339 678 353 q 668 315 678 325 q 644 305 659 305 l 407 305 l 407 203 l 848 203 q 872 194 862 203 q 882 170 882 184 q 872 145 882 155 q 848 136 862 136 l 339 136 l 339 373 m 203 305 l 102 305 q 78 315 87 305 q 68 339 68 325 q 78 363 68 353 q 102 373 87 373 l 271 373 l 271 136 l 102 136 q 78 145 87 136 q 68 170 68 155 q 78 194 68 184 q 102 203 87 203 l 203 203 l 203 305 z "},"¤":{"ha":678,"x_min":68,"x_max":616,"o":"m 339 -102 q 329 -126 339 -116 q 305 -136 319 -136 q 281 -126 291 -136 q 271 -102 271 -116 l 271 0 l 102 0 q 78 10 87 0 q 68 34 68 20 q 78 58 68 48 q 102 68 87 68 l 339 68 l 339 -102 m 475 37 l 475 -102 q 465 -126 475 -116 q 441 -136 455 -136 q 417 -126 427 -136 q 407 -102 407 -116 l 407 79 q 481 127 448 94 q 540 271 540 186 q 481 415 540 355 l 313 583 q 273 678 273 622 q 313 774 273 734 q 409 814 353 814 q 505 774 465 814 l 598 682 q 608 657 608 671 q 598 633 608 644 q 574 623 588 623 q 550 633 560 623 l 457 726 q 409 746 437 746 q 361 726 381 746 q 342 678 342 707 q 361 630 342 650 l 528 463 q 608 271 608 383 q 528 79 608 159 q 475 37 503 54 m 271 912 l 271 1051 q 281 1075 271 1065 q 305 1085 291 1085 q 329 1075 319 1085 q 339 1051 339 1065 l 339 870 q 265 822 298 855 q 206 679 206 763 q 265 534 206 594 l 433 367 q 473 271 473 328 q 433 175 473 215 q 337 136 393 136 l 102 136 q 78 145 87 136 q 68 170 68 155 q 78 194 68 184 q 102 203 87 203 l 337 203 q 385 223 365 203 q 404 271 404 243 q 385 319 404 300 l 218 486 q 138 679 138 566 q 218 870 138 791 q 271 912 243 895 m 407 1051 q 417 1075 407 1065 q 441 1085 427 1085 q 465 1075 455 1085 q 475 1051 475 1065 l 475 942 q 601 870 546 925 l 606 865 q 616 841 616 855 q 606 818 616 827 q 582 808 595 808 q 557 818 568 808 l 553 822 q 410 882 494 882 l 407 882 l 407 1051 z "},"¥":{"ha":1017,"x_min":0,"x_max":1017,"o":"m 214 892 q 203 916 203 901 q 213 940 203 930 q 237 949 223 949 q 262 940 252 949 l 509 692 l 756 940 q 780 949 766 949 q 804 940 794 949 q 814 916 814 930 q 804 892 814 901 l 533 621 q 509 610 523 610 q 485 620 494 610 l 214 892 m 475 271 l 305 271 q 281 281 291 271 q 271 305 271 291 q 281 329 271 319 q 305 339 291 339 l 407 339 l 407 494 l 9 892 q 0 916 0 901 q 10 940 0 930 q 34 949 20 949 q 58 940 48 949 l 465 532 q 475 509 475 523 l 475 271 m 610 339 l 712 339 q 736 329 726 339 q 746 305 746 319 q 736 281 746 291 q 712 271 726 271 l 543 271 l 543 509 q 552 532 543 523 l 960 940 q 983 949 969 949 q 1007 940 998 949 q 1017 916 1017 930 q 1008 892 1017 901 l 610 494 l 610 339 m 305 203 l 475 203 l 475 34 q 465 10 475 20 q 441 0 455 0 q 417 10 427 0 q 407 34 407 20 l 407 136 l 305 136 q 281 145 291 136 q 271 170 271 155 q 281 194 271 184 q 305 203 291 203 m 712 203 q 736 194 726 203 q 746 170 746 184 q 736 145 746 155 q 712 136 726 136 l 610 136 l 610 34 q 601 10 610 20 q 576 0 591 0 q 552 10 562 0 q 543 34 543 20 l 543 203 l 712 203 z "},"¦":{"ha":339,"x_min":68,"x_max":271,"o":"m 203 543 l 203 916 q 213 940 203 930 q 237 949 223 949 q 261 940 252 949 q 271 916 271 930 l 271 543 q 261 518 271 528 q 237 509 252 509 q 213 518 223 509 q 203 543 203 528 m 136 916 l 136 543 q 126 518 136 528 q 102 509 116 509 q 78 518 87 509 q 68 543 68 528 l 68 916 q 78 940 68 930 q 102 949 87 949 q 126 940 116 949 q 136 916 136 930 m 203 34 l 203 407 q 213 431 203 421 q 237 441 223 441 q 261 431 252 441 q 271 407 271 421 l 271 34 q 261 10 271 20 q 237 0 252 0 q 213 10 223 0 q 203 34 203 20 m 136 407 l 136 34 q 126 10 136 20 q 102 0 116 0 q 78 10 87 0 q 68 34 68 20 l 68 407 q 78 431 68 421 q 102 441 87 441 q 126 431 116 441 q 136 407 136 421 z "},"§":{"ha":678,"x_min":68,"x_max":616,"o":"m 102 68 l 337 68 q 481 127 421 68 q 540 271 540 186 q 481 415 540 355 l 313 583 q 273 678 273 622 q 313 774 273 734 q 409 814 353 814 q 505 774 465 814 l 598 682 q 608 657 608 671 q 598 633 608 644 q 574 623 588 623 q 550 633 560 623 l 457 726 q 409 746 437 746 q 361 726 381 746 q 342 678 342 707 q 361 630 342 650 l 528 463 q 608 271 608 383 q 528 79 608 159 q 337 0 449 0 l 102 0 q 78 10 87 0 q 68 34 68 20 q 78 58 68 48 q 102 68 87 68 m 337 136 l 102 136 q 78 145 87 136 q 68 170 68 155 q 78 194 68 184 q 102 203 87 203 l 337 203 q 385 223 365 203 q 404 271 404 243 q 385 319 404 300 l 218 486 q 138 679 138 566 q 218 870 138 791 q 409 949 297 949 q 601 870 522 949 l 606 865 q 616 841 616 855 q 606 818 616 827 q 582 808 595 808 q 557 818 568 808 l 553 822 q 409 882 494 882 q 265 822 325 882 q 206 679 206 763 q 265 534 206 594 l 433 367 q 473 271 473 328 q 433 175 473 215 q 337 136 393 136 z "},"©":{"ha":1085,"x_min":68,"x_max":1017,"o":"m 543 0 q 207 139 346 0 q 68 475 68 278 q 207 810 68 671 q 543 949 346 949 q 878 810 739 949 q 1017 475 1017 671 q 878 139 1017 278 q 543 0 739 0 m 543 68 q 830 187 711 68 q 949 475 949 306 q 830 763 949 644 q 543 882 711 882 q 255 763 374 882 q 136 475 136 644 q 255 187 136 306 q 543 68 374 68 m 543 136 q 303 235 402 136 q 203 475 203 334 q 303 714 203 615 q 543 814 402 814 q 782 714 683 814 q 882 475 882 615 q 782 235 882 334 q 543 136 683 136 m 543 203 q 734 283 655 203 q 814 475 814 362 q 734 667 814 587 q 543 746 655 746 q 351 667 430 746 q 271 475 271 587 q 351 283 271 362 q 543 203 430 203 m 543 271 q 399 331 458 271 q 339 475 339 391 q 399 618 339 559 q 543 678 458 678 q 686 618 627 678 q 746 475 746 559 q 686 331 746 391 q 543 271 627 271 m 543 339 q 638 379 599 339 q 678 475 678 418 q 638 571 678 531 q 543 610 599 610 q 447 571 486 610 q 407 475 407 531 q 447 379 407 418 q 543 339 486 339 z "},"ª":{"ha":610,"x_min":68,"x_max":543,"o":"m 305 475 q 137 544 207 475 q 68 712 68 614 q 137 880 68 810 q 305 949 207 949 q 473 880 404 949 q 543 712 543 810 q 473 544 543 614 q 305 475 404 475 m 305 543 q 425 592 376 543 q 475 712 475 642 q 425 832 475 783 q 305 882 376 882 q 185 832 235 882 q 136 712 136 783 q 185 592 136 642 q 305 543 235 543 m 305 610 q 233 640 263 610 q 203 712 203 670 q 233 784 203 754 q 305 814 263 814 q 377 784 347 814 q 407 712 407 754 q 377 640 407 670 q 305 610 347 610 m 305 678 q 329 688 319 678 q 339 712 339 698 q 329 736 339 726 q 305 746 319 746 q 281 736 291 746 q 271 712 271 726 q 281 688 271 698 q 305 678 291 678 z "},"«":{"ha":543,"x_min":68,"x_max":475,"o":"m 441 814 q 465 804 455 814 q 475 780 475 794 q 465 756 475 766 q 441 746 455 746 l 271 746 l 271 203 l 441 203 q 465 194 455 203 q 475 170 475 184 q 465 145 475 155 q 441 136 455 136 l 203 136 l 203 814 l 441 814 m 441 949 q 465 940 455 949 q 475 916 475 930 q 465 891 475 901 q 441 882 455 882 l 136 882 l 136 68 l 441 68 q 465 58 455 68 q 475 34 475 48 q 465 10 475 20 q 441 0 455 0 l 68 0 l 68 949 l 441 949 z "},"¬":{"ha":678,"x_min":68,"x_max":610,"o":"m 102 509 l 475 509 l 475 339 q 465 315 475 325 q 441 305 455 305 q 417 315 427 305 q 407 339 407 325 l 407 441 l 102 441 q 78 451 87 441 q 68 475 68 460 q 78 499 68 489 q 102 509 87 509 m 102 644 l 610 644 l 610 339 q 601 315 610 325 q 576 305 591 305 q 552 315 562 305 q 543 339 543 325 l 543 576 l 102 576 q 78 586 87 576 q 68 610 68 596 q 78 634 68 625 q 102 644 87 644 z "},"®":{"ha":1085,"x_min":68,"x_max":1017,"o":"m 543 0 q 207 139 346 0 q 68 475 68 278 q 207 810 68 671 q 543 949 346 949 q 878 810 739 949 q 1017 475 1017 671 q 878 139 1017 278 q 543 0 739 0 m 543 68 q 830 187 711 68 q 949 475 949 306 q 830 763 949 644 q 543 882 711 882 q 255 763 374 882 q 136 475 136 644 q 255 187 136 306 q 543 68 374 68 m 543 136 q 303 235 402 136 q 203 475 203 334 q 303 714 203 615 q 543 814 402 814 q 782 714 683 814 q 882 475 882 615 q 782 235 882 334 q 543 136 683 136 m 543 203 q 734 283 655 203 q 814 475 814 362 q 734 667 814 587 q 543 746 655 746 q 351 667 430 746 q 271 475 271 587 q 351 283 271 362 q 543 203 430 203 m 543 271 q 399 331 458 271 q 339 475 339 391 q 399 618 339 559 q 543 678 458 678 q 686 618 627 678 q 746 475 746 559 q 686 331 746 391 q 543 271 627 271 m 543 339 q 638 379 599 339 q 678 475 678 418 q 638 571 678 531 q 543 610 599 610 q 447 571 486 610 q 407 475 407 531 q 447 379 407 418 q 543 339 486 339 z "},"¯":{"ha":543,"x_min":68,"x_max":475,"o":"m 102 864 l 441 864 q 465 854 455 864 q 475 830 475 844 q 465 806 475 816 q 441 796 455 796 l 102 796 q 78 806 87 796 q 68 830 68 816 q 78 854 68 844 q 102 864 87 864 m 441 932 l 102 932 q 78 942 87 932 q 68 966 68 951 q 78 990 68 980 q 102 1000 87 1000 l 441 1000 q 465 990 455 1000 q 475 966 475 980 q 465 942 475 951 q 441 932 455 932 z "},"°":{"ha":610,"x_min":68,"x_max":543,"o":"m 305 475 q 137 544 207 475 q 68 712 68 614 q 137 880 68 810 q 305 949 207 949 q 473 880 404 949 q 543 712 543 810 q 473 544 543 614 q 305 475 404 475 m 305 543 q 425 592 376 543 q 475 712 475 642 q 425 832 475 783 q 305 882 376 882 q 185 832 235 882 q 136 712 136 783 q 185 592 136 642 q 305 543 235 543 m 305 610 q 233 640 263 610 q 203 712 203 670 q 233 784 203 754 q 305 814 263 814 q 377 784 347 814 q 407 712 407 754 q 377 640 407 670 q 305 610 347 610 m 305 678 q 329 688 319 678 q 339 712 339 698 q 329 736 339 726 q 305 746 319 746 q 281 736 291 746 q 271 712 271 726 q 281 688 271 698 q 305 678 291 678 z "},"±":{"ha":610,"x_min":68,"x_max":543,"o":"m 102 68 l 509 68 q 533 58 523 68 q 543 34 543 48 q 533 10 543 20 q 509 0 523 0 l 102 0 q 78 10 87 0 q 68 34 68 20 q 78 58 68 48 q 102 68 87 68 m 203 373 l 102 373 q 78 383 87 373 q 68 407 68 393 q 78 431 68 421 q 102 441 87 441 l 271 441 l 271 136 l 102 136 q 78 145 87 136 q 68 170 68 155 q 78 194 68 184 q 102 203 87 203 l 203 203 l 203 373 m 339 441 l 509 441 q 533 431 523 441 q 543 407 543 421 q 533 383 543 393 q 509 373 523 373 l 407 373 l 407 203 l 509 203 q 533 194 523 203 q 543 170 543 184 q 533 145 543 155 q 509 136 523 136 l 339 136 l 339 441 m 271 678 l 271 509 l 102 509 q 78 518 87 509 q 68 543 68 528 q 78 567 68 557 q 102 576 87 576 l 203 576 l 203 678 q 213 702 203 692 q 237 712 223 712 q 261 702 252 712 q 271 678 271 692 m 509 509 l 339 509 l 339 678 q 349 702 339 692 q 373 712 359 712 q 397 702 387 712 q 407 678 407 692 l 407 576 l 509 576 q 533 567 523 576 q 543 543 543 557 q 533 518 543 528 q 509 509 523 509 z "},"²":{"ha":610,"x_min":68,"x_max":543,"o":"m 305 475 q 137 544 207 475 q 68 712 68 614 q 137 880 68 810 q 305 949 207 949 q 473 880 404 949 q 543 712 543 810 q 473 544 543 614 q 305 475 404 475 m 305 543 q 425 592 376 543 q 475 712 475 642 q 425 832 475 783 q 305 882 376 882 q 185 832 235 882 q 136 712 136 783 q 185 592 136 642 q 305 543 235 543 m 305 610 q 233 640 263 610 q 203 712 203 670 q 233 784 203 754 q 305 814 263 814 q 377 784 347 814 q 407 712 407 754 q 377 640 407 670 q 305 610 347 610 m 305 678 q 329 688 319 678 q 339 712 339 698 q 329 736 339 726 q 305 746 319 746 q 281 736 291 746 q 271 712 271 726 q 281 688 271 698 q 305 678 291 678 z "},"³":{"ha":610,"x_min":68,"x_max":543,"o":"m 305 475 q 137 544 207 475 q 68 712 68 614 q 137 880 68 810 q 305 949 207 949 q 473 880 404 949 q 543 712 543 810 q 473 544 543 614 q 305 475 404 475 m 305 543 q 425 592 376 543 q 475 712 475 642 q 425 832 475 783 q 305 882 376 882 q 185 832 235 882 q 136 712 136 783 q 185 592 136 642 q 305 543 235 543 m 305 610 q 233 640 263 610 q 203 712 203 670 q 233 784 203 754 q 305 814 263 814 q 377 784 347 814 q 407 712 407 754 q 377 640 407 670 q 305 610 347 610 m 305 678 q 329 688 319 678 q 339 712 339 698 q 329 736 339 726 q 305 746 319 746 q 281 736 291 746 q 271 712 271 726 q 281 688 271 698 q 305 678 291 678 z "},"µ":{"ha":1560,"x_min":0,"x_max":1492,"o":"m 882 833 l 58 10 q 34 0 48 0 q 10 10 20 0 q 0 34 0 20 q 10 58 0 48 l 892 940 q 916 949 901 949 q 940 940 930 949 q 949 916 949 930 l 949 455 q 1458 949 1444 949 q 1482 940 1472 949 q 1492 916 1492 930 l 1492 34 q 1482 10 1492 20 q 1458 0 1472 0 q 1434 10 1444 0 q 1424 34 1424 20 l 1424 833 l 940 349 q 916 339 930 339 q 891 349 901 339 q 882 373 882 359 l 882 833 m 746 494 l 262 10 q 237 0 252 0 q 213 10 223 0 q 203 34 203 20 q 214 58 203 48 l 756 601 q 780 610 766 610 q 804 601 794 610 q 814 576 814 591 l 814 116 l 1299 601 q 1322 610 1308 610 q 1347 601 1337 610 q 1356 576 1356 591 l 1356 34 q 1347 10 1356 20 q 1322 0 1337 0 q 1298 10 1308 0 q 1289 34 1289 20 l 1289 494 l 804 10 q 780 0 794 0 q 756 10 766 0 q 746 34 746 20 l 746 494 z "},"¶":{"ha":882,"x_min":68,"x_max":814,"o":"m 678 780 l 678 441 q 668 417 678 427 q 644 407 659 407 l 407 407 q 263 467 323 407 q 203 610 203 526 q 263 754 203 694 q 407 814 323 814 l 644 814 q 668 804 659 814 q 678 780 678 794 m 610 271 l 407 271 q 167 371 267 271 q 68 610 68 470 q 167 850 68 751 q 407 949 267 949 l 780 949 q 804 940 794 949 q 814 916 814 930 l 814 34 q 804 10 814 20 q 780 0 794 0 q 756 10 766 0 q 746 34 746 20 l 746 882 l 407 882 q 215 802 294 882 q 136 610 136 723 q 215 418 136 498 q 407 339 294 339 l 644 339 q 668 329 659 339 q 678 305 678 319 l 678 34 q 668 10 678 20 q 644 0 659 0 q 620 10 630 0 q 610 34 610 20 l 610 271 z "},"¸":{"ha":407,"x_min":59,"x_max":349,"o":"m 160 -239 q 145 -260 157 -253 q 119 -264 133 -267 q 98 -249 105 -260 q 94 -223 91 -237 l 110 -166 q 88 -138 98 -154 q 72 -36 59 -90 q 133 48 85 19 q 236 64 181 77 q 320 3 291 51 q 336 -100 349 -45 l 299 -245 q 284 -266 296 -258 q 258 -270 272 -273 q 237 -255 244 -267 q 233 -229 230 -243 l 270 -84 q 261 -33 276 -57 q 220 -2 247 -9 q 169 -10 193 5 q 138 -52 144 -25 q 146 -103 132 -79 q 188 -134 161 -127 l 160 -239 z "},"¹":{"ha":339,"x_min":68,"x_max":271,"o":"m 203 644 l 203 916 q 213 940 203 930 q 237 949 223 949 q 261 940 252 949 q 271 916 271 930 l 271 644 q 261 620 271 630 q 237 610 252 610 q 213 620 223 610 q 203 644 203 630 m 136 916 l 136 644 q 126 620 136 630 q 102 610 116 610 q 78 620 87 610 q 68 644 68 630 l 68 916 q 78 940 68 930 q 102 949 87 949 q 126 940 116 949 q 136 916 136 930 z "},"º":{"ha":610,"x_min":68,"x_max":543,"o":"m 305 475 q 137 544 207 475 q 68 712 68 614 q 137 880 68 810 q 305 949 207 949 q 473 880 404 949 q 543 712 543 810 q 473 544 543 614 q 305 475 404 475 m 305 543 q 425 592 376 543 q 475 712 475 642 q 425 832 475 783 q 305 882 376 882 q 185 832 235 882 q 136 712 136 783 q 185 592 136 642 q 305 543 235 543 m 305 610 q 233 640 263 610 q 203 712 203 670 q 233 784 203 754 q 305 814 263 814 q 377 784 347 814 q 407 712 407 754 q 377 640 407 670 q 305 610 347 610 m 305 678 q 329 688 319 678 q 339 712 339 698 q 329 736 339 726 q 305 746 319 746 q 281 736 291 746 q 271 712 271 726 q 281 688 271 698 q 305 678 291 678 z "},"»":{"ha":543,"x_min":68,"x_max":475,"o":"m 102 136 q 78 145 87 136 q 68 170 68 155 q 78 194 68 184 q 102 203 87 203 l 271 203 l 271 746 l 102 746 q 78 756 87 746 q 68 780 68 766 q 78 804 68 794 q 102 814 87 814 l 339 814 l 339 136 l 102 136 m 102 0 q 78 10 87 0 q 68 34 68 20 q 78 58 68 48 q 102 68 87 68 l 407 68 l 407 882 l 102 882 q 78 891 87 882 q 68 916 68 901 q 78 940 68 930 q 102 949 87 949 l 475 949 l 475 0 l 102 0 z "},"¼":{"ha":1085,"x_min":68,"x_max":1017,"o":"m 858 940 q 882 949 867 949 q 906 940 896 949 q 916 916 916 930 q 906 892 916 901 l 125 111 q 102 102 116 102 q 78 112 87 102 q 68 136 68 121 q 77 159 68 150 l 858 940 m 960 838 q 983 848 969 848 q 1007 838 998 848 q 1017 814 1017 828 q 1008 790 1017 800 l 228 10 q 203 0 218 0 q 179 10 189 0 q 170 34 170 20 q 180 58 170 48 l 960 838 m 271 543 q 127 602 187 543 q 68 746 68 662 q 127 890 68 830 q 271 949 187 949 q 415 890 355 949 q 475 746 475 830 q 415 602 475 662 q 271 543 355 543 m 271 610 q 367 650 328 610 q 407 746 407 690 q 367 842 407 802 q 271 882 328 882 q 175 842 215 882 q 136 746 136 802 q 175 650 136 690 q 271 610 215 610 m 271 678 q 223 698 243 678 q 203 746 203 718 q 223 794 203 774 q 271 814 243 814 q 319 794 299 814 q 339 746 339 774 q 319 698 339 718 q 271 678 299 678 m 814 0 q 670 60 730 0 q 610 203 610 119 q 670 347 610 288 q 814 407 730 407 q 958 347 898 407 q 1017 203 1017 288 q 958 60 1017 119 q 814 0 898 0 m 814 68 q 910 107 870 68 q 949 203 949 147 q 910 299 949 260 q 814 339 870 339 q 718 299 758 339 q 678 203 678 260 q 718 107 678 147 q 814 68 758 68 m 814 136 q 766 156 786 136 q 746 203 746 176 q 766 251 746 231 q 814 271 786 271 q 862 251 842 271 q 882 203 882 231 q 862 156 882 176 q 814 136 842 136 z "},"½":{"ha":1085,"x_min":68,"x_max":1017,"o":"m 858 940 q 882 949 867 949 q 906 940 896 949 q 916 916 916 930 q 906 892 916 901 l 125 111 q 102 102 116 102 q 78 112 87 102 q 68 136 68 121 q 77 159 68 150 l 858 940 m 960 838 q 983 848 969 848 q 1007 838 998 848 q 1017 814 1017 828 q 1008 790 1017 800 l 228 10 q 203 0 218 0 q 179 10 189 0 q 170 34 170 20 q 180 58 170 48 l 960 838 m 271 543 q 127 602 187 543 q 68 746 68 662 q 127 890 68 830 q 271 949 187 949 q 415 890 355 949 q 475 746 475 830 q 415 602 475 662 q 271 543 355 543 m 271 610 q 367 650 328 610 q 407 746 407 690 q 367 842 407 802 q 271 882 328 882 q 175 842 215 882 q 136 746 136 802 q 175 650 136 690 q 271 610 215 610 m 271 678 q 223 698 243 678 q 203 746 203 718 q 223 794 203 774 q 271 814 243 814 q 319 794 299 814 q 339 746 339 774 q 319 698 339 718 q 271 678 299 678 m 814 0 q 670 60 730 0 q 610 203 610 119 q 670 347 610 288 q 814 407 730 407 q 958 347 898 407 q 1017 203 1017 288 q 958 60 1017 119 q 814 0 898 0 m 814 68 q 910 107 870 68 q 949 203 949 147 q 910 299 949 260 q 814 339 870 339 q 718 299 758 339 q 678 203 678 260 q 718 107 678 147 q 814 68 758 68 m 814 136 q 766 156 786 136 q 746 203 746 176 q 766 251 746 231 q 814 271 786 271 q 862 251 842 271 q 882 203 882 231 q 862 156 882 176 q 814 136 842 136 z "},"¾":{"ha":1085,"x_min":68,"x_max":1017,"o":"m 858 940 q 882 949 867 949 q 906 940 896 949 q 916 916 916 930 q 906 892 916 901 l 125 111 q 102 102 116 102 q 78 112 87 102 q 68 136 68 121 q 77 159 68 150 l 858 940 m 960 838 q 983 848 969 848 q 1007 838 998 848 q 1017 814 1017 828 q 1008 790 1017 800 l 228 10 q 203 0 218 0 q 179 10 189 0 q 170 34 170 20 q 180 58 170 48 l 960 838 m 271 543 q 127 602 187 543 q 68 746 68 662 q 127 890 68 830 q 271 949 187 949 q 415 890 355 949 q 475 746 475 830 q 415 602 475 662 q 271 543 355 543 m 271 610 q 367 650 328 610 q 407 746 407 690 q 367 842 407 802 q 271 882 328 882 q 175 842 215 882 q 136 746 136 802 q 175 650 136 690 q 271 610 215 610 m 271 678 q 223 698 243 678 q 203 746 203 718 q 223 794 203 774 q 271 814 243 814 q 319 794 299 814 q 339 746 339 774 q 319 698 339 718 q 271 678 299 678 m 814 0 q 670 60 730 0 q 610 203 610 119 q 670 347 610 288 q 814 407 730 407 q 958 347 898 407 q 1017 203 1017 288 q 958 60 1017 119 q 814 0 898 0 m 814 68 q 910 107 870 68 q 949 203 949 147 q 910 299 949 260 q 814 339 870 339 q 718 299 758 339 q 678 203 678 260 q 718 107 678 147 q 814 68 758 68 m 814 136 q 766 156 786 136 q 746 203 746 176 q 766 251 746 231 q 814 271 786 271 q 862 251 842 271 q 882 203 882 231 q 862 156 882 176 q 814 136 842 136 z "},"¿":{"ha":610,"x_min":68,"x_max":546,"o":"m 342 694 q 438 655 399 694 q 478 559 478 615 q 438 463 478 503 q 342 423 399 423 q 247 463 286 423 q 207 559 207 503 q 247 655 207 615 q 342 694 286 694 m 342 627 q 295 607 315 627 q 275 559 275 587 q 295 511 275 531 q 342 491 315 491 q 390 511 370 491 q 410 559 410 531 q 390 607 410 587 q 342 627 370 627 m 450 222 l 292 64 q 272 16 272 45 q 292 -32 272 -12 q 339 -52 311 -52 q 387 -32 368 -52 l 480 61 q 504 71 490 71 q 528 61 518 71 q 538 37 538 51 q 528 13 538 23 l 435 -80 q 339 -119 395 -119 q 243 -80 283 -119 q 203 16 203 -40 q 243 112 203 73 l 396 264 q 401 271 398 268 q 425 281 411 281 q 449 271 439 281 q 459 247 459 261 q 450 222 459 233 m 195 160 q 136 16 136 100 q 195 -127 136 -68 q 339 -187 255 -187 q 483 -127 424 -187 l 488 -123 q 512 -113 498 -113 q 536 -123 526 -113 q 546 -147 546 -133 q 536 -171 546 -161 l 531 -176 q 339 -255 452 -255 q 148 -176 227 -255 q 68 16 68 -96 q 148 208 68 128 l 294 355 q 304 365 299 360 q 328 375 314 375 q 352 365 342 375 q 362 341 362 355 q 352 317 362 327 l 342 308 l 195 160 z "},"À":{"ha":1017,"x_min":0,"x_max":949,"o":"m 882 833 l 58 10 q 34 0 48 0 q 10 10 20 0 q 0 34 0 20 q 10 58 0 48 l 892 940 q 916 949 901 949 q 940 940 930 949 q 949 916 949 930 l 949 34 q 940 10 949 20 q 916 0 930 0 l 576 0 q 552 10 562 0 q 543 34 543 20 q 552 58 543 48 q 576 68 562 68 l 882 68 l 882 833 m 780 136 l 576 136 q 552 145 562 136 q 543 170 543 155 q 552 194 543 184 q 576 203 562 203 l 746 203 l 746 494 l 262 10 q 237 0 252 0 q 213 10 223 0 q 203 34 203 20 q 214 58 203 48 l 756 601 q 780 610 766 610 q 804 601 794 610 q 814 576 814 591 l 814 170 q 804 145 814 155 q 780 136 794 136 m 553 892 l 349 1095 q 339 1119 339 1105 q 349 1143 339 1133 q 373 1153 359 1153 q 397 1143 387 1153 l 600 939 q 610 916 610 930 q 600 892 610 902 q 576 882 590 882 q 553 892 562 882 m 756 892 l 553 1095 q 543 1119 543 1105 q 553 1143 543 1133 q 577 1153 563 1153 q 601 1143 591 1153 l 804 940 q 814 916 814 930 q 804 892 814 902 q 780 882 794 882 q 756 892 766 882 z "},"Á":{"ha":1017,"x_min":0,"x_max":949,"o":"m 882 833 l 58 10 q 34 0 48 0 q 10 10 20 0 q 0 34 0 20 q 10 58 0 48 l 892 940 q 916 949 901 949 q 940 940 930 949 q 949 916 949 930 l 949 34 q 940 10 949 20 q 916 0 930 0 l 576 0 q 552 10 562 0 q 543 34 543 20 q 552 58 543 48 q 576 68 562 68 l 882 68 l 882 833 m 780 136 l 576 136 q 552 145 562 136 q 543 170 543 155 q 552 194 543 184 q 576 203 562 203 l 746 203 l 746 494 l 262 10 q 237 0 252 0 q 213 10 223 0 q 203 34 203 20 q 214 58 203 48 l 756 601 q 780 610 766 610 q 804 601 794 610 q 814 576 814 591 l 814 170 q 804 145 814 155 q 780 136 794 136 m 621 1143 q 644 1153 630 1153 q 668 1143 658 1153 q 678 1119 678 1133 q 668 1095 678 1105 l 465 892 q 441 882 455 882 q 417 892 427 882 q 407 916 407 902 q 417 940 407 930 l 621 1143 m 824 1143 q 848 1153 834 1153 q 872 1143 862 1153 q 882 1119 882 1133 q 872 1095 882 1105 l 669 892 q 645 882 659 882 q 621 892 631 882 q 610 916 610 902 q 621 939 610 930 l 824 1143 z "},"Â":{"ha":1017,"x_min":0,"x_max":949,"o":"m 882 833 l 58 10 q 34 0 48 0 q 10 10 20 0 q 0 34 0 20 q 10 58 0 48 l 892 940 q 916 949 901 949 q 940 940 930 949 q 949 916 949 930 l 949 34 q 940 10 949 20 q 916 0 930 0 l 576 0 q 552 10 562 0 q 543 34 543 20 q 552 58 543 48 q 576 68 562 68 l 882 68 l 882 833 m 780 136 l 576 136 q 552 145 562 136 q 543 170 543 155 q 552 194 543 184 q 576 203 562 203 l 746 203 l 746 494 l 262 10 q 237 0 252 0 q 213 10 223 0 q 203 34 203 20 q 214 58 203 48 l 756 601 q 780 610 766 610 q 804 601 794 610 q 814 576 814 591 l 814 170 q 804 145 814 155 q 780 136 794 136 m 441 949 q 465 940 455 949 l 533 871 q 543 848 543 862 q 533 824 543 833 q 509 814 523 814 q 485 823 494 814 l 441 867 l 397 824 q 373 814 387 814 q 349 824 359 814 q 339 848 339 833 q 349 872 339 862 l 417 940 q 441 949 427 949 m 475 1133 l 736 871 q 746 848 746 862 q 736 824 746 833 q 712 814 726 814 q 688 823 698 814 l 441 1072 l 193 823 q 170 814 184 814 q 145 824 155 814 q 136 848 136 833 q 145 871 136 862 l 417 1143 q 441 1153 427 1153 q 465 1143 455 1153 l 475 1133 z "},"Ã":{"ha":1017,"x_min":0,"x_max":949,"o":"m 882 833 l 58 10 q 34 0 48 0 q 10 10 20 0 q 0 34 0 20 q 10 58 0 48 l 892 940 q 916 949 901 949 q 940 940 930 949 q 949 916 949 930 l 949 34 q 940 10 949 20 q 916 0 930 0 l 576 0 q 552 10 562 0 q 543 34 543 20 q 552 58 543 48 q 576 68 562 68 l 882 68 l 882 833 m 780 136 l 576 136 q 552 145 562 136 q 543 170 543 155 q 552 194 543 184 q 576 203 562 203 l 746 203 l 746 494 l 262 10 q 237 0 252 0 q 213 10 223 0 q 203 34 203 20 q 214 58 203 48 l 756 601 q 780 610 766 610 q 804 601 794 610 q 814 576 814 591 l 814 170 q 804 145 814 155 q 780 136 794 136 m 476 1013 q 501 1026 476 1013 q 610 985 526 1040 q 738 958 695 931 q 787 985 780 985 q 804 976 794 985 q 814 951 814 966 q 804 927 814 937 q 745 890 794 918 q 610 918 695 863 q 483 945 526 972 q 434 918 441 918 q 417 927 427 918 q 407 951 407 937 q 417 976 407 966 q 476 1013 427 985 m 745 1026 q 720 1013 745 1026 q 610 1053 695 999 q 483 1080 526 1107 q 434 1053 441 1053 q 417 1063 427 1053 q 407 1087 407 1073 q 417 1111 407 1101 q 476 1148 427 1121 q 610 1121 526 1175 q 738 1094 695 1067 q 787 1121 780 1121 q 804 1111 794 1121 q 814 1087 814 1101 q 804 1063 814 1073 q 745 1026 794 1053 z "},"Ä":{"ha":1017,"x_min":0,"x_max":949,"o":"m 882 833 l 58 10 q 34 0 48 0 q 10 10 20 0 q 0 34 0 20 q 10 58 0 48 l 892 940 q 916 949 901 949 q 940 940 930 949 q 949 916 949 930 l 949 34 q 940 10 949 20 q 916 0 930 0 l 576 0 q 552 10 562 0 q 543 34 543 20 q 552 58 543 48 q 576 68 562 68 l 882 68 l 882 833 m 780 136 l 576 136 q 552 145 562 136 q 543 170 543 155 q 552 194 543 184 q 576 203 562 203 l 746 203 l 746 494 l 262 10 q 237 0 252 0 q 213 10 223 0 q 203 34 203 20 q 214 58 203 48 l 756 601 q 780 610 766 610 q 804 601 794 610 q 814 576 814 591 l 814 170 q 804 145 814 155 q 780 136 794 136 m 339 882 q 243 921 283 882 q 203 1017 203 961 q 243 1113 203 1074 q 339 1153 283 1153 q 435 1113 395 1153 q 475 1017 475 1074 q 435 921 475 961 q 339 882 395 882 m 339 949 q 387 969 367 949 q 407 1017 407 989 q 387 1065 407 1045 q 339 1085 367 1085 q 291 1065 311 1085 q 271 1017 271 1045 q 291 969 271 989 q 339 949 311 949 m 678 882 q 582 921 622 882 q 543 1017 543 961 q 582 1113 543 1074 q 678 1153 622 1153 q 774 1113 734 1153 q 814 1017 814 1074 q 774 921 814 961 q 678 882 734 882 m 678 949 q 726 969 706 949 q 746 1017 746 989 q 726 1065 746 1045 q 678 1085 706 1085 q 630 1065 650 1085 q 610 1017 610 1045 q 630 969 610 989 q 678 949 650 949 z "},"Å":{"ha":1017,"x_min":0,"x_max":949,"o":"m 882 833 l 58 10 q 34 0 48 0 q 10 10 20 0 q 0 34 0 20 q 10 58 0 48 l 892 940 q 916 949 901 949 q 940 940 930 949 q 949 916 949 930 l 949 34 q 940 10 949 20 q 916 0 930 0 l 576 0 q 552 10 562 0 q 543 34 543 20 q 552 58 543 48 q 576 68 562 68 l 882 68 l 882 833 m 780 136 l 576 136 q 552 145 562 136 q 543 170 543 155 q 552 194 543 184 q 576 203 562 203 l 746 203 l 746 494 l 262 10 q 237 0 252 0 q 213 10 223 0 q 203 34 203 20 q 214 58 203 48 l 756 601 q 780 610 766 610 q 804 601 794 610 q 814 576 814 591 l 814 170 q 804 145 814 155 q 780 136 794 136 m 373 610 q 205 680 275 610 q 136 848 136 749 q 205 1016 136 946 q 373 1085 275 1085 q 541 1016 471 1085 q 610 848 610 946 q 541 680 610 749 q 373 610 471 610 m 373 678 q 493 728 444 678 q 543 848 543 777 q 493 968 543 918 q 373 1017 444 1017 q 253 968 302 1017 q 203 848 203 918 q 253 728 203 777 q 373 678 302 678 m 373 746 q 301 776 331 746 q 271 848 271 806 q 301 920 271 890 q 373 949 331 949 q 445 920 415 949 q 475 848 475 890 q 445 776 475 806 q 373 746 415 746 m 373 814 q 397 824 387 814 q 407 848 407 833 q 397 872 407 862 q 373 882 387 882 q 349 872 359 882 q 339 848 339 862 q 349 824 339 833 q 373 814 359 814 z "},"Æ":{"ha":1560,"x_min":0,"x_max":1492,"o":"m 1051 814 l 1458 814 q 1482 804 1472 814 q 1492 780 1492 794 q 1482 756 1492 766 q 1458 746 1472 746 l 1085 746 l 1085 576 l 1458 576 q 1482 567 1472 576 q 1492 543 1492 557 q 1482 518 1492 528 q 1458 509 1472 509 l 1051 509 q 1027 518 1037 509 q 1017 543 1017 528 l 1017 780 q 1027 804 1017 794 q 1051 814 1037 814 m 780 136 l 576 136 q 552 145 562 136 q 543 170 543 155 q 552 194 543 184 q 576 203 562 203 l 746 203 l 746 494 l 262 10 q 237 0 252 0 q 213 10 223 0 q 203 34 203 20 q 214 58 203 48 l 756 601 q 780 610 766 610 q 804 601 794 610 q 814 576 814 591 l 814 170 q 804 145 814 155 q 780 136 794 136 m 576 0 q 552 10 562 0 q 543 34 543 20 q 552 58 543 48 q 576 68 562 68 l 882 68 l 882 833 l 58 10 q 34 0 48 0 q 10 10 20 0 q 0 34 0 20 q 10 58 0 48 l 892 940 q 916 949 901 949 l 1458 949 q 1482 940 1472 949 q 1492 916 1492 930 q 1482 891 1492 901 q 1458 882 1472 882 l 949 882 l 949 68 l 1458 68 q 1482 58 1472 68 q 1492 34 1492 48 q 1482 10 1492 20 q 1458 0 1472 0 l 576 0 m 1051 441 l 1458 441 q 1482 431 1472 441 q 1492 407 1492 421 q 1482 383 1492 393 q 1458 373 1472 373 l 1085 373 l 1085 203 l 1458 203 q 1482 194 1472 203 q 1492 170 1492 184 q 1482 145 1492 155 q 1458 136 1472 136 l 1051 136 q 1027 145 1037 136 q 1017 170 1017 155 l 1017 407 q 1027 431 1017 421 q 1051 441 1037 441 z "},"Ç":{"ha":1017,"x_min":68,"x_max":949,"o":"m 203 475 q 303 714 203 615 q 543 814 402 814 q 783 716 682 814 l 851 648 q 861 624 861 638 q 851 600 861 610 q 827 590 841 590 q 803 600 813 590 l 734 667 q 543 746 655 746 q 351 667 430 746 q 271 475 271 587 q 351 283 271 362 q 543 203 430 203 q 734 283 655 203 l 803 349 q 827 359 813 359 q 851 349 841 359 q 861 325 861 339 q 851 301 861 311 l 783 233 q 543 136 682 136 q 303 235 402 136 q 203 475 203 334 m 432 12 q 207 139 305 41 q 68 475 68 278 q 207 810 68 671 q 543 949 346 949 q 877 812 739 949 l 939 750 q 949 726 949 740 q 939 702 949 712 q 915 692 929 692 q 891 702 901 692 l 830 762 q 543 882 711 882 q 255 763 374 882 q 136 475 136 644 q 255 187 136 306 q 534 68 370 71 q 548 68 541 68 q 830 187 713 70 l 891 248 q 915 258 901 258 q 939 248 929 258 q 949 223 949 237 q 939 199 949 210 l 877 138 q 652 12 779 41 q 659 3 656 7 q 674 -100 688 -45 l 637 -245 q 622 -266 634 -258 q 597 -270 610 -273 q 575 -255 583 -267 q 572 -229 568 -243 l 608 -84 q 600 -33 614 -57 q 558 -2 585 -9 q 545 0 551 0 l 538 0 q 507 -10 522 -1 q 476 -52 483 -25 q 485 -103 470 -79 q 526 -134 499 -127 l 498 -239 q 483 -260 495 -253 q 457 -264 471 -267 q 436 -249 444 -260 q 433 -223 429 -237 l 448 -166 q 427 -138 436 -154 q 410 -36 397 -90 q 432 12 417 -9 z "},"È":{"ha":746,"x_min":68,"x_max":678,"o":"m 237 441 l 644 441 q 668 431 659 441 q 678 407 678 421 q 668 383 678 393 q 644 373 659 373 l 271 373 l 271 203 l 644 203 q 668 194 659 203 q 678 170 678 184 q 668 145 678 155 q 644 136 659 136 l 237 136 q 213 145 223 136 q 203 170 203 155 l 203 407 q 213 431 203 421 q 237 441 223 441 m 136 882 l 136 68 l 644 68 q 668 58 659 68 q 678 34 678 48 q 668 10 678 20 q 644 0 659 0 l 102 0 q 78 10 87 0 q 68 34 68 20 l 68 916 q 78 940 68 930 q 102 949 87 949 l 292 949 l 146 1095 q 136 1119 136 1105 q 146 1143 136 1133 q 170 1153 156 1153 q 193 1143 184 1153 l 387 949 l 495 949 l 349 1095 q 339 1119 339 1105 q 349 1143 339 1133 q 373 1153 359 1153 q 397 1143 387 1153 l 591 949 l 644 949 q 668 940 659 949 q 678 916 678 930 q 668 891 678 901 q 644 882 659 882 l 136 882 m 237 814 l 644 814 q 668 804 659 814 q 678 780 678 794 q 668 756 678 766 q 644 746 659 746 l 271 746 l 271 576 l 644 576 q 668 567 659 576 q 678 543 678 557 q 668 518 678 528 q 644 509 659 509 l 237 509 q 213 518 223 509 q 203 543 203 528 l 203 780 q 213 804 203 794 q 237 814 223 814 z "},"É":{"ha":746,"x_min":68,"x_max":678,"o":"m 237 441 l 644 441 q 668 431 659 441 q 678 407 678 421 q 668 383 678 393 q 644 373 659 373 l 271 373 l 271 203 l 644 203 q 668 194 659 203 q 678 170 678 184 q 668 145 678 155 q 644 136 659 136 l 237 136 q 213 145 223 136 q 203 170 203 155 l 203 407 q 213 431 203 421 q 237 441 223 441 m 136 882 l 136 68 l 644 68 q 668 58 659 68 q 678 34 678 48 q 668 10 678 20 q 644 0 659 0 l 102 0 q 78 10 87 0 q 68 34 68 20 l 68 916 q 78 940 68 930 q 102 949 87 949 l 155 949 l 349 1143 q 373 1153 359 1153 q 397 1143 387 1153 q 407 1119 407 1133 q 397 1095 407 1105 l 251 949 l 359 949 l 553 1143 q 576 1153 562 1153 q 600 1143 590 1153 q 610 1119 610 1133 q 600 1095 610 1105 l 454 949 l 644 949 q 668 940 659 949 q 678 916 678 930 q 668 891 678 901 q 644 882 659 882 l 136 882 m 237 814 l 644 814 q 668 804 659 814 q 678 780 678 794 q 668 756 678 766 q 644 746 659 746 l 271 746 l 271 576 l 644 576 q 668 567 659 576 q 678 543 678 557 q 668 518 678 528 q 644 509 659 509 l 237 509 q 213 518 223 509 q 203 543 203 528 l 203 780 q 213 804 203 794 q 237 814 223 814 z "},"Ê":{"ha":746,"x_min":68,"x_max":678,"o":"m 237 441 l 644 441 q 668 431 659 441 q 678 407 678 421 q 668 383 678 393 q 644 373 659 373 l 271 373 l 271 203 l 644 203 q 668 194 659 203 q 678 170 678 184 q 668 145 678 155 q 644 136 659 136 l 237 136 q 213 145 223 136 q 203 170 203 155 l 203 407 q 213 431 203 421 q 237 441 223 441 m 291 949 l 349 1008 q 373 1017 359 1017 q 397 1008 387 1017 l 455 949 l 562 949 l 373 1139 l 184 949 l 291 949 m 441 882 q 417 891 427 882 l 373 935 l 330 892 q 305 882 319 882 l 136 882 l 136 68 l 644 68 q 668 58 659 68 q 678 34 678 48 q 668 10 678 20 q 644 0 659 0 l 102 0 q 78 10 87 0 q 68 34 68 20 l 68 916 q 77 939 68 930 l 349 1211 q 373 1221 359 1221 q 397 1211 387 1221 l 408 1200 l 669 940 q 678 916 678 930 q 669 892 678 901 q 644 882 659 882 l 441 882 m 237 814 l 644 814 q 668 804 659 814 q 678 780 678 794 q 668 756 678 766 q 644 746 659 746 l 271 746 l 271 576 l 644 576 q 668 567 659 576 q 678 543 678 557 q 668 518 678 528 q 644 509 659 509 l 237 509 q 213 518 223 509 q 203 543 203 528 l 203 780 q 213 804 203 794 q 237 814 223 814 z "},"Ë":{"ha":746,"x_min":68,"x_max":678,"o":"m 203 1017 q 251 1037 231 1017 q 271 1085 271 1057 q 251 1133 271 1113 q 203 1153 231 1153 q 156 1133 176 1153 q 136 1085 136 1113 q 156 1037 136 1057 q 203 1017 176 1017 m 543 1017 q 590 1037 570 1017 q 610 1085 610 1057 q 590 1133 610 1113 q 543 1153 570 1153 q 495 1133 515 1153 q 475 1085 475 1113 q 495 1037 475 1057 q 543 1017 515 1017 m 136 68 l 644 68 q 668 58 659 68 q 678 34 678 48 q 668 10 678 20 q 644 0 659 0 l 102 0 q 78 10 87 0 q 68 34 68 20 l 68 916 q 78 940 68 930 q 102 949 87 949 l 644 949 q 668 940 659 949 q 678 916 678 930 q 668 891 678 901 q 644 882 659 882 l 136 882 l 136 68 m 543 949 q 447 989 486 949 q 407 1085 407 1029 q 447 1181 407 1141 q 543 1221 486 1221 q 638 1181 599 1221 q 678 1085 678 1141 q 638 989 678 1029 q 543 949 599 949 m 203 949 q 107 989 147 949 q 68 1085 68 1029 q 107 1181 68 1141 q 203 1221 147 1221 q 299 1181 260 1221 q 339 1085 339 1141 q 299 989 339 1029 q 203 949 260 949 m 237 814 l 644 814 q 668 804 659 814 q 678 780 678 794 q 668 756 678 766 q 644 746 659 746 l 271 746 l 271 576 l 644 576 q 668 567 659 576 q 678 543 678 557 q 668 518 678 528 q 644 509 659 509 l 237 509 q 213 518 223 509 q 203 543 203 528 l 203 780 q 213 804 203 794 q 237 814 223 814 m 237 441 l 644 441 q 668 431 659 441 q 678 407 678 421 q 668 383 678 393 q 644 373 659 373 l 271 373 l 271 203 l 644 203 q 668 194 659 203 q 678 170 678 184 q 668 145 678 155 q 644 136 659 136 l 237 136 q 213 145 223 136 q 203 170 203 155 l 203 407 q 213 431 203 421 q 237 441 223 441 z "},"Ì":{"ha":339,"x_min":-136,"x_max":339,"o":"m 203 34 l 203 916 q 213 940 203 930 q 237 949 223 949 q 261 940 252 949 q 271 916 271 930 l 271 34 q 261 10 271 20 q 237 0 252 0 q 213 10 223 0 q 203 34 203 20 m 281 960 l 78 1163 q 68 1187 68 1173 q 78 1211 68 1201 q 102 1221 88 1221 q 126 1211 116 1221 l 330 1008 q 339 984 339 998 q 330 960 339 970 q 306 949 319 949 q 281 960 292 949 m 78 960 l -125 1163 q -136 1186 -136 1173 q -125 1211 -136 1200 q -101 1221 -115 1221 q -78 1211 -87 1221 l 125 1007 q 136 984 136 998 q 125 960 136 970 q 101 949 115 949 q 78 960 87 949 m 136 916 l 136 34 q 126 10 136 20 q 102 0 116 0 q 78 10 87 0 q 68 34 68 20 l 68 916 q 78 940 68 930 q 102 949 87 949 q 126 940 116 949 q 136 916 136 930 z "},"Í":{"ha":339,"x_min":0,"x_max":475,"o":"m 203 34 l 203 916 q 213 940 203 930 q 237 949 223 949 q 261 940 252 949 q 271 916 271 930 l 271 34 q 261 10 271 20 q 237 0 252 0 q 213 10 223 0 q 203 34 203 20 m 417 1211 q 440 1221 427 1221 q 465 1211 454 1221 q 475 1186 475 1200 q 465 1163 475 1173 l 261 960 q 238 949 252 949 q 214 960 224 949 q 203 984 203 970 q 214 1007 203 998 l 417 1211 m 213 1211 q 237 1221 223 1221 q 261 1211 251 1221 q 271 1187 271 1201 q 261 1163 271 1173 l 58 960 q 34 949 47 949 q 9 960 20 949 q 0 984 0 970 q 9 1008 0 998 l 213 1211 m 136 916 l 136 34 q 126 10 136 20 q 102 0 116 0 q 78 10 87 0 q 68 34 68 20 l 68 916 q 78 940 68 930 q 102 949 87 949 q 126 940 116 949 q 136 916 136 930 z "},"Î":{"ha":339,"x_min":-136,"x_max":475,"o":"m 204 1200 l 465 939 q 475 916 475 930 q 465 891 475 901 q 441 882 455 882 q 417 891 427 882 l 170 1139 l -78 891 q -102 882 -87 882 q -126 891 -116 882 q -136 916 -136 901 q -126 939 -136 930 l 146 1211 q 170 1221 155 1221 q 194 1211 184 1221 l 204 1200 m 271 916 l 271 34 q 261 10 271 20 q 237 0 252 0 q 213 10 223 0 q 203 34 203 20 l 203 901 l 170 935 l 136 901 l 136 34 q 126 10 136 20 q 102 0 116 0 q 78 10 87 0 q 68 34 68 20 l 68 916 q 78 940 68 930 l 146 1008 q 170 1017 155 1017 q 194 1008 184 1017 l 262 939 q 271 916 271 930 z "},"Ï":{"ha":339,"x_min":-136,"x_max":475,"o":"m 203 34 l 203 916 q 213 940 203 930 q 237 949 223 949 q 261 940 252 949 q 271 916 271 930 l 271 34 q 261 10 271 20 q 237 0 252 0 q 213 10 223 0 q 203 34 203 20 m 136 916 l 136 34 q 126 10 136 20 q 102 0 116 0 q 78 10 87 0 q 68 34 68 20 l 68 916 q 78 940 68 930 q 102 949 87 949 q 126 940 116 949 q 136 916 136 930 m 0 949 q -96 989 -56 949 q -136 1085 -136 1029 q -96 1181 -136 1141 q 0 1221 -56 1221 q 96 1181 56 1221 q 136 1085 136 1141 q 96 989 136 1029 q 0 949 56 949 m 0 1017 q 48 1037 28 1017 q 68 1085 68 1057 q 48 1133 68 1113 q 0 1153 28 1153 q -48 1133 -28 1153 q -68 1085 -68 1113 q -48 1037 -68 1057 q 0 1017 -28 1017 m 339 949 q 243 989 283 949 q 203 1085 203 1029 q 243 1181 203 1141 q 339 1221 283 1221 q 435 1181 395 1221 q 475 1085 475 1141 q 435 989 475 1029 q 339 949 395 949 m 339 1017 q 387 1037 367 1017 q 407 1085 407 1057 q 387 1133 407 1113 q 339 1153 367 1153 q 291 1133 311 1153 q 271 1085 271 1113 q 291 1037 271 1057 q 339 1017 311 1017 z "},"Ð":{"ha":1085,"x_min":68,"x_max":1017,"o":"m 339 441 l 576 441 q 601 431 591 441 q 610 407 610 421 q 601 383 610 393 q 576 373 591 373 l 407 373 l 407 203 l 543 203 q 734 283 655 203 q 814 475 814 362 q 734 667 814 587 q 543 746 655 746 l 407 746 l 407 576 l 576 576 q 601 567 591 576 q 610 543 610 557 q 601 518 610 528 q 576 509 591 509 l 339 509 l 339 780 q 349 804 339 794 q 373 814 359 814 l 543 814 q 782 714 683 814 q 882 475 882 615 q 782 235 882 334 q 543 136 683 136 l 373 136 q 349 145 359 136 q 339 170 339 155 l 339 441 m 203 373 l 102 373 q 78 383 87 373 q 68 407 68 393 q 78 431 68 421 q 102 441 87 441 l 271 441 l 271 68 l 543 68 q 830 187 711 68 q 949 475 949 306 q 830 763 949 644 q 543 882 711 882 l 271 882 l 271 509 l 102 509 q 78 518 87 509 q 68 543 68 528 q 78 567 68 557 q 102 576 87 576 l 203 576 l 203 916 q 213 940 203 930 q 237 949 223 949 l 543 949 q 878 810 739 949 q 1017 475 1017 671 q 878 139 1017 278 q 543 0 739 0 l 237 0 q 213 10 223 0 q 203 34 203 20 l 203 373 z "},"Ñ":{"ha":882,"x_min":68,"x_max":814,"o":"m 271 495 l 271 34 q 261 10 271 20 q 237 0 252 0 q 213 10 223 0 q 203 34 203 20 l 203 576 q 213 601 203 591 q 237 610 223 610 q 262 601 252 610 l 746 116 l 746 916 q 756 940 746 930 q 780 949 766 949 q 804 940 794 949 q 814 916 814 930 l 814 34 q 804 10 814 20 q 781 0 794 0 q 756 9 766 0 l 271 495 m 136 834 l 136 34 q 126 10 136 20 q 102 0 116 0 q 78 10 87 0 q 68 34 68 20 l 68 916 q 78 940 68 930 q 102 949 87 949 q 126 940 116 949 l 610 455 l 610 916 q 620 940 610 930 q 644 949 630 949 q 668 940 659 949 q 678 916 678 930 l 678 373 q 668 349 678 359 q 644 339 659 339 q 621 349 630 339 l 136 834 m 273 1076 q 297 1090 273 1076 q 407 1049 322 1103 q 534 1022 492 995 q 584 1049 576 1049 q 601 1039 591 1049 q 610 1015 610 1029 q 601 991 610 1001 q 541 954 591 981 q 407 981 492 927 q 280 1008 322 1036 q 230 981 237 981 q 213 991 223 981 q 203 1015 203 1001 q 213 1039 203 1029 q 273 1076 223 1049 m 541 1090 q 516 1076 541 1090 q 407 1117 492 1063 q 280 1144 322 1171 q 230 1117 237 1117 q 213 1127 223 1117 q 203 1151 203 1137 q 213 1175 203 1165 q 273 1212 223 1185 q 407 1185 322 1239 q 534 1158 492 1131 q 584 1185 576 1185 q 601 1175 591 1185 q 610 1151 610 1165 q 601 1127 610 1137 q 541 1090 591 1117 z "},"Ò":{"ha":1085,"x_min":68,"x_max":1017,"o":"m 543 0 q 207 139 346 0 q 68 475 68 278 q 207 810 68 671 q 543 949 346 949 q 878 810 739 949 q 1017 475 1017 671 q 878 139 1017 278 q 543 0 739 0 m 543 68 q 830 187 711 68 q 949 475 949 306 q 830 763 949 644 q 543 882 711 882 q 255 763 374 882 q 136 475 136 644 q 255 187 136 306 q 543 68 374 68 m 543 136 q 303 235 402 136 q 203 475 203 334 q 303 714 203 615 q 543 814 402 814 q 782 714 683 814 q 882 475 882 615 q 782 235 882 334 q 543 136 683 136 m 543 203 q 734 283 655 203 q 814 475 814 362 q 734 667 814 587 q 543 746 655 746 q 351 667 430 746 q 271 475 271 587 q 351 283 271 362 q 543 203 430 203 m 485 960 l 281 1163 q 271 1186 271 1173 q 281 1211 271 1200 q 306 1221 292 1221 q 329 1211 319 1221 l 532 1007 q 543 984 543 998 q 532 960 543 970 q 508 949 522 949 q 485 960 494 949 m 688 960 l 485 1163 q 475 1187 475 1173 q 485 1211 475 1201 q 509 1221 495 1221 q 533 1211 523 1221 l 736 1008 q 746 984 746 998 q 736 960 746 970 q 712 949 726 949 q 688 960 699 949 z "},"Ó":{"ha":1085,"x_min":68,"x_max":1017,"o":"m 543 0 q 207 139 346 0 q 68 475 68 278 q 207 810 68 671 q 543 949 346 949 q 878 810 739 949 q 1017 475 1017 671 q 878 139 1017 278 q 543 0 739 0 m 543 68 q 830 187 711 68 q 949 475 949 306 q 830 763 949 644 q 543 882 711 882 q 255 763 374 882 q 136 475 136 644 q 255 187 136 306 q 543 68 374 68 m 543 136 q 303 235 402 136 q 203 475 203 334 q 303 714 203 615 q 543 814 402 814 q 782 714 683 814 q 882 475 882 615 q 782 235 882 334 q 543 136 683 136 m 543 203 q 734 283 655 203 q 814 475 814 362 q 734 667 814 587 q 543 746 655 746 q 351 667 430 746 q 271 475 271 587 q 351 283 271 362 q 543 203 430 203 m 553 1211 q 576 1221 562 1221 q 600 1211 590 1221 q 610 1187 610 1201 q 600 1163 610 1173 l 397 960 q 373 949 387 949 q 349 960 359 949 q 339 984 339 970 q 349 1008 339 998 l 553 1211 m 756 1211 q 780 1221 766 1221 q 804 1211 794 1221 q 814 1186 814 1200 q 804 1163 814 1173 l 601 960 q 577 949 591 949 q 553 960 563 949 q 543 984 543 970 q 553 1007 543 998 l 756 1211 z "},"Ô":{"ha":1085,"x_min":68,"x_max":1017,"o":"m 543 203 q 734 283 655 203 q 814 475 814 362 q 734 667 814 587 q 543 746 655 746 q 351 667 430 746 q 271 475 271 587 q 351 283 271 362 q 543 203 430 203 m 543 136 q 303 235 402 136 q 203 475 203 334 q 303 714 203 615 q 543 814 402 814 q 782 714 683 814 q 882 475 882 615 q 782 235 882 334 q 543 136 683 136 m 610 876 q 587 891 596 878 l 543 935 l 499 892 q 475 876 489 878 q 255 763 349 857 q 136 475 136 644 q 255 187 136 306 q 543 68 374 68 q 830 187 711 68 q 949 475 949 306 q 831 763 949 644 q 610 876 736 857 m 453 942 l 519 1008 q 543 1017 528 1017 q 567 1008 557 1017 l 632 942 q 878 810 772 917 q 1017 475 1017 671 q 878 139 1017 278 q 543 0 739 0 q 207 139 346 0 q 68 475 68 278 q 207 810 68 671 q 453 942 313 917 m 577 1200 l 838 939 q 848 916 848 930 q 838 891 848 901 q 814 882 828 882 q 790 891 800 882 l 543 1139 l 295 891 q 271 882 286 882 q 247 891 257 882 q 237 916 237 901 q 247 939 237 930 l 519 1211 q 543 1221 528 1221 q 567 1211 557 1221 l 577 1200 z "},"Õ":{"ha":1085,"x_min":68,"x_max":1017,"o":"m 543 203 q 734 283 655 203 q 814 475 814 362 q 734 667 814 587 q 543 746 655 746 q 351 667 430 746 q 271 475 271 587 q 351 283 271 362 q 543 203 430 203 m 543 136 q 303 235 402 136 q 203 475 203 334 q 303 714 203 615 q 543 814 402 814 q 782 714 683 814 q 882 475 882 615 q 782 235 882 334 q 543 136 683 136 m 543 68 q 830 187 711 68 q 949 475 949 306 q 830 763 949 644 q 543 882 711 882 q 255 763 374 882 q 136 475 136 644 q 255 187 136 306 q 543 68 374 68 m 543 0 q 207 139 346 0 q 68 475 68 278 q 207 810 68 671 q 543 949 346 949 q 878 810 739 949 q 1017 475 1017 671 q 878 139 1017 278 q 543 0 739 0 m 543 1117 q 415 1144 458 1171 q 366 1117 373 1117 q 349 1127 359 1117 q 339 1151 339 1137 q 349 1175 339 1165 q 408 1212 359 1185 q 543 1185 458 1239 q 670 1158 627 1131 q 719 1185 712 1185 q 736 1175 726 1185 q 746 1151 746 1165 q 736 1127 746 1137 q 677 1090 726 1117 q 543 1117 627 1063 m 543 1049 q 670 1022 627 995 q 719 1049 712 1049 q 736 1039 726 1049 q 746 1015 746 1029 q 736 991 746 1001 q 677 954 726 981 q 543 981 627 927 q 415 1008 458 1036 q 366 981 373 981 q 349 991 359 981 q 339 1015 339 1001 q 349 1039 339 1029 q 408 1076 359 1049 q 543 1049 458 1103 z "},"Ö":{"ha":1085,"x_min":68,"x_max":1017,"o":"m 543 0 q 207 139 346 0 q 68 475 68 278 q 207 810 68 671 q 543 949 346 949 q 878 810 739 949 q 1017 475 1017 671 q 878 139 1017 278 q 543 0 739 0 m 543 68 q 830 187 711 68 q 949 475 949 306 q 830 763 949 644 q 543 882 711 882 q 255 763 374 882 q 136 475 136 644 q 255 187 136 306 q 543 68 374 68 m 543 136 q 303 235 402 136 q 203 475 203 334 q 303 714 203 615 q 543 814 402 814 q 782 714 683 814 q 882 475 882 615 q 782 235 882 334 q 543 136 683 136 m 543 203 q 734 283 655 203 q 814 475 814 362 q 734 667 814 587 q 543 746 655 746 q 351 667 430 746 q 271 475 271 587 q 351 283 271 362 q 543 203 430 203 m 373 949 q 277 989 317 949 q 237 1085 237 1029 q 277 1181 237 1141 q 373 1221 317 1221 q 469 1181 429 1221 q 509 1085 509 1141 q 469 989 509 1029 q 373 949 429 949 m 373 1017 q 421 1037 401 1017 q 441 1085 441 1057 q 421 1133 441 1113 q 373 1153 401 1153 q 325 1133 345 1153 q 305 1085 305 1113 q 325 1037 305 1057 q 373 1017 345 1017 m 712 949 q 616 989 656 949 q 576 1085 576 1029 q 616 1181 576 1141 q 712 1221 656 1221 q 808 1181 768 1221 q 848 1085 848 1141 q 808 989 848 1029 q 712 949 768 949 m 712 1017 q 760 1037 740 1017 q 780 1085 780 1057 q 760 1133 780 1113 q 712 1153 740 1153 q 664 1133 684 1153 q 644 1085 644 1113 q 664 1037 644 1057 q 712 1017 684 1017 z "},"×":{"ha":610,"x_min":73,"x_max":538,"o":"m 432 300 q 442 276 442 290 q 432 252 442 262 q 408 242 422 242 q 384 252 394 242 l 305 331 l 227 252 q 202 242 216 242 q 178 252 189 242 q 168 276 168 262 q 178 300 168 290 l 305 427 l 432 300 m 131 602 l 257 475 l 131 348 q 107 338 121 338 q 83 348 93 338 q 73 372 73 358 q 83 396 73 386 l 161 475 l 83 553 q 73 577 73 564 q 83 602 73 591 q 107 612 93 612 q 131 602 121 612 m 432 649 l 305 523 l 178 649 q 168 673 168 659 q 178 697 168 687 q 202 707 189 707 q 227 697 216 707 l 305 618 l 384 697 q 408 707 394 707 q 432 697 422 707 q 442 673 442 687 q 432 649 442 659 m 479 348 l 353 475 l 479 602 q 504 612 490 612 q 528 602 517 612 q 538 577 538 591 q 528 553 538 564 l 449 475 l 528 396 q 538 372 538 386 q 528 348 538 358 q 504 338 517 338 q 479 348 490 338 z "},"Ø":{"ha":1085,"x_min":68,"x_max":1017,"o":"m 290 72 l 228 10 q 203 0 218 0 q 179 10 189 0 q 170 34 170 20 q 180 58 170 48 l 283 161 q 339 121 310 138 q 543 68 430 68 q 830 187 711 68 q 949 475 949 306 q 896 678 949 587 q 856 734 879 707 l 960 838 q 983 848 969 848 q 1007 838 998 848 q 1017 814 1017 828 q 1008 790 1017 800 l 945 728 q 1017 475 1017 616 q 878 139 1017 278 q 543 0 739 0 q 290 72 401 0 m 808 686 q 846 628 830 659 q 882 475 882 559 q 782 235 882 334 q 543 136 683 136 q 389 172 458 136 q 331 210 359 187 l 808 686 m 795 577 l 440 222 q 543 203 488 203 q 734 283 655 203 q 814 475 814 362 q 795 577 814 530 m 795 878 l 857 939 q 882 949 867 949 q 906 940 896 949 q 916 916 916 930 q 905 891 916 901 l 802 788 q 746 828 775 811 q 543 882 655 882 q 255 763 374 882 q 136 475 136 644 q 189 271 136 362 q 229 215 206 242 l 125 111 q 102 102 116 102 q 78 112 87 102 q 68 136 68 121 q 77 159 68 150 l 140 222 q 68 475 68 333 q 207 810 68 671 q 543 949 346 949 q 795 878 684 949 m 277 263 q 239 321 255 291 q 203 475 203 391 q 303 714 203 615 q 543 814 402 814 q 696 778 627 814 q 754 740 726 762 l 277 263 m 290 372 l 645 727 q 543 746 597 746 q 351 667 430 746 q 271 475 271 587 q 290 372 271 420 z "},"Ù":{"ha":814,"x_min":68,"x_max":746,"o":"m 543 916 q 552 940 543 930 q 576 949 562 949 q 601 940 591 949 q 610 916 610 930 l 610 339 q 551 195 610 255 q 407 136 491 136 q 263 195 323 136 q 203 339 203 255 l 203 916 q 213 940 203 930 q 237 949 223 949 q 261 940 252 949 q 271 916 271 930 l 271 339 q 311 243 271 283 q 407 203 351 203 q 503 243 463 203 q 543 339 543 283 l 543 916 m 553 960 l 349 1163 q 339 1187 339 1173 q 349 1211 339 1201 q 373 1221 359 1221 q 397 1211 387 1221 l 601 1008 q 610 984 610 998 q 601 960 610 970 q 577 949 591 949 q 553 960 563 949 m 349 960 l 146 1163 q 136 1186 136 1173 q 146 1211 136 1200 q 170 1221 156 1221 q 193 1211 184 1221 l 397 1007 q 407 984 407 998 q 397 960 407 970 q 373 949 387 949 q 349 960 359 949 m 678 916 q 688 940 678 930 q 712 949 698 949 q 736 940 726 949 q 746 916 746 930 l 746 339 q 647 99 746 199 q 407 0 547 0 q 167 99 267 0 q 68 339 68 199 l 68 916 q 78 940 68 930 q 102 949 87 949 q 126 940 116 949 q 136 916 136 930 l 136 339 q 215 147 136 227 q 407 68 294 68 q 599 147 519 68 q 678 339 678 227 l 678 916 z "},"Ú":{"ha":814,"x_min":68,"x_max":746,"o":"m 543 916 q 552 940 543 930 q 576 949 562 949 q 601 940 591 949 q 610 916 610 930 l 610 339 q 551 195 610 255 q 407 136 491 136 q 263 195 323 136 q 203 339 203 255 l 203 916 q 213 940 203 930 q 237 949 223 949 q 261 940 252 949 q 271 916 271 930 l 271 339 q 311 243 271 283 q 407 203 351 203 q 503 243 463 203 q 543 339 543 283 l 543 916 m 621 1211 q 644 1221 630 1221 q 668 1211 658 1221 q 678 1186 678 1200 q 668 1163 678 1173 l 465 960 q 441 949 455 949 q 417 960 427 949 q 407 984 407 970 q 417 1007 407 998 l 621 1211 m 416 1211 q 440 1221 427 1221 q 465 1211 454 1221 q 475 1187 475 1201 q 465 1163 475 1173 l 261 960 q 237 949 251 949 q 213 960 223 949 q 203 984 203 970 q 213 1008 203 998 l 416 1211 m 678 916 q 688 940 678 930 q 712 949 698 949 q 736 940 726 949 q 746 916 746 930 l 746 339 q 647 99 746 199 q 407 0 547 0 q 167 99 267 0 q 68 339 68 199 l 68 916 q 78 940 68 930 q 102 949 87 949 q 126 940 116 949 q 136 916 136 930 l 136 339 q 215 147 136 227 q 407 68 294 68 q 599 147 519 68 q 678 339 678 227 l 678 916 z "},"Û":{"ha":814,"x_min":68,"x_max":746,"o":"m 407 1017 q 431 1008 421 1017 l 499 939 q 509 916 509 930 q 499 891 509 901 q 475 882 489 882 q 451 891 460 882 l 407 935 l 363 892 q 339 882 353 882 q 315 891 325 882 q 305 916 305 901 q 315 940 305 930 l 383 1008 q 407 1017 393 1017 m 441 1200 l 703 939 q 712 916 712 930 q 702 891 712 901 q 678 882 692 882 q 654 891 664 882 l 407 1139 l 159 891 q 136 882 150 882 q 112 891 121 882 q 102 916 102 901 q 111 939 102 930 l 383 1211 q 407 1221 393 1221 q 431 1211 421 1221 l 441 1200 m 543 814 q 552 838 543 828 q 576 848 562 848 q 601 838 591 848 q 610 814 610 828 l 610 339 q 551 195 610 255 q 407 136 491 136 q 263 195 323 136 q 203 339 203 255 l 203 814 q 213 838 203 828 q 237 848 223 848 q 261 838 252 848 q 271 814 271 828 l 271 339 q 311 243 271 283 q 407 203 351 203 q 503 243 463 203 q 543 339 543 283 l 543 814 m 678 814 q 688 838 678 828 q 712 848 698 848 q 736 838 726 848 q 746 814 746 828 l 746 339 q 647 99 746 199 q 407 0 547 0 q 167 99 267 0 q 68 339 68 199 l 68 814 q 78 838 68 828 q 102 848 87 848 q 126 838 116 848 q 136 814 136 828 l 136 339 q 215 147 136 227 q 407 68 294 68 q 599 147 519 68 q 678 339 678 227 l 678 814 z "},"Ü":{"ha":814,"x_min":68,"x_max":746,"o":"m 237 949 q 141 989 181 949 q 102 1085 102 1029 q 141 1181 102 1141 q 237 1221 181 1221 q 333 1181 294 1221 q 373 1085 373 1141 q 333 989 373 1029 q 237 949 294 949 m 237 1017 q 285 1037 265 1017 q 305 1085 305 1057 q 285 1133 305 1113 q 237 1153 265 1153 q 190 1133 210 1153 q 170 1085 170 1113 q 190 1037 170 1057 q 237 1017 210 1017 m 576 949 q 480 989 520 949 q 441 1085 441 1029 q 480 1181 441 1141 q 576 1221 520 1221 q 672 1181 633 1221 q 712 1085 712 1141 q 672 989 712 1029 q 576 949 633 949 m 576 1017 q 624 1037 604 1017 q 644 1085 644 1057 q 624 1133 644 1113 q 576 1153 604 1153 q 529 1133 549 1153 q 509 1085 509 1113 q 529 1037 509 1057 q 576 1017 549 1017 m 543 882 q 552 906 543 896 q 576 916 562 916 q 601 906 591 916 q 610 882 610 896 l 610 339 q 551 195 610 255 q 407 136 491 136 q 263 195 323 136 q 203 339 203 255 l 203 882 q 213 906 203 896 q 237 916 223 916 q 261 906 252 916 q 271 882 271 896 l 271 339 q 311 243 271 283 q 407 203 351 203 q 503 243 463 203 q 543 339 543 283 l 543 882 m 678 882 q 688 906 678 896 q 712 916 698 916 q 736 906 726 916 q 746 882 746 896 l 746 339 q 647 99 746 199 q 407 0 547 0 q 167 99 267 0 q 68 339 68 199 l 68 882 q 78 906 68 896 q 102 916 87 916 q 126 906 116 916 q 136 882 136 896 l 136 339 q 215 147 136 227 q 407 68 294 68 q 599 147 519 68 q 678 339 678 227 l 678 882 z "},"Ý":{"ha":1017,"x_min":0,"x_max":1017,"o":"m 610 494 l 610 34 q 601 10 610 20 q 576 0 591 0 q 552 10 562 0 q 543 34 543 20 l 543 509 q 552 532 543 523 l 960 940 q 983 949 969 949 q 1007 940 998 949 q 1017 916 1017 930 q 1008 892 1017 901 l 610 494 m 214 892 q 203 916 203 901 q 213 940 203 930 q 237 949 223 949 q 262 940 252 949 l 509 692 l 756 940 q 780 949 766 949 q 804 940 794 949 q 814 916 814 930 q 804 892 814 901 l 533 621 q 509 610 523 610 q 485 620 494 610 l 214 892 m 407 494 l 9 892 q 0 916 0 901 q 10 940 0 930 q 34 949 20 949 q 58 940 48 949 l 465 532 q 475 509 475 523 l 475 34 q 465 10 475 20 q 441 0 455 0 q 417 10 427 0 q 407 34 407 20 l 407 494 m 553 1211 q 576 1221 562 1221 q 600 1211 590 1221 q 610 1187 610 1201 q 600 1163 610 1173 l 397 960 q 373 949 387 949 q 349 960 359 949 q 339 984 339 970 q 349 1008 339 998 l 553 1211 m 756 1211 q 780 1221 766 1221 q 804 1211 794 1221 q 814 1186 814 1200 q 804 1163 814 1173 l 601 960 q 577 949 591 949 q 553 960 563 949 q 543 984 543 970 q 553 1007 543 998 l 756 1211 z "},"Þ":{"ha":882,"x_min":68,"x_max":814,"o":"m 678 475 q 618 331 678 391 q 475 271 559 271 l 237 271 q 213 281 223 271 q 203 305 203 291 l 203 644 q 213 668 203 659 q 237 678 223 678 l 475 678 q 618 618 559 678 q 678 475 678 559 m 136 34 q 126 10 136 20 q 102 0 116 0 q 78 10 87 0 q 68 34 68 20 l 68 916 q 78 940 68 930 q 102 949 87 949 q 126 940 116 949 q 136 916 136 930 l 136 34 m 814 475 q 714 235 814 334 q 475 136 615 136 l 271 136 l 271 34 q 261 10 271 20 q 237 0 252 0 q 213 10 223 0 q 203 34 203 20 l 203 170 q 213 194 203 184 q 237 203 223 203 l 475 203 q 667 283 587 203 q 746 475 746 362 q 667 667 746 587 q 475 746 587 746 l 237 746 q 213 756 223 746 q 203 780 203 766 l 203 916 q 213 940 203 930 q 237 949 223 949 q 261 940 252 949 q 271 916 271 930 l 271 814 l 475 814 q 714 714 615 814 q 814 475 814 615 m 271 339 l 475 339 q 571 379 531 339 q 610 475 610 418 q 571 571 610 531 q 475 610 531 610 l 271 610 l 271 339 z "},"ß":{"ha":814,"x_min":68,"x_max":746,"o":"m 441 407 l 373 407 q 349 417 359 407 q 339 441 339 427 q 349 465 339 455 q 373 475 359 475 l 441 475 q 561 425 511 475 q 610 305 610 376 q 561 185 610 235 q 441 136 511 136 l 373 136 q 349 145 359 136 q 339 170 339 155 q 349 194 339 184 q 373 203 359 203 l 441 203 q 513 233 483 203 q 543 305 543 263 q 513 377 543 347 q 441 407 483 407 m 407 949 l 441 949 q 633 870 553 949 q 712 678 712 791 q 660 517 712 587 q 746 305 746 429 q 656 90 746 179 q 441 0 567 0 l 373 0 q 349 10 359 0 q 339 34 339 20 q 349 58 339 48 q 373 68 359 68 l 441 68 q 609 137 539 68 q 678 305 678 207 q 613 469 678 400 q 608 562 570 512 q 644 678 644 612 q 585 822 644 762 q 441 882 525 882 l 407 882 q 215 802 294 882 q 136 610 136 723 l 136 34 q 126 10 136 20 q 102 0 116 0 q 78 10 87 0 q 68 34 68 20 l 68 610 q 167 850 68 751 q 407 949 267 949 m 407 814 l 441 814 q 537 774 497 814 q 576 678 576 734 q 537 582 576 622 q 441 543 497 543 l 373 543 q 349 552 359 543 q 339 576 339 562 q 349 601 339 591 q 373 610 359 610 l 441 610 q 489 630 469 610 q 509 678 509 650 q 489 726 509 706 q 441 746 469 746 l 407 746 q 311 706 351 746 q 271 610 271 667 l 271 34 q 261 10 271 20 q 237 0 252 0 q 213 10 223 0 q 203 34 203 20 l 203 610 q 263 754 203 694 q 407 814 323 814 z "},"à":{"ha":1017,"x_min":0,"x_max":949,"o":"m 882 833 l 58 10 q 34 0 48 0 q 10 10 20 0 q 0 34 0 20 q 10 58 0 48 l 892 940 q 916 949 901 949 q 940 940 930 949 q 949 916 949 930 l 949 34 q 940 10 949 20 q 916 0 930 0 l 576 0 q 552 10 562 0 q 543 34 543 20 q 552 58 543 48 q 576 68 562 68 l 882 68 l 882 833 m 780 136 l 576 136 q 552 145 562 136 q 543 170 543 155 q 552 194 543 184 q 576 203 562 203 l 746 203 l 746 494 l 262 10 q 237 0 252 0 q 213 10 223 0 q 203 34 203 20 q 214 58 203 48 l 756 601 q 780 610 766 610 q 804 601 794 610 q 814 576 814 591 l 814 170 q 804 145 814 155 q 780 136 794 136 m 553 892 l 349 1095 q 339 1119 339 1105 q 349 1143 339 1133 q 373 1153 359 1153 q 397 1143 387 1153 l 600 939 q 610 916 610 930 q 600 892 610 902 q 576 882 590 882 q 553 892 562 882 m 756 892 l 553 1095 q 543 1119 543 1105 q 553 1143 543 1133 q 577 1153 563 1153 q 601 1143 591 1153 l 804 940 q 814 916 814 930 q 804 892 814 902 q 780 882 794 882 q 756 892 766 882 z "},"á":{"ha":1017,"x_min":0,"x_max":949,"o":"m 882 833 l 58 10 q 34 0 48 0 q 10 10 20 0 q 0 34 0 20 q 10 58 0 48 l 892 940 q 916 949 901 949 q 940 940 930 949 q 949 916 949 930 l 949 34 q 940 10 949 20 q 916 0 930 0 l 576 0 q 552 10 562 0 q 543 34 543 20 q 552 58 543 48 q 576 68 562 68 l 882 68 l 882 833 m 780 136 l 576 136 q 552 145 562 136 q 543 170 543 155 q 552 194 543 184 q 576 203 562 203 l 746 203 l 746 494 l 262 10 q 237 0 252 0 q 213 10 223 0 q 203 34 203 20 q 214 58 203 48 l 756 601 q 780 610 766 610 q 804 601 794 610 q 814 576 814 591 l 814 170 q 804 145 814 155 q 780 136 794 136 m 620 1143 q 644 1153 630 1153 q 668 1143 658 1153 q 678 1119 678 1133 q 668 1095 678 1105 l 465 892 q 440 882 454 882 q 416 892 427 882 q 407 916 407 902 q 416 940 407 930 l 620 1143 m 824 1143 q 847 1153 833 1153 q 871 1143 861 1153 q 882 1119 882 1133 q 871 1095 882 1105 l 668 892 q 645 882 659 882 q 621 892 631 882 q 610 916 610 902 q 621 939 610 930 l 824 1143 z "},"â":{"ha":1017,"x_min":0,"x_max":949,"o":"m 882 833 l 58 10 q 34 0 48 0 q 10 10 20 0 q 0 34 0 20 q 10 58 0 48 l 892 940 q 916 949 901 949 q 940 940 930 949 q 949 916 949 930 l 949 34 q 940 10 949 20 q 916 0 930 0 l 576 0 q 552 10 562 0 q 543 34 543 20 q 552 58 543 48 q 576 68 562 68 l 882 68 l 882 833 m 780 136 l 576 136 q 552 145 562 136 q 543 170 543 155 q 552 194 543 184 q 576 203 562 203 l 746 203 l 746 494 l 262 10 q 237 0 252 0 q 213 10 223 0 q 203 34 203 20 q 214 58 203 48 l 756 601 q 780 610 766 610 q 804 601 794 610 q 814 576 814 591 l 814 170 q 804 145 814 155 q 780 136 794 136 m 441 949 q 465 940 455 949 l 533 871 q 543 848 543 862 q 533 824 543 833 q 509 814 523 814 q 485 823 494 814 l 441 867 l 397 824 q 373 814 387 814 q 349 824 359 814 q 339 848 339 833 q 349 872 339 862 l 417 940 q 441 949 427 949 m 475 1133 l 736 871 q 746 848 746 862 q 736 824 746 833 q 712 814 726 814 q 688 823 698 814 l 441 1072 l 193 823 q 170 814 184 814 q 145 824 155 814 q 136 848 136 833 q 145 871 136 862 l 417 1143 q 441 1153 427 1153 q 465 1143 455 1153 l 475 1133 z "},"ã":{"ha":1017,"x_min":0,"x_max":949,"o":"m 882 833 l 58 10 q 34 0 48 0 q 10 10 20 0 q 0 34 0 20 q 10 58 0 48 l 892 940 q 916 949 901 949 q 940 940 930 949 q 949 916 949 930 l 949 34 q 940 10 949 20 q 916 0 930 0 l 576 0 q 552 10 562 0 q 543 34 543 20 q 552 58 543 48 q 576 68 562 68 l 882 68 l 882 833 m 780 136 l 576 136 q 552 145 562 136 q 543 170 543 155 q 552 194 543 184 q 576 203 562 203 l 746 203 l 746 494 l 262 10 q 237 0 252 0 q 213 10 223 0 q 203 34 203 20 q 214 58 203 48 l 756 601 q 780 610 766 610 q 804 601 794 610 q 814 576 814 591 l 814 170 q 804 145 814 155 q 780 136 794 136 m 476 1013 q 501 1026 476 1013 q 610 985 526 1040 q 738 958 695 931 q 787 985 780 985 q 804 976 794 985 q 814 951 814 966 q 804 927 814 937 q 745 890 794 918 q 610 918 695 863 q 483 945 526 972 q 434 918 441 918 q 417 927 427 918 q 407 951 407 937 q 417 976 407 966 q 476 1013 427 985 m 745 1026 q 720 1013 745 1026 q 610 1053 695 999 q 483 1080 526 1107 q 434 1053 441 1053 q 417 1063 427 1053 q 407 1087 407 1073 q 417 1111 407 1101 q 476 1148 427 1121 q 610 1121 526 1175 q 738 1094 695 1067 q 787 1121 780 1121 q 804 1111 794 1121 q 814 1087 814 1101 q 804 1063 814 1073 q 745 1026 794 1053 z "},"ä":{"ha":1017,"x_min":0,"x_max":949,"o":"m 882 833 l 58 10 q 34 0 48 0 q 10 10 20 0 q 0 34 0 20 q 10 58 0 48 l 892 940 q 916 949 901 949 q 940 940 930 949 q 949 916 949 930 l 949 34 q 940 10 949 20 q 916 0 930 0 l 576 0 q 552 10 562 0 q 543 34 543 20 q 552 58 543 48 q 576 68 562 68 l 882 68 l 882 833 m 780 136 l 576 136 q 552 145 562 136 q 543 170 543 155 q 552 194 543 184 q 576 203 562 203 l 746 203 l 746 494 l 262 10 q 237 0 252 0 q 213 10 223 0 q 203 34 203 20 q 214 58 203 48 l 756 601 q 780 610 766 610 q 804 601 794 610 q 814 576 814 591 l 814 170 q 804 145 814 155 q 780 136 794 136 m 339 882 q 243 921 283 882 q 203 1017 203 961 q 243 1113 203 1074 q 339 1153 283 1153 q 435 1113 395 1153 q 475 1017 475 1074 q 435 921 475 961 q 339 882 395 882 m 339 949 q 387 969 367 949 q 407 1017 407 989 q 387 1065 407 1045 q 339 1085 367 1085 q 291 1065 311 1085 q 271 1017 271 1045 q 291 969 271 989 q 339 949 311 949 m 678 882 q 582 921 622 882 q 543 1017 543 961 q 582 1113 543 1074 q 678 1153 622 1153 q 774 1113 734 1153 q 814 1017 814 1074 q 774 921 814 961 q 678 882 734 882 m 678 949 q 726 969 706 949 q 746 1017 746 989 q 726 1065 746 1045 q 678 1085 706 1085 q 630 1065 650 1085 q 610 1017 610 1045 q 630 969 610 989 q 678 949 650 949 z "},"å":{"ha":1017,"x_min":0,"x_max":949,"o":"m 882 833 l 58 10 q 34 0 48 0 q 10 10 20 0 q 0 34 0 20 q 10 58 0 48 l 892 940 q 916 949 901 949 q 940 940 930 949 q 949 916 949 930 l 949 34 q 940 10 949 20 q 916 0 930 0 l 576 0 q 552 10 562 0 q 543 34 543 20 q 552 58 543 48 q 576 68 562 68 l 882 68 l 882 833 m 780 136 l 576 136 q 552 145 562 136 q 543 170 543 155 q 552 194 543 184 q 576 203 562 203 l 746 203 l 746 494 l 262 10 q 237 0 252 0 q 213 10 223 0 q 203 34 203 20 q 214 58 203 48 l 756 601 q 780 610 766 610 q 804 601 794 610 q 814 576 814 591 l 814 170 q 804 145 814 155 q 780 136 794 136 m 373 610 q 205 680 275 610 q 136 848 136 749 q 205 1016 136 946 q 373 1085 275 1085 q 541 1016 471 1085 q 610 848 610 946 q 541 680 610 749 q 373 610 471 610 m 373 678 q 493 728 444 678 q 543 848 543 777 q 493 968 543 918 q 373 1017 444 1017 q 253 968 302 1017 q 203 848 203 918 q 253 728 203 777 q 373 678 302 678 m 373 746 q 301 776 331 746 q 271 848 271 806 q 301 920 271 890 q 373 949 331 949 q 445 920 415 949 q 475 848 475 890 q 445 776 475 806 q 373 746 415 746 m 373 814 q 397 824 387 814 q 407 848 407 833 q 397 872 407 862 q 373 882 387 882 q 349 872 359 882 q 339 848 339 862 q 349 824 339 833 q 373 814 359 814 z "},"æ":{"ha":1560,"x_min":0,"x_max":1492,"o":"m 1051 814 l 1458 814 q 1482 804 1472 814 q 1492 780 1492 794 q 1482 756 1492 766 q 1458 746 1472 746 l 1085 746 l 1085 576 l 1458 576 q 1482 567 1472 576 q 1492 543 1492 557 q 1482 518 1492 528 q 1458 509 1472 509 l 1051 509 q 1027 518 1037 509 q 1017 543 1017 528 l 1017 780 q 1027 804 1017 794 q 1051 814 1037 814 m 780 136 l 576 136 q 552 145 562 136 q 543 170 543 155 q 552 194 543 184 q 576 203 562 203 l 746 203 l 746 494 l 262 10 q 237 0 252 0 q 213 10 223 0 q 203 34 203 20 q 214 58 203 48 l 756 601 q 780 610 766 610 q 804 601 794 610 q 814 576 814 591 l 814 170 q 804 145 814 155 q 780 136 794 136 m 576 0 q 552 10 562 0 q 543 34 543 20 q 552 58 543 48 q 576 68 562 68 l 882 68 l 882 833 l 58 10 q 34 0 48 0 q 10 10 20 0 q 0 34 0 20 q 10 58 0 48 l 892 940 q 916 949 901 949 l 1458 949 q 1482 940 1472 949 q 1492 916 1492 930 q 1482 891 1492 901 q 1458 882 1472 882 l 949 882 l 949 68 l 1458 68 q 1482 58 1472 68 q 1492 34 1492 48 q 1482 10 1492 20 q 1458 0 1472 0 l 576 0 m 1051 441 l 1458 441 q 1482 431 1472 441 q 1492 407 1492 421 q 1482 383 1492 393 q 1458 373 1472 373 l 1085 373 l 1085 203 l 1458 203 q 1482 194 1472 203 q 1492 170 1492 184 q 1482 145 1492 155 q 1458 136 1472 136 l 1051 136 q 1027 145 1037 136 q 1017 170 1017 155 l 1017 407 q 1027 431 1017 421 q 1051 441 1037 441 z "},"ç":{"ha":1017,"x_min":68,"x_max":949,"o":"m 203 475 q 303 714 203 615 q 543 814 402 814 q 783 716 682 814 l 851 648 q 861 624 861 638 q 851 600 861 610 q 827 590 841 590 q 803 600 813 590 l 734 667 q 543 746 655 746 q 351 667 430 746 q 271 475 271 587 q 351 283 271 362 q 543 203 430 203 q 734 283 655 203 l 803 349 q 827 359 813 359 q 851 349 841 359 q 861 325 861 339 q 851 301 861 311 l 783 233 q 543 136 682 136 q 303 235 402 136 q 203 475 203 334 m 432 12 q 207 139 305 41 q 68 475 68 278 q 207 810 68 671 q 543 949 346 949 q 877 812 739 949 l 939 750 q 949 726 949 740 q 939 702 949 712 q 915 692 929 692 q 891 702 901 692 l 830 762 q 543 882 711 882 q 255 763 374 882 q 136 475 136 644 q 255 187 136 306 q 534 68 370 71 q 548 68 541 68 q 830 187 713 70 l 891 248 q 915 258 901 258 q 939 248 929 258 q 949 223 949 237 q 939 199 949 210 l 877 138 q 652 12 779 41 q 659 3 656 7 q 674 -100 688 -45 l 637 -245 q 622 -266 634 -258 q 597 -270 610 -273 q 575 -255 583 -267 q 572 -229 568 -243 l 608 -84 q 600 -33 614 -57 q 558 -2 585 -9 q 545 0 551 0 l 538 0 q 507 -10 522 -1 q 476 -52 483 -25 q 485 -103 470 -79 q 526 -134 499 -127 l 498 -239 q 483 -260 495 -253 q 457 -264 471 -267 q 436 -249 444 -260 q 433 -223 429 -237 l 448 -166 q 427 -138 436 -154 q 410 -36 397 -90 q 432 12 417 -9 z "},"è":{"ha":746,"x_min":68,"x_max":678,"o":"m 237 441 l 644 441 q 668 431 659 441 q 678 407 678 421 q 668 383 678 393 q 644 373 659 373 l 271 373 l 271 203 l 644 203 q 668 194 659 203 q 678 170 678 184 q 668 145 678 155 q 644 136 659 136 l 237 136 q 213 145 223 136 q 203 170 203 155 l 203 407 q 213 431 203 421 q 237 441 223 441 m 136 882 l 136 68 l 644 68 q 668 58 659 68 q 678 34 678 48 q 668 10 678 20 q 644 0 659 0 l 102 0 q 78 10 87 0 q 68 34 68 20 l 68 916 q 78 940 68 930 q 102 949 87 949 l 292 949 l 146 1095 q 136 1119 136 1105 q 146 1143 136 1133 q 170 1153 156 1153 q 193 1143 184 1153 l 387 949 l 495 949 l 349 1095 q 339 1119 339 1105 q 349 1143 339 1133 q 373 1153 359 1153 q 397 1143 387 1153 l 591 949 l 644 949 q 668 940 659 949 q 678 916 678 930 q 668 891 678 901 q 644 882 659 882 l 136 882 m 237 814 l 644 814 q 668 804 659 814 q 678 780 678 794 q 668 756 678 766 q 644 746 659 746 l 271 746 l 271 576 l 644 576 q 668 567 659 576 q 678 543 678 557 q 668 518 678 528 q 644 509 659 509 l 237 509 q 213 518 223 509 q 203 543 203 528 l 203 780 q 213 804 203 794 q 237 814 223 814 z "},"é":{"ha":746,"x_min":68,"x_max":678,"o":"m 237 441 l 644 441 q 668 431 659 441 q 678 407 678 421 q 668 383 678 393 q 644 373 659 373 l 271 373 l 271 203 l 644 203 q 668 194 659 203 q 678 170 678 184 q 668 145 678 155 q 644 136 659 136 l 237 136 q 213 145 223 136 q 203 170 203 155 l 203 407 q 213 431 203 421 q 237 441 223 441 m 136 882 l 136 68 l 644 68 q 668 58 659 68 q 678 34 678 48 q 668 10 678 20 q 644 0 659 0 l 102 0 q 78 10 87 0 q 68 34 68 20 l 68 916 q 78 940 68 930 q 102 949 87 949 l 155 949 l 349 1143 q 373 1153 359 1153 q 397 1143 387 1153 q 407 1119 407 1133 q 397 1095 407 1105 l 251 949 l 359 949 l 553 1143 q 576 1153 562 1153 q 600 1143 590 1153 q 610 1119 610 1133 q 600 1095 610 1105 l 454 949 l 644 949 q 668 940 659 949 q 678 916 678 930 q 668 891 678 901 q 644 882 659 882 l 136 882 m 237 814 l 644 814 q 668 804 659 814 q 678 780 678 794 q 668 756 678 766 q 644 746 659 746 l 271 746 l 271 576 l 644 576 q 668 567 659 576 q 678 543 678 557 q 668 518 678 528 q 644 509 659 509 l 237 509 q 213 518 223 509 q 203 543 203 528 l 203 780 q 213 804 203 794 q 237 814 223 814 z "},"ê":{"ha":746,"x_min":68,"x_max":678,"o":"m 237 441 l 644 441 q 668 431 659 441 q 678 407 678 421 q 668 383 678 393 q 644 373 659 373 l 271 373 l 271 203 l 644 203 q 668 194 659 203 q 678 170 678 184 q 668 145 678 155 q 644 136 659 136 l 237 136 q 213 145 223 136 q 203 170 203 155 l 203 407 q 213 431 203 421 q 237 441 223 441 m 291 949 l 349 1008 q 373 1017 359 1017 q 397 1008 387 1017 l 455 949 l 562 949 l 373 1139 l 184 949 l 291 949 m 441 882 q 417 891 427 882 l 373 935 l 330 892 q 305 882 319 882 l 136 882 l 136 68 l 644 68 q 668 58 659 68 q 678 34 678 48 q 668 10 678 20 q 644 0 659 0 l 102 0 q 78 10 87 0 q 68 34 68 20 l 68 916 q 77 939 68 930 l 349 1211 q 373 1221 359 1221 q 397 1211 387 1221 l 408 1200 l 669 940 q 678 916 678 930 q 669 892 678 901 q 644 882 659 882 l 441 882 m 237 814 l 644 814 q 668 804 659 814 q 678 780 678 794 q 668 756 678 766 q 644 746 659 746 l 271 746 l 271 576 l 644 576 q 668 567 659 576 q 678 543 678 557 q 668 518 678 528 q 644 509 659 509 l 237 509 q 213 518 223 509 q 203 543 203 528 l 203 780 q 213 804 203 794 q 237 814 223 814 z "},"ë":{"ha":746,"x_min":68,"x_max":678,"o":"m 203 1017 q 251 1037 231 1017 q 271 1085 271 1057 q 251 1133 271 1113 q 203 1153 231 1153 q 156 1133 176 1153 q 136 1085 136 1113 q 156 1037 136 1057 q 203 1017 176 1017 m 543 1017 q 590 1037 570 1017 q 610 1085 610 1057 q 590 1133 610 1113 q 543 1153 570 1153 q 495 1133 515 1153 q 475 1085 475 1113 q 495 1037 475 1057 q 543 1017 515 1017 m 136 68 l 644 68 q 668 58 659 68 q 678 34 678 48 q 668 10 678 20 q 644 0 659 0 l 102 0 q 78 10 87 0 q 68 34 68 20 l 68 916 q 78 940 68 930 q 102 949 87 949 l 644 949 q 668 940 659 949 q 678 916 678 930 q 668 891 678 901 q 644 882 659 882 l 136 882 l 136 68 m 543 949 q 447 989 486 949 q 407 1085 407 1029 q 447 1181 407 1141 q 543 1221 486 1221 q 638 1181 599 1221 q 678 1085 678 1141 q 638 989 678 1029 q 543 949 599 949 m 203 949 q 107 989 147 949 q 68 1085 68 1029 q 107 1181 68 1141 q 203 1221 147 1221 q 299 1181 260 1221 q 339 1085 339 1141 q 299 989 339 1029 q 203 949 260 949 m 237 814 l 644 814 q 668 804 659 814 q 678 780 678 794 q 668 756 678 766 q 644 746 659 746 l 271 746 l 271 576 l 644 576 q 668 567 659 576 q 678 543 678 557 q 668 518 678 528 q 644 509 659 509 l 237 509 q 213 518 223 509 q 203 543 203 528 l 203 780 q 213 804 203 794 q 237 814 223 814 m 237 441 l 644 441 q 668 431 659 441 q 678 407 678 421 q 668 383 678 393 q 644 373 659 373 l 271 373 l 271 203 l 644 203 q 668 194 659 203 q 678 170 678 184 q 668 145 678 155 q 644 136 659 136 l 237 136 q 213 145 223 136 q 203 170 203 155 l 203 407 q 213 431 203 421 q 237 441 223 441 z "},"ì":{"ha":339,"x_min":-136,"x_max":339,"o":"m 203 34 l 203 916 q 213 940 203 930 q 237 949 223 949 q 261 940 252 949 q 271 916 271 930 l 271 34 q 261 10 271 20 q 237 0 252 0 q 213 10 223 0 q 203 34 203 20 m 281 960 l 78 1163 q 68 1187 68 1173 q 78 1211 68 1201 q 102 1221 88 1221 q 126 1211 116 1221 l 330 1008 q 339 984 339 998 q 330 960 339 970 q 306 949 319 949 q 281 960 292 949 m 78 960 l -125 1163 q -136 1186 -136 1173 q -125 1211 -136 1200 q -101 1221 -115 1221 q -78 1211 -87 1221 l 125 1007 q 136 984 136 998 q 125 960 136 970 q 101 949 115 949 q 78 960 87 949 m 136 916 l 136 34 q 126 10 136 20 q 102 0 116 0 q 78 10 87 0 q 68 34 68 20 l 68 916 q 78 940 68 930 q 102 949 87 949 q 126 940 116 949 q 136 916 136 930 z "},"í":{"ha":339,"x_min":0,"x_max":475,"o":"m 203 34 l 203 916 q 213 940 203 930 q 237 949 223 949 q 261 940 252 949 q 271 916 271 930 l 271 34 q 261 10 271 20 q 237 0 252 0 q 213 10 223 0 q 203 34 203 20 m 417 1211 q 440 1221 427 1221 q 465 1211 454 1221 q 475 1186 475 1200 q 465 1163 475 1173 l 261 960 q 238 949 252 949 q 214 960 224 949 q 203 984 203 970 q 214 1007 203 998 l 417 1211 m 213 1211 q 237 1221 223 1221 q 261 1211 251 1221 q 271 1187 271 1201 q 261 1163 271 1173 l 58 960 q 34 949 47 949 q 9 960 20 949 q 0 984 0 970 q 9 1008 0 998 l 213 1211 m 136 916 l 136 34 q 126 10 136 20 q 102 0 116 0 q 78 10 87 0 q 68 34 68 20 l 68 916 q 78 940 68 930 q 102 949 87 949 q 126 940 116 949 q 136 916 136 930 z "},"î":{"ha":339,"x_min":-136,"x_max":475,"o":"m 204 1200 l 465 939 q 475 916 475 930 q 465 891 475 901 q 441 882 455 882 q 417 891 427 882 l 170 1139 l -78 891 q -102 882 -87 882 q -126 891 -116 882 q -136 916 -136 901 q -126 939 -136 930 l 146 1211 q 170 1221 155 1221 q 194 1211 184 1221 l 204 1200 m 271 916 l 271 34 q 261 10 271 20 q 237 0 252 0 q 213 10 223 0 q 203 34 203 20 l 203 901 l 170 935 l 136 901 l 136 34 q 126 10 136 20 q 102 0 116 0 q 78 10 87 0 q 68 34 68 20 l 68 916 q 78 940 68 930 l 146 1008 q 170 1017 155 1017 q 194 1008 184 1017 l 262 939 q 271 916 271 930 z "},"ï":{"ha":339,"x_min":-136,"x_max":475,"o":"m 203 34 l 203 916 q 213 940 203 930 q 237 949 223 949 q 261 940 252 949 q 271 916 271 930 l 271 34 q 261 10 271 20 q 237 0 252 0 q 213 10 223 0 q 203 34 203 20 m 136 916 l 136 34 q 126 10 136 20 q 102 0 116 0 q 78 10 87 0 q 68 34 68 20 l 68 916 q 78 940 68 930 q 102 949 87 949 q 126 940 116 949 q 136 916 136 930 m 0 949 q -96 989 -56 949 q -136 1085 -136 1029 q -96 1181 -136 1141 q 0 1221 -56 1221 q 96 1181 56 1221 q 136 1085 136 1141 q 96 989 136 1029 q 0 949 56 949 m 0 1017 q 48 1037 28 1017 q 68 1085 68 1057 q 48 1133 68 1113 q 0 1153 28 1153 q -48 1133 -28 1153 q -68 1085 -68 1113 q -48 1037 -68 1057 q 0 1017 -28 1017 m 339 949 q 243 989 283 949 q 203 1085 203 1029 q 243 1181 203 1141 q 339 1221 283 1221 q 435 1181 395 1221 q 475 1085 475 1141 q 435 989 475 1029 q 339 949 395 949 m 339 1017 q 387 1037 367 1017 q 407 1085 407 1057 q 387 1133 407 1113 q 339 1153 367 1153 q 291 1133 311 1153 q 271 1085 271 1113 q 291 1037 271 1057 q 339 1017 311 1017 z "},"ð":{"ha":1085,"x_min":68,"x_max":1017,"o":"m 339 441 l 576 441 q 601 431 591 441 q 610 407 610 421 q 601 383 610 393 q 576 373 591 373 l 407 373 l 407 203 l 543 203 q 734 283 655 203 q 814 475 814 362 q 734 667 814 587 q 543 746 655 746 l 407 746 l 407 576 l 576 576 q 601 567 591 576 q 610 543 610 557 q 601 518 610 528 q 576 509 591 509 l 339 509 l 339 780 q 349 804 339 794 q 373 814 359 814 l 543 814 q 782 714 683 814 q 882 475 882 615 q 782 235 882 334 q 543 136 683 136 l 373 136 q 349 145 359 136 q 339 170 339 155 l 339 441 m 203 373 l 102 373 q 78 383 87 373 q 68 407 68 393 q 78 431 68 421 q 102 441 87 441 l 271 441 l 271 68 l 543 68 q 830 187 711 68 q 949 475 949 306 q 830 763 949 644 q 543 882 711 882 l 271 882 l 271 509 l 102 509 q 78 518 87 509 q 68 543 68 528 q 78 567 68 557 q 102 576 87 576 l 203 576 l 203 916 q 213 940 203 930 q 237 949 223 949 l 543 949 q 878 810 739 949 q 1017 475 1017 671 q 878 139 1017 278 q 543 0 739 0 l 237 0 q 213 10 223 0 q 203 34 203 20 l 203 373 z "},"ñ":{"ha":882,"x_min":68,"x_max":814,"o":"m 271 495 l 271 34 q 261 10 271 20 q 237 0 252 0 q 213 10 223 0 q 203 34 203 20 l 203 576 q 213 601 203 591 q 237 610 223 610 q 262 601 252 610 l 746 116 l 746 916 q 756 940 746 930 q 780 949 766 949 q 804 940 794 949 q 814 916 814 930 l 814 34 q 804 10 814 20 q 781 0 794 0 q 756 9 766 0 l 271 495 m 136 834 l 136 34 q 126 10 136 20 q 102 0 116 0 q 78 10 87 0 q 68 34 68 20 l 68 916 q 78 940 68 930 q 102 949 87 949 q 126 940 116 949 l 610 455 l 610 916 q 620 940 610 930 q 644 949 630 949 q 668 940 659 949 q 678 916 678 930 l 678 373 q 668 349 678 359 q 644 339 659 339 q 621 349 630 339 l 136 834 m 273 1076 q 297 1090 273 1076 q 407 1049 322 1103 q 534 1022 492 995 q 584 1049 576 1049 q 601 1039 591 1049 q 610 1015 610 1029 q 601 991 610 1001 q 541 954 591 981 q 407 981 492 927 q 280 1008 322 1036 q 230 981 237 981 q 213 991 223 981 q 203 1015 203 1001 q 213 1039 203 1029 q 273 1076 223 1049 m 541 1090 q 516 1076 541 1090 q 407 1117 492 1063 q 280 1144 322 1171 q 230 1117 237 1117 q 213 1127 223 1117 q 203 1151 203 1137 q 213 1175 203 1165 q 273 1212 223 1185 q 407 1185 322 1239 q 534 1158 492 1131 q 584 1185 576 1185 q 601 1175 591 1185 q 610 1151 610 1165 q 601 1127 610 1137 q 541 1090 591 1117 z "},"ò":{"ha":1085,"x_min":68,"x_max":1017,"o":"m 543 0 q 207 139 346 0 q 68 475 68 278 q 207 810 68 671 q 543 949 346 949 q 878 810 739 949 q 1017 475 1017 671 q 878 139 1017 278 q 543 0 739 0 m 543 68 q 830 187 711 68 q 949 475 949 306 q 830 763 949 644 q 543 882 711 882 q 255 763 374 882 q 136 475 136 644 q 255 187 136 306 q 543 68 374 68 m 543 136 q 303 235 402 136 q 203 475 203 334 q 303 714 203 615 q 543 814 402 814 q 782 714 683 814 q 882 475 882 615 q 782 235 882 334 q 543 136 683 136 m 543 203 q 734 283 655 203 q 814 475 814 362 q 734 667 814 587 q 543 746 655 746 q 351 667 430 746 q 271 475 271 587 q 351 283 271 362 q 543 203 430 203 m 485 960 l 281 1163 q 271 1186 271 1173 q 281 1211 271 1200 q 306 1221 292 1221 q 329 1211 319 1221 l 532 1007 q 543 984 543 998 q 532 960 543 970 q 508 949 522 949 q 485 960 494 949 m 688 960 l 485 1163 q 475 1187 475 1173 q 485 1211 475 1201 q 509 1221 495 1221 q 533 1211 523 1221 l 736 1008 q 746 984 746 998 q 736 960 746 970 q 712 949 726 949 q 688 960 699 949 z "},"ó":{"ha":1085,"x_min":68,"x_max":1017,"o":"m 543 0 q 207 139 346 0 q 68 475 68 278 q 207 810 68 671 q 543 949 346 949 q 878 810 739 949 q 1017 475 1017 671 q 878 139 1017 278 q 543 0 739 0 m 543 68 q 830 187 711 68 q 949 475 949 306 q 830 763 949 644 q 543 882 711 882 q 255 763 374 882 q 136 475 136 644 q 255 187 136 306 q 543 68 374 68 m 543 136 q 303 235 402 136 q 203 475 203 334 q 303 714 203 615 q 543 814 402 814 q 782 714 683 814 q 882 475 882 615 q 782 235 882 334 q 543 136 683 136 m 543 203 q 734 283 655 203 q 814 475 814 362 q 734 667 814 587 q 543 746 655 746 q 351 667 430 746 q 271 475 271 587 q 351 283 271 362 q 543 203 430 203 m 552 1211 q 576 1221 562 1221 q 600 1211 590 1221 q 610 1187 610 1201 q 600 1163 610 1173 l 397 960 q 373 949 387 949 q 349 960 359 949 q 339 984 339 970 q 349 1008 339 998 l 552 1211 m 756 1211 q 780 1221 766 1221 q 804 1211 793 1221 q 814 1186 814 1200 q 804 1163 814 1173 l 600 960 q 577 949 591 949 q 553 960 563 949 q 543 984 543 970 q 553 1007 543 998 l 756 1211 z "},"ô":{"ha":1085,"x_min":68,"x_max":1017,"o":"m 543 203 q 734 283 655 203 q 814 475 814 362 q 734 667 814 587 q 543 746 655 746 q 351 667 430 746 q 271 475 271 587 q 351 283 271 362 q 543 203 430 203 m 543 136 q 303 235 402 136 q 203 475 203 334 q 303 714 203 615 q 543 814 402 814 q 782 714 683 814 q 882 475 882 615 q 782 235 882 334 q 543 136 683 136 m 610 876 q 587 891 596 878 l 543 935 l 499 892 q 475 876 489 878 q 255 763 349 857 q 136 475 136 644 q 255 187 136 306 q 543 68 374 68 q 830 187 711 68 q 949 475 949 306 q 831 763 949 644 q 610 876 736 857 m 453 942 l 519 1008 q 543 1017 528 1017 q 567 1008 557 1017 l 632 942 q 878 810 772 917 q 1017 475 1017 671 q 878 139 1017 278 q 543 0 739 0 q 207 139 346 0 q 68 475 68 278 q 207 810 68 671 q 453 942 313 917 m 577 1200 l 838 939 q 848 916 848 930 q 838 891 848 901 q 814 882 828 882 q 790 891 800 882 l 543 1139 l 295 891 q 271 882 286 882 q 247 891 257 882 q 237 916 237 901 q 247 939 237 930 l 519 1211 q 543 1221 528 1221 q 567 1211 557 1221 l 577 1200 z "},"õ":{"ha":1085,"x_min":68,"x_max":1017,"o":"m 543 203 q 734 283 655 203 q 814 475 814 362 q 734 667 814 587 q 543 746 655 746 q 351 667 430 746 q 271 475 271 587 q 351 283 271 362 q 543 203 430 203 m 543 136 q 303 235 402 136 q 203 475 203 334 q 303 714 203 615 q 543 814 402 814 q 782 714 683 814 q 882 475 882 615 q 782 235 882 334 q 543 136 683 136 m 543 68 q 830 187 711 68 q 949 475 949 306 q 830 763 949 644 q 543 882 711 882 q 255 763 374 882 q 136 475 136 644 q 255 187 136 306 q 543 68 374 68 m 543 0 q 207 139 346 0 q 68 475 68 278 q 207 810 68 671 q 543 949 346 949 q 878 810 739 949 q 1017 475 1017 671 q 878 139 1017 278 q 543 0 739 0 m 543 1117 q 415 1144 458 1171 q 366 1117 373 1117 q 349 1127 359 1117 q 339 1151 339 1137 q 349 1175 339 1165 q 408 1212 359 1185 q 543 1185 458 1239 q 670 1158 627 1131 q 719 1185 712 1185 q 736 1175 726 1185 q 746 1151 746 1165 q 736 1127 746 1137 q 677 1090 726 1117 q 543 1117 627 1063 m 543 1049 q 670 1022 627 995 q 719 1049 712 1049 q 736 1039 726 1049 q 746 1015 746 1029 q 736 991 746 1001 q 677 954 726 981 q 543 981 627 927 q 415 1008 458 1036 q 366 981 373 981 q 349 991 359 981 q 339 1015 339 1001 q 349 1039 339 1029 q 408 1076 359 1049 q 543 1049 458 1103 z "},"ö":{"ha":1085,"x_min":68,"x_max":1017,"o":"m 543 0 q 207 139 346 0 q 68 475 68 278 q 207 810 68 671 q 543 949 346 949 q 878 810 739 949 q 1017 475 1017 671 q 878 139 1017 278 q 543 0 739 0 m 543 68 q 830 187 711 68 q 949 475 949 306 q 830 763 949 644 q 543 882 711 882 q 255 763 374 882 q 136 475 136 644 q 255 187 136 306 q 543 68 374 68 m 543 136 q 303 235 402 136 q 203 475 203 334 q 303 714 203 615 q 543 814 402 814 q 782 714 683 814 q 882 475 882 615 q 782 235 882 334 q 543 136 683 136 m 543 203 q 734 283 655 203 q 814 475 814 362 q 734 667 814 587 q 543 746 655 746 q 351 667 430 746 q 271 475 271 587 q 351 283 271 362 q 543 203 430 203 m 373 949 q 277 989 317 949 q 237 1085 237 1029 q 277 1181 237 1141 q 373 1221 317 1221 q 469 1181 429 1221 q 509 1085 509 1141 q 469 989 509 1029 q 373 949 429 949 m 373 1017 q 421 1037 401 1017 q 441 1085 441 1057 q 421 1133 441 1113 q 373 1153 401 1153 q 325 1133 345 1153 q 305 1085 305 1113 q 325 1037 305 1057 q 373 1017 345 1017 m 712 949 q 616 989 656 949 q 576 1085 576 1029 q 616 1181 576 1141 q 712 1221 656 1221 q 808 1181 768 1221 q 848 1085 848 1141 q 808 989 848 1029 q 712 949 768 949 m 712 1017 q 760 1037 740 1017 q 780 1085 780 1057 q 760 1133 780 1113 q 712 1153 740 1153 q 664 1133 684 1153 q 644 1085 644 1113 q 664 1037 644 1057 q 712 1017 684 1017 z "},"÷":{"ha":1085,"x_min":68,"x_max":1017,"o":"m 858 940 q 882 949 867 949 q 906 940 896 949 q 916 916 916 930 q 906 892 916 901 l 125 111 q 102 102 116 102 q 78 112 87 102 q 68 136 68 121 q 77 159 68 150 l 858 940 m 960 838 q 983 848 969 848 q 1007 838 998 848 q 1017 814 1017 828 q 1008 790 1017 800 l 228 10 q 203 0 218 0 q 179 10 189 0 q 170 34 170 20 q 180 58 170 48 l 960 838 z "},"ø":{"ha":1085,"x_min":68,"x_max":1017,"o":"m 290 72 l 228 10 q 203 0 218 0 q 179 10 189 0 q 170 34 170 20 q 180 58 170 48 l 283 161 q 339 121 310 138 q 543 68 430 68 q 830 187 711 68 q 949 475 949 306 q 896 678 949 587 q 856 734 879 707 l 960 838 q 983 848 969 848 q 1007 838 998 848 q 1017 814 1017 828 q 1008 790 1017 800 l 945 728 q 1017 475 1017 616 q 878 139 1017 278 q 543 0 739 0 q 290 72 401 0 m 808 686 q 846 628 830 659 q 882 475 882 559 q 782 235 882 334 q 543 136 683 136 q 389 172 458 136 q 331 210 359 187 l 808 686 m 795 577 l 440 222 q 543 203 488 203 q 734 283 655 203 q 814 475 814 362 q 795 577 814 530 m 795 878 l 857 939 q 882 949 867 949 q 906 940 896 949 q 916 916 916 930 q 905 891 916 901 l 802 788 q 746 828 775 811 q 543 882 655 882 q 255 763 374 882 q 136 475 136 644 q 189 271 136 362 q 229 215 206 242 l 125 111 q 102 102 116 102 q 78 112 87 102 q 68 136 68 121 q 77 159 68 150 l 140 222 q 68 475 68 333 q 207 810 68 671 q 543 949 346 949 q 795 878 684 949 m 277 263 q 239 321 255 291 q 203 475 203 391 q 303 714 203 615 q 543 814 402 814 q 696 778 627 814 q 754 740 726 762 l 277 263 m 290 372 l 645 727 q 543 746 597 746 q 351 667 430 746 q 271 475 271 587 q 290 372 271 420 z "},"ù":{"ha":814,"x_min":68,"x_max":746,"o":"m 543 916 q 552 940 543 930 q 576 949 562 949 q 601 940 591 949 q 610 916 610 930 l 610 339 q 551 195 610 255 q 407 136 491 136 q 263 195 323 136 q 203 339 203 255 l 203 916 q 213 940 203 930 q 237 949 223 949 q 261 940 252 949 q 271 916 271 930 l 271 339 q 311 243 271 283 q 407 203 351 203 q 503 243 463 203 q 543 339 543 283 l 543 916 m 553 960 l 349 1163 q 339 1187 339 1173 q 349 1211 339 1201 q 373 1221 359 1221 q 397 1211 387 1221 l 601 1008 q 610 984 610 998 q 601 960 610 970 q 577 949 591 949 q 553 960 563 949 m 349 960 l 146 1163 q 136 1186 136 1173 q 146 1211 136 1200 q 170 1221 156 1221 q 193 1211 184 1221 l 397 1007 q 407 984 407 998 q 397 960 407 970 q 373 949 387 949 q 349 960 359 949 m 678 916 q 688 940 678 930 q 712 949 698 949 q 736 940 726 949 q 746 916 746 930 l 746 339 q 647 99 746 199 q 407 0 547 0 q 167 99 267 0 q 68 339 68 199 l 68 916 q 78 940 68 930 q 102 949 87 949 q 126 940 116 949 q 136 916 136 930 l 136 339 q 215 147 136 227 q 407 68 294 68 q 599 147 519 68 q 678 339 678 227 l 678 916 z "},"ú":{"ha":814,"x_min":68,"x_max":746,"o":"m 543 916 q 552 940 543 930 q 576 949 562 949 q 601 940 591 949 q 610 916 610 930 l 610 339 q 551 195 610 255 q 407 136 491 136 q 263 195 323 136 q 203 339 203 255 l 203 916 q 213 940 203 930 q 237 949 223 949 q 261 940 252 949 q 271 916 271 930 l 271 339 q 311 243 271 283 q 407 203 351 203 q 503 243 463 203 q 543 339 543 283 l 543 916 m 621 1211 q 644 1221 630 1221 q 668 1211 658 1221 q 678 1186 678 1200 q 668 1163 678 1173 l 465 960 q 441 949 455 949 q 417 960 427 949 q 407 984 407 970 q 417 1007 407 998 l 621 1211 m 416 1211 q 440 1221 427 1221 q 465 1211 454 1221 q 475 1187 475 1201 q 465 1163 475 1173 l 261 960 q 237 949 251 949 q 213 960 223 949 q 203 984 203 970 q 213 1008 203 998 l 416 1211 m 678 916 q 688 940 678 930 q 712 949 698 949 q 736 940 726 949 q 746 916 746 930 l 746 339 q 647 99 746 199 q 407 0 547 0 q 167 99 267 0 q 68 339 68 199 l 68 916 q 78 940 68 930 q 102 949 87 949 q 126 940 116 949 q 136 916 136 930 l 136 339 q 215 147 136 227 q 407 68 294 68 q 599 147 519 68 q 678 339 678 227 l 678 916 z "},"û":{"ha":814,"x_min":68,"x_max":746,"o":"m 407 1017 q 431 1008 421 1017 l 499 939 q 509 916 509 930 q 499 891 509 901 q 475 882 489 882 q 451 891 460 882 l 407 935 l 363 892 q 339 882 353 882 q 315 891 325 882 q 305 916 305 901 q 315 940 305 930 l 383 1008 q 407 1017 393 1017 m 441 1200 l 703 939 q 712 916 712 930 q 702 891 712 901 q 678 882 692 882 q 654 891 664 882 l 407 1139 l 159 891 q 136 882 150 882 q 112 891 121 882 q 102 916 102 901 q 111 939 102 930 l 383 1211 q 407 1221 393 1221 q 431 1211 421 1221 l 441 1200 m 543 814 q 552 838 543 828 q 576 848 562 848 q 601 838 591 848 q 610 814 610 828 l 610 339 q 551 195 610 255 q 407 136 491 136 q 263 195 323 136 q 203 339 203 255 l 203 814 q 213 838 203 828 q 237 848 223 848 q 261 838 252 848 q 271 814 271 828 l 271 339 q 311 243 271 283 q 407 203 351 203 q 503 243 463 203 q 543 339 543 283 l 543 814 m 678 814 q 688 838 678 828 q 712 848 698 848 q 736 838 726 848 q 746 814 746 828 l 746 339 q 647 99 746 199 q 407 0 547 0 q 167 99 267 0 q 68 339 68 199 l 68 814 q 78 838 68 828 q 102 848 87 848 q 126 838 116 848 q 136 814 136 828 l 136 339 q 215 147 136 227 q 407 68 294 68 q 599 147 519 68 q 678 339 678 227 l 678 814 z "},"ü":{"ha":814,"x_min":68,"x_max":746,"o":"m 237 949 q 141 989 181 949 q 102 1085 102 1029 q 141 1181 102 1141 q 237 1221 181 1221 q 333 1181 294 1221 q 373 1085 373 1141 q 333 989 373 1029 q 237 949 294 949 m 237 1017 q 285 1037 265 1017 q 305 1085 305 1057 q 285 1133 305 1113 q 237 1153 265 1153 q 190 1133 210 1153 q 170 1085 170 1113 q 190 1037 170 1057 q 237 1017 210 1017 m 576 949 q 480 989 520 949 q 441 1085 441 1029 q 480 1181 441 1141 q 576 1221 520 1221 q 672 1181 633 1221 q 712 1085 712 1141 q 672 989 712 1029 q 576 949 633 949 m 576 1017 q 624 1037 604 1017 q 644 1085 644 1057 q 624 1133 644 1113 q 576 1153 604 1153 q 529 1133 549 1153 q 509 1085 509 1113 q 529 1037 509 1057 q 576 1017 549 1017 m 543 882 q 552 906 543 896 q 576 916 562 916 q 601 906 591 916 q 610 882 610 896 l 610 339 q 551 195 610 255 q 407 136 491 136 q 263 195 323 136 q 203 339 203 255 l 203 882 q 213 906 203 896 q 237 916 223 916 q 261 906 252 916 q 271 882 271 896 l 271 339 q 311 243 271 283 q 407 203 351 203 q 503 243 463 203 q 543 339 543 283 l 543 882 m 678 882 q 688 906 678 896 q 712 916 698 916 q 736 906 726 916 q 746 882 746 896 l 746 339 q 647 99 746 199 q 407 0 547 0 q 167 99 267 0 q 68 339 68 199 l 68 882 q 78 906 68 896 q 102 916 87 916 q 126 906 116 916 q 136 882 136 896 l 136 339 q 215 147 136 227 q 407 68 294 68 q 599 147 519 68 q 678 339 678 227 l 678 882 z "},"ý":{"ha":1017,"x_min":0,"x_max":1017,"o":"m 610 494 l 610 34 q 601 10 610 20 q 576 0 591 0 q 552 10 562 0 q 543 34 543 20 l 543 509 q 552 532 543 523 l 960 940 q 983 949 969 949 q 1007 940 998 949 q 1017 916 1017 930 q 1008 892 1017 901 l 610 494 m 214 892 q 203 916 203 901 q 213 940 203 930 q 237 949 223 949 q 262 940 252 949 l 509 692 l 756 940 q 780 949 766 949 q 804 940 794 949 q 814 916 814 930 q 804 892 814 901 l 533 621 q 509 610 523 610 q 485 620 494 610 l 214 892 m 407 494 l 9 892 q 0 916 0 901 q 10 940 0 930 q 34 949 20 949 q 58 940 48 949 l 465 532 q 475 509 475 523 l 475 34 q 465 10 475 20 q 441 0 455 0 q 417 10 427 0 q 407 34 407 20 l 407 494 m 552 1211 q 576 1221 562 1221 q 600 1211 590 1221 q 610 1187 610 1201 q 600 1163 610 1173 l 397 960 q 373 949 387 949 q 349 960 359 949 q 339 984 339 970 q 349 1008 339 998 l 552 1211 m 756 1211 q 780 1221 766 1221 q 804 1211 793 1221 q 814 1186 814 1200 q 804 1163 814 1173 l 600 960 q 577 949 591 949 q 553 960 563 949 q 543 984 543 970 q 553 1007 543 998 l 756 1211 z "},"þ":{"ha":882,"x_min":68,"x_max":814,"o":"m 678 475 q 618 331 678 391 q 475 271 559 271 l 237 271 q 213 281 223 271 q 203 305 203 291 l 203 644 q 213 668 203 659 q 237 678 223 678 l 475 678 q 618 618 559 678 q 678 475 678 559 m 136 34 q 126 10 136 20 q 102 0 116 0 q 78 10 87 0 q 68 34 68 20 l 68 916 q 78 940 68 930 q 102 949 87 949 q 126 940 116 949 q 136 916 136 930 l 136 34 m 814 475 q 714 235 814 334 q 475 136 615 136 l 271 136 l 271 34 q 261 10 271 20 q 237 0 252 0 q 213 10 223 0 q 203 34 203 20 l 203 170 q 213 194 203 184 q 237 203 223 203 l 475 203 q 667 283 587 203 q 746 475 746 362 q 667 667 746 587 q 475 746 587 746 l 237 746 q 213 756 223 746 q 203 780 203 766 l 203 916 q 213 940 203 930 q 237 949 223 949 q 261 940 252 949 q 271 916 271 930 l 271 814 l 475 814 q 714 714 615 814 q 814 475 814 615 m 271 339 l 475 339 q 571 379 531 339 q 610 475 610 418 q 571 571 610 531 q 475 610 531 610 l 271 610 l 271 339 z "},"ÿ":{"ha":1017,"x_min":0,"x_max":1017,"o":"m 610 494 l 610 34 q 601 10 610 20 q 576 0 591 0 q 552 10 562 0 q 543 34 543 20 l 543 509 q 552 532 543 523 l 960 940 q 983 949 969 949 q 1007 940 998 949 q 1017 916 1017 930 q 1008 892 1017 901 l 610 494 m 214 892 q 203 916 203 901 q 213 940 203 930 q 237 949 223 949 q 262 940 252 949 l 509 692 l 756 940 q 780 949 766 949 q 804 940 794 949 q 814 916 814 930 q 804 892 814 901 l 533 621 q 509 610 523 610 q 485 620 494 610 l 214 892 m 407 494 l 9 892 q 0 916 0 901 q 10 940 0 930 q 34 949 20 949 q 58 940 48 949 l 465 532 q 475 509 475 523 l 475 34 q 465 10 475 20 q 441 0 455 0 q 417 10 427 0 q 407 34 407 20 l 407 494 m 339 949 q 243 989 283 949 q 203 1085 203 1029 q 243 1181 203 1141 q 339 1221 283 1221 q 435 1181 395 1221 q 475 1085 475 1141 q 435 989 475 1029 q 339 949 395 949 m 339 1017 q 387 1037 367 1017 q 407 1085 407 1057 q 387 1133 407 1113 q 339 1153 367 1153 q 291 1133 311 1153 q 271 1085 271 1113 q 291 1037 271 1057 q 339 1017 311 1017 m 678 949 q 582 989 622 949 q 543 1085 543 1029 q 582 1181 543 1141 q 678 1221 622 1221 q 774 1181 734 1221 q 814 1085 814 1141 q 774 989 814 1029 q 678 949 734 949 m 678 1017 q 726 1037 706 1017 q 746 1085 746 1057 q 726 1133 746 1113 q 678 1153 706 1153 q 630 1133 650 1153 q 610 1085 610 1113 q 630 1037 610 1057 q 678 1017 650 1017 z "},"–":{"ha":678,"x_min":68,"x_max":610,"o":"m 102 441 l 576 441 q 601 431 591 441 q 610 407 610 421 q 601 383 610 393 q 576 373 591 373 l 102 373 q 78 383 87 373 q 68 407 68 393 q 78 431 68 421 q 102 441 87 441 m 576 509 l 102 509 q 78 518 87 509 q 68 543 68 528 q 78 567 68 557 q 102 576 87 576 l 576 576 q 601 567 591 576 q 610 543 610 557 q 601 518 610 528 q 576 509 591 509 z "},"—":{"ha":814,"x_min":68,"x_max":746,"o":"m 102 441 l 712 441 q 736 431 726 441 q 746 407 746 421 q 736 383 746 393 q 712 373 726 373 l 102 373 q 78 383 87 373 q 68 407 68 393 q 78 431 68 421 q 102 441 87 441 m 712 509 l 102 509 q 78 518 87 509 q 68 543 68 528 q 78 567 68 557 q 102 576 87 576 l 712 576 q 736 567 726 576 q 746 543 746 557 q 736 518 746 528 q 712 509 726 509 z "},"Œ":{"ha":1628,"x_min":68,"x_max":1560,"o":"m 543 203 q 734 283 655 203 q 814 475 814 362 q 734 667 814 587 q 543 746 655 746 q 351 667 430 746 q 271 475 271 587 q 351 283 271 362 q 543 203 430 203 m 543 136 q 303 235 402 136 q 203 475 203 334 q 303 714 203 615 q 543 814 402 814 q 782 714 683 814 q 882 475 882 615 q 782 235 882 334 q 543 136 683 136 m 543 68 q 830 187 711 68 q 949 475 949 306 q 830 763 949 644 q 543 882 711 882 q 255 763 374 882 q 136 475 136 644 q 255 187 136 306 q 543 68 374 68 m 949 228 q 878 139 920 181 q 543 0 739 0 q 207 139 346 0 q 68 475 68 278 q 207 810 68 671 q 543 949 346 949 q 878 810 739 949 q 949 722 920 768 l 949 916 q 959 940 949 930 q 983 949 969 949 l 1526 949 q 1550 940 1540 949 q 1560 916 1560 930 q 1550 891 1560 901 q 1526 882 1540 882 l 1017 882 l 1017 68 l 1526 68 q 1550 58 1540 68 q 1560 34 1560 48 q 1550 10 1560 20 q 1526 0 1540 0 l 983 0 q 959 10 969 0 q 949 34 949 20 l 949 228 m 1119 814 l 1526 814 q 1550 804 1540 814 q 1560 780 1560 794 q 1550 756 1560 766 q 1526 746 1540 746 l 1153 746 l 1153 576 l 1526 576 q 1550 567 1540 576 q 1560 543 1560 557 q 1550 518 1560 528 q 1526 509 1540 509 l 1119 509 q 1095 518 1105 509 q 1085 543 1085 528 l 1085 780 q 1095 804 1085 794 q 1119 814 1105 814 m 1119 441 l 1526 441 q 1550 431 1540 441 q 1560 407 1560 421 q 1550 383 1560 393 q 1526 373 1540 373 l 1153 373 l 1153 203 l 1526 203 q 1550 194 1540 203 q 1560 170 1560 184 q 1550 145 1560 155 q 1526 136 1540 136 l 1119 136 q 1095 145 1105 136 q 1085 170 1085 155 l 1085 407 q 1095 431 1085 421 q 1119 441 1105 441 z "},"œ":{"ha":1628,"x_min":68,"x_max":1560,"o":"m 543 203 q 734 283 655 203 q 814 475 814 362 q 734 667 814 587 q 543 746 655 746 q 351 667 430 746 q 271 475 271 587 q 351 283 271 362 q 543 203 430 203 m 543 136 q 303 235 402 136 q 203 475 203 334 q 303 714 203 615 q 543 814 402 814 q 782 714 683 814 q 882 475 882 615 q 782 235 882 334 q 543 136 683 136 m 543 68 q 830 187 711 68 q 949 475 949 306 q 830 763 949 644 q 543 882 711 882 q 255 763 374 882 q 136 475 136 644 q 255 187 136 306 q 543 68 374 68 m 949 228 q 878 139 920 181 q 543 0 739 0 q 207 139 346 0 q 68 475 68 278 q 207 810 68 671 q 543 949 346 949 q 878 810 739 949 q 949 722 920 768 l 949 916 q 959 940 949 930 q 983 949 969 949 l 1526 949 q 1550 940 1540 949 q 1560 916 1560 930 q 1550 891 1560 901 q 1526 882 1540 882 l 1017 882 l 1017 68 l 1526 68 q 1550 58 1540 68 q 1560 34 1560 48 q 1550 10 1560 20 q 1526 0 1540 0 l 983 0 q 959 10 969 0 q 949 34 949 20 l 949 228 m 1119 814 l 1526 814 q 1550 804 1540 814 q 1560 780 1560 794 q 1550 756 1560 766 q 1526 746 1540 746 l 1153 746 l 1153 576 l 1526 576 q 1550 567 1540 576 q 1560 543 1560 557 q 1550 518 1560 528 q 1526 509 1540 509 l 1119 509 q 1095 518 1105 509 q 1085 543 1085 528 l 1085 780 q 1095 804 1085 794 q 1119 814 1105 814 m 1119 441 l 1526 441 q 1550 431 1540 441 q 1560 407 1560 421 q 1550 383 1560 393 q 1526 373 1540 373 l 1153 373 l 1153 203 l 1526 203 q 1550 194 1540 203 q 1560 170 1560 184 q 1550 145 1560 155 q 1526 136 1540 136 l 1119 136 q 1095 145 1105 136 q 1085 170 1085 155 l 1085 407 q 1095 431 1085 421 q 1119 441 1105 441 z "},"‰":{"ha":1560,"x_min":68,"x_max":1492,"o":"m 858 940 q 882 949 867 949 q 906 940 896 949 q 916 916 916 930 q 906 892 916 901 l 125 111 q 102 102 116 102 q 78 112 87 102 q 68 136 68 121 q 77 159 68 150 l 858 940 m 960 838 q 983 848 969 848 q 1007 838 998 848 q 1017 814 1017 828 q 1008 790 1017 800 l 228 10 q 203 0 218 0 q 179 10 189 0 q 170 34 170 20 q 180 58 170 48 l 960 838 m 271 543 q 127 602 187 543 q 68 746 68 662 q 127 890 68 830 q 271 949 187 949 q 415 890 355 949 q 475 746 475 830 q 415 602 475 662 q 271 543 355 543 m 271 610 q 367 650 328 610 q 407 746 407 690 q 367 842 407 802 q 271 882 328 882 q 175 842 215 882 q 136 746 136 802 q 175 650 136 690 q 271 610 215 610 m 271 678 q 223 698 243 678 q 203 746 203 718 q 223 794 203 774 q 271 814 243 814 q 319 794 299 814 q 339 746 339 774 q 319 698 339 718 q 271 678 299 678 m 814 0 q 670 60 730 0 q 610 203 610 119 q 670 347 610 288 q 814 407 730 407 q 958 347 898 407 q 1017 203 1017 288 q 958 60 1017 119 q 814 0 898 0 m 814 68 q 910 107 870 68 q 949 203 949 147 q 910 299 949 260 q 814 339 870 339 q 718 299 758 339 q 678 203 678 260 q 718 107 678 147 q 814 68 758 68 m 814 136 q 766 156 786 136 q 746 203 746 176 q 766 251 746 231 q 814 271 786 271 q 862 251 842 271 q 882 203 882 231 q 862 156 882 176 q 814 136 842 136 m 1289 0 q 1145 60 1204 0 q 1085 203 1085 119 q 1145 347 1085 288 q 1289 407 1204 407 q 1432 347 1373 407 q 1492 203 1492 288 q 1432 60 1492 119 q 1289 0 1373 0 m 1289 68 q 1384 107 1345 68 q 1424 203 1424 147 q 1384 299 1424 260 q 1289 339 1345 339 q 1193 299 1232 339 q 1153 203 1153 260 q 1193 107 1153 147 q 1289 68 1232 68 m 1289 136 q 1241 156 1261 136 q 1221 203 1221 176 q 1241 251 1221 231 q 1289 271 1261 271 q 1336 251 1316 271 q 1356 203 1356 231 q 1336 156 1356 176 q 1289 136 1316 136 z "}}}
